{
DisplayStrings = (
a,
t
);
copyright = GPL;
customParameters = (
{
name = vendorID;
value = ADBE;
}
);
date = "2017-04-03 09:07:17 +0000";
designer = "Field II Productions";
designerURL = www.fieldii.com;
familyName = "OldGraffitiFont";
featurePrefixes = (
{
automatic = 1;
code = "languagesystem DFLT dflt;\012languagesystem latn dflt;\012";
name = Languagesystems;
}
);
fontMaster = (
{
ascender = 750;
capHeight = 720;
customParameters = (
{
name = typoAscender;
value = 750;
},
{
name = typoDescender;
value = "-170";
},
{
name = typoLineGap;
value = 280;
},
{
name = underlinePosition;
value = "-75";
}
);
descender = "-170";
id = "7B23AAD7-CE87-48AA-B0FE-511DC5B49C39";
weightValue = 400;
widthValue = 5;
xHeight = 730;
}
);
glyphs = (
{
glyphname = A;
layers = (
{
layerId = "7B23AAD7-CE87-48AA-B0FE-511DC5B49C39";
name = Regular;
paths = (
{
closed = 1;
nodes = (
"183 683 LINE",
"614 681 LINE",
"629 634 OFFCURVE",
"646 581 OFFCURVE",
"663 530 CURVE SMOOTH",
"680 479 OFFCURVE",
"698 430 OFFCURVE",
"714 393 CURVE SMOOTH",
"722 374 OFFCURVE",
"730 359 OFFCURVE",
"737 347 CURVE SMOOTH",
"751 323 OFFCURVE",
"766 320 OFFCURVE",
"799 310 CURVE SMOOTH",
"832 300 OFFCURVE",
"865 291 OFFCURVE",
"889 286 CURVE",
"900 283 OFFCURVE",
"907 282 OFFCURVE",
"910 281 CURVE",
"910 224 LINE",
"909 223 OFFCURVE",
"903 219 OFFCURVE",
"892 213 CURVE SMOOTH",
"870 200 OFFCURVE",
"836 178 OFFCURVE",
"796 151 CURVE SMOOTH",
"756 124 OFFCURVE",
"716 93 OFFCURVE",
"681 62 CURVE SMOOTH",
"664 46 OFFCURVE",
"649 30 OFFCURVE",
"637 15 CURVE",
"614 27 OFFCURVE",
"596 44 OFFCURVE",
"581 60 CURVE SMOOTH",
"574 68 OFFCURVE",
"567 76 OFFCURVE",
"562 83 CURVE SMOOTH",
"557 90 OFFCURVE",
"552 95 OFFCURVE",
"549 98 CURVE",
"547 98 OFFCURVE",
"543 97 OFFCURVE",
"536 95 CURVE",
"480 73 LINE SMOOTH",
"468 68 OFFCURVE",
"456 64 OFFCURVE",
"444 59 CURVE SMOOTH",
"350 21 LINE",
"349 23 OFFCURVE",
"342 29 OFFCURVE",
"327 40 CURVE",
"297 60 OFFCURVE",
"240 89 OFFCURVE",
"160 114 CURVE SMOOTH",
"119 127 OFFCURVE",
"73 136 OFFCURVE",
"21 142 CURVE",
"26 200 LINE",
"36 204 OFFCURVE",
"46 207 OFFCURVE",
"55 210 CURVE SMOOTH",
"71 215 OFFCURVE",
"88 221 OFFCURVE",
"95 224 CURVE",
"100 244 OFFCURVE",
"120 300 OFFCURVE",
"151 366 CURVE SMOOTH",
"182 432 OFFCURVE",
"223 508 OFFCURVE",
"268 565 CURVE",
"264 568 OFFCURVE",
"258 571 OFFCURVE",
"249 576 CURVE",
"232 584 OFFCURVE",
"212 594 OFFCURVE",
"188 607 CURVE"
);
},
{
closed = 1;
nodes = (
"429 409 OFFCURVE",
"419 368 OFFCURVE",
"410 327 CURVE SMOOTH",
"401 286 OFFCURVE",
"392 244 OFFCURVE",
"392 219 CURVE",
"407 218 OFFCURVE",
"430 217 OFFCURVE",
"453 217 CURVE",
"464 216 OFFCURVE",
"475 216 OFFCURVE",
"485 216 CURVE SMOOTH",
"495 216 OFFCURVE",
"503 216 OFFCURVE",
"508 217 CURVE",
"493 265 LINE SMOOTH",
"480 304 OFFCURVE",
"466 347 OFFCURVE",
"452 387 CURVE SMOOTH",
"445 406 OFFCURVE",
"438 423 OFFCURVE",
"433 436 CURVE"
);
}
);
width = 888;
}
);
unicode = 0041;
},
{
glyphname = B;
layers = (
{
layerId = "7B23AAD7-CE87-48AA-B0FE-511DC5B49C39";
name = Regular;
paths = (
{
closed = 1;
nodes = (
"10 694 LINE",
"36 691 OFFCURVE",
"66 690 OFFCURVE",
"99 689 CURVE SMOOTH",
"165 687 OFFCURVE",
"236 684 OFFCURVE",
"308 681 CURVE SMOOTH",
"380 677 OFFCURVE",
"444 671 OFFCURVE",
"496 660 CURVE SMOOTH",
"547 648 OFFCURVE",
"586 628 OFFCURVE",
"630 572 CURVE SMOOTH",
"651 544 OFFCURVE",
"665 507 OFFCURVE",
"670 462 CURVE",
"670 393 OFFCURVE",
"651 336 OFFCURVE",
"590 269 CURVE",
"617 244 OFFCURVE",
"642 198 OFFCURVE",
"642 155 CURVE SMOOTH",
"642 108 OFFCURVE",
"618 74 OFFCURVE",
"567 42 CURVE",
"515 6 OFFCURVE",
"444 -3 OFFCURVE",
"376 -2 CURVE SMOOTH",
"308 -1 OFFCURVE",
"242 13 OFFCURVE",
"201 21 CURVE",
"198 55 LINE SMOOTH",
"194 95 OFFCURVE",
"188 149 OFFCURVE",
"182 200 CURVE SMOOTH",
"179 225 OFFCURVE",
"176 244 OFFCURVE",
"173 256 CURVE",
"172 257 OFFCURVE",
"167 259 OFFCURVE",
"159 260 CURVE SMOOTH",
"151 261 OFFCURVE",
"143 263 OFFCURVE",
"134 264 CURVE",
"124 266 OFFCURVE",
"113 268 OFFCURVE",
"101 269 CURVE",
"100 271 OFFCURVE",
"99 280 OFFCURVE",
"97 296 CURVE SMOOTH",
"92 328 OFFCURVE",
"82 378 OFFCURVE",
"70 437 CURVE SMOOTH",
"57 496 OFFCURVE",
"40 553 OFFCURVE",
"20 601 CURVE",
"9 624 OFFCURVE",
"-2 642 OFFCURVE",
"-15 655 CURVE"
);
},
{
closed = 1;
nodes = (
"382 409 OFFCURVE",
"384 402 OFFCURVE",
"386 393 CURVE",
"387 384 OFFCURVE",
"389 374 OFFCURVE",
"391 365 CURVE SMOOTH",
"395 346 OFFCURVE",
"399 328 OFFCURVE",
"400 320 CURVE",
"407 327 OFFCURVE",
"421 345 OFFCURVE",
"421 356 CURVE",
"420 387 OFFCURVE",
"398 403 OFFCURVE",
"381 415 CURVE"
);
},
{
closed = 1;
nodes = (
"415 230 OFFCURVE",
"422 192 OFFCURVE",
"425 173 CURVE",
"444 180 OFFCURVE",
"448 199 OFFCURVE",
"444 217 CURVE SMOOTH",
"440 235 OFFCURVE",
"427 251 OFFCURVE",
"408 255 CURVE"
);
}
);
width = 658;
}
);
unicode = 0042;
},
{
glyphname = C;
layers = (
{
layerId = "7B23AAD7-CE87-48AA-B0FE-511DC5B49C39";
name = Regular;
paths = (
{
closed = 1;
nodes = (
"177 681 OFFCURVE",
"269 688 OFFCURVE",
"345 695 CURVE SMOOTH",
"389 699 OFFCURVE",
"433 704 OFFCURVE",
"476 710 CURVE",
"606 353 LINE",
"591 336 OFFCURVE",
"558 327 OFFCURVE",
"519 319 CURVE SMOOTH",
"500 315 OFFCURVE",
"480 311 OFFCURVE",
"460 308 CURVE",
"420 300 OFFCURVE",
"385 291 OFFCURVE",
"365 279 CURVE SMOOTH",
"344 266 OFFCURVE",
"348 245 OFFCURVE",
"360 232 CURVE SMOOTH",
"372 219 OFFCURVE",
"393 213 OFFCURVE",
"422 220 CURVE",
"437 223 OFFCURVE",
"453 231 OFFCURVE",
"470 244 CURVE",
"590 181 LINE",
"590 180 OFFCURVE",
"585 174 OFFCURVE",
"575 162 CURVE SMOOTH",
"555 137 OFFCURVE",
"519 101 OFFCURVE",
"468 66 CURVE SMOOTH",
"417 31 OFFCURVE",
"354 8 OFFCURVE",
"283 8 CURVE SMOOTH",
"211 7 OFFCURVE",
"141 42 OFFCURVE",
"109 72 CURVE SMOOTH",
"76 102 OFFCURVE",
"55 139 OFFCURVE",
"44 183 CURVE SMOOTH",
"33 226 OFFCURVE",
"23 283 OFFCURVE",
"32 332 CURVE SMOOTH",
"40 380 OFFCURVE",
"57 424 OFFCURVE",
"76 465 CURVE SMOOTH",
"95 505 OFFCURVE",
"108 549 OFFCURVE",
"111 599 CURVE SMOOTH",
"112 624 OFFCURVE",
"109 651 OFFCURVE",
"101 682 CURVE"
);
}
);
width = 612;
}
);
unicode = 0043;
},
{
glyphname = D;
layers = (
{
layerId = "7B23AAD7-CE87-48AA-B0FE-511DC5B49C39";
name = Regular;
paths = (
{
closed = 1;
nodes = (
"28 667 LINE",
"431 697 LINE",
"433 694 OFFCURVE",
"439 687 OFFCURVE",
"448 674 CURVE SMOOTH",
"466 648 OFFCURVE",
"492 607 OFFCURVE",
"523 555 CURVE SMOOTH",
"554 503 OFFCURVE",
"581 445 OFFCURVE",
"601 383 CURVE SMOOTH",
"621 321 OFFCURVE",
"628 260 OFFCURVE",
"616 205 CURVE SMOOTH",
"604 149 OFFCURVE",
"550 75 OFFCURVE",
"464 41 CURVE SMOOTH",
"378 7 OFFCURVE",
"285 4 OFFCURVE",
"201 19 CURVE SMOOTH",
"158 26 OFFCURVE",
"121 33 OFFCURVE",
"89 39 CURVE",
"50 345 LINE",
"66 358 OFFCURVE",
"74 366 OFFCURVE",
"79 371 CURVE",
"83 376 OFFCURVE",
"86 379 OFFCURVE",
"91 384 CURVE",
"90 386 OFFCURVE",
"89 392 OFFCURVE",
"88 401 CURVE",
"86 410 OFFCURVE",
"84 422 OFFCURVE",
"82 435 CURVE SMOOTH",
"76 478 LINE SMOOTH",
"71 509 OFFCURVE",
"67 537 OFFCURVE",
"64 558 CURVE",
"63 568 OFFCURVE",
"62 574 OFFCURVE",
"62 577 CURVE",
"59 577 OFFCURVE",
"55 577 OFFCURVE",
"50 578 CURVE SMOOTH",
"45 579 OFFCURVE",
"39 579 OFFCURVE",
"34 580 CURVE SMOOTH",
"28 581 OFFCURVE",
"22 581 OFFCURVE",
"17 582 CURVE"
);
},
{
closed = 1;
nodes = (
"282 396 OFFCURVE",
"284 383 OFFCURVE",
"287 366 CURVE SMOOTH",
"292 331 OFFCURVE",
"299 292 OFFCURVE",
"304 261 CURVE SMOOTH",
"307 245 OFFCURVE",
"308 234 OFFCURVE",
"309 229 CURVE",
"324 234 OFFCURVE",
"340 244 OFFCURVE",
"353 256 CURVE",
"365 268 OFFCURVE",
"373 283 OFFCURVE",
"370 296 CURVE SMOOTH",
"363 324 OFFCURVE",
"349 346 OFFCURVE",
"332 363 CURVE SMOOTH",
"315 380 OFFCURVE",
"296 394 OFFCURVE",
"280 403 CURVE"
);
}
);
width = 634;
}
);
unicode = 0044;
},
{
glyphname = E;
layers = (
{
layerId = "7B23AAD7-CE87-48AA-B0FE-511DC5B49C39";
name = Regular;
paths = (
{
closed = 1;
nodes = (
"102 689 LINE",
"153 662 OFFCURVE",
"210 660 OFFCURVE",
"266 656 CURVE SMOOTH",
"337 653 OFFCURVE",
"405 645 OFFCURVE",
"455 618 CURVE SMOOTH",
"505 591 OFFCURVE",
"536 545 OFFCURVE",
"536 465 CURVE SMOOTH",
"536 426 OFFCURVE",
"518 368 OFFCURVE",
"483 309 CURVE",
"490 308 OFFCURVE",
"496 307 OFFCURVE",
"503 308 CURVE",
"509 308 OFFCURVE",
"515 307 OFFCURVE",
"520 306 CURVE",
"521 311 OFFCURVE",
"523 315 OFFCURVE",
"526 319 CURVE",
"528 322 OFFCURVE",
"530 325 OFFCURVE",
"531 328 CURVE",
"606 344 LINE",
"596 102 LINE",
"594 99 OFFCURVE",
"585 92 OFFCURVE",
"569 79 CURVE SMOOTH",
"536 54 OFFCURVE",
"485 24 OFFCURVE",
"422 4 CURVE SMOOTH",
"390 -6 OFFCURVE",
"357 -9 OFFCURVE",
"323 -6 CURVE SMOOTH",
"282 -3 OFFCURVE",
"251 6 OFFCURVE",
"227 16 CURVE SMOOTH",
"214 21 OFFCURVE",
"203 26 OFFCURVE",
"193 32 CURVE",
"172 43 OFFCURVE",
"143 56 OFFCURVE",
"127 63 CURVE SMOOTH",
"110 70 OFFCURVE",
"97 73 OFFCURVE",
"82 77 CURVE SMOOTH",
"51 86 LINE",
"78 177 OFFCURVE",
"87 270 OFFCURVE",
"80 356 CURVE SMOOTH",
"72 442 OFFCURVE",
"50 520 OFFCURVE",
"11 583 CURVE"
);
},
{
closed = 1;
nodes = (
"282 451 OFFCURVE",
"291 418 OFFCURVE",
"309 390 CURVE SMOOTH",
"327 362 OFFCURVE",
"356 339 OFFCURVE",
"401 330 CURVE",
"397 357 OFFCURVE",
"387 387 OFFCURVE",
"368 415 CURVE SMOOTH",
"349 442 OFFCURVE",
"322 467 OFFCURVE",
"281 480 CURVE"
);
}
);
width = 616;
}
);
unicode = 0045;
},
{
glyphname = F;
layers = (
{
layerId = "7B23AAD7-CE87-48AA-B0FE-511DC5B49C39";
name = Regular;
paths = (
{
closed = 1;
nodes = (
"531 710 LINE",
"608 687 OFFCURVE",
"672 649 OFFCURVE",
"741 582 CURVE",
"608 370 LINE",
"577 394 OFFCURVE",
"552 411 OFFCURVE",
"527 419 CURVE SMOOTH",
"514 423 OFFCURVE",
"501 425 OFFCURVE",
"487 425 CURVE SMOOTH",
"472 425 OFFCURVE",
"456 423 OFFCURVE",
"438 418 CURVE",
"451 350 LINE",
"460 350 OFFCURVE",
"484 352 OFFCURVE",
"507 355 CURVE SMOOTH",
"520 357 OFFCURVE",
"535 359 OFFCURVE",
"550 360 CURVE",
"556 250 LINE",
"516 223 LINE SMOOTH",
"505 216 OFFCURVE",
"496 209 OFFCURVE",
"487 203 CURVE",
"478 196 OFFCURVE",
"471 192 OFFCURVE",
"468 190 CURVE",
"468 188 OFFCURVE",
"469 184 OFFCURVE",
"470 177 CURVE SMOOTH",
"472 163 OFFCURVE",
"474 142 OFFCURVE",
"478 117 CURVE",
"479 104 OFFCURVE",
"481 92 OFFCURVE",
"483 79 CURVE SMOOTH",
"497 -22 LINE",
"434 3 OFFCURVE",
"385 14 OFFCURVE",
"345 16 CURVE SMOOTH",
"304 18 OFFCURVE",
"271 12 OFFCURVE",
"242 7 CURVE SMOOTH",
"221 4 OFFCURVE",
"198 2 OFFCURVE",
"171 2 CURVE SMOOTH",
"144 2 OFFCURVE",
"111 7 OFFCURVE",
"74 17 CURVE",
"90 60 OFFCURVE",
"103 113 OFFCURVE",
"111 167 CURVE SMOOTH",
"118 221 OFFCURVE",
"119 273 OFFCURVE",
"112 313 CURVE SMOOTH",
"101 377 OFFCURVE",
"80 427 OFFCURVE",
"60 462 CURVE SMOOTH",
"50 479 OFFCURVE",
"40 493 OFFCURVE",
"31 503 CURVE SMOOTH",
"22 513 OFFCURVE",
"15 519 OFFCURVE",
"11 521 CURVE",
"93 668 LINE",
"120 647 OFFCURVE",
"148 642 OFFCURVE",
"178 644 CURVE SMOOTH",
"193 645 OFFCURVE",
"208 647 OFFCURVE",
"223 650 CURVE SMOOTH",
"271 659 LINE SMOOTH",
"334 670 OFFCURVE",
"399 681 OFFCURVE",
"483 674 CURVE"
);
}
);
width = 736;
}
);
unicode = 0046;
},
{
glyphname = G;
layers = (
{
layerId = "7B23AAD7-CE87-48AA-B0FE-511DC5B49C39";
name = Regular;
paths = (
{
closed = 1;
nodes = (
"93 649 OFFCURVE",
"160 682 OFFCURVE",
"248 694 CURVE SMOOTH",
"292 700 OFFCURVE",
"341 701 OFFCURVE",
"395 698 CURVE SMOOTH",
"448 695 OFFCURVE",
"505 691 OFFCURVE",
"566 688 CURVE",
"685 694 LINE",
"645 494 LINE",
"608 502 OFFCURVE",
"560 509 OFFCURVE",
"517 506 CURVE SMOOTH",
"474 503 OFFCURVE",
"438 493 OFFCURVE",
"425 466 CURVE SMOOTH",
"416 446 OFFCURVE",
"420 417 OFFCURVE",
"436 392 CURVE SMOOTH",
"451 367 OFFCURVE",
"475 345 OFFCURVE",
"507 340 CURVE",
"509 423 LINE",
"691 419 LINE",
"690 356 OFFCURVE",
"709 290 OFFCURVE",
"737 228 CURVE SMOOTH",
"764 166 OFFCURVE",
"798 108 OFFCURVE",
"828 65 CURVE SMOOTH",
"843 43 OFFCURVE",
"856 25 OFFCURVE",
"867 10 CURVE SMOOTH",
"878 -5 OFFCURVE",
"886 -14 OFFCURVE",
"890 -18 CURVE",
"166 4 LINE",
"179 82 LINE",
"203 93 OFFCURVE",
"225 101 OFFCURVE",
"246 109 CURVE SMOOTH",
"256 113 OFFCURVE",
"264 116 OFFCURVE",
"269 117 CURVE",
"254 130 OFFCURVE",
"236 147 OFFCURVE",
"215 166 CURVE SMOOTH",
"172 204 OFFCURVE",
"129 251 OFFCURVE",
"91 305 CURVE SMOOTH",
"53 359 OFFCURVE",
"28 416 OFFCURVE",
"28 477 CURVE",
"27 508 OFFCURVE",
"35 538 OFFCURVE",
"50 568 CURVE SMOOTH"
);
}
);
width = 875;
}
);
unicode = 0047;
},
{
glyphname = H;
layers = (
{
layerId = "7B23AAD7-CE87-48AA-B0FE-511DC5B49C39";
name = Regular;
paths = (
{
closed = 1;
nodes = (
"391 421 LINE",
"390 677 LINE",
"646 703 LINE",
"656 649 OFFCURVE",
"666 596 OFFCURVE",
"675 545 CURVE SMOOTH",
"693 442 OFFCURVE",
"711 355 OFFCURVE",
"730 295 CURVE SMOOTH",
"739 265 OFFCURVE",
"749 245 OFFCURVE",
"760 234 CURVE SMOOTH",
"773 221 OFFCURVE",
"795 220 OFFCURVE",
"814 224 CURVE SMOOTH",
"823 226 OFFCURVE",
"832 229 OFFCURVE",
"840 232 CURVE",
"847 235 OFFCURVE",
"852 237 OFFCURVE",
"853 238 CURVE",
"904 161 LINE",
"555 -61 LINE",
"516 -27 LINE SMOOTH",
"493 -8 OFFCURVE",
"459 14 OFFCURVE",
"416 39 CURVE",
"407 274 LINE",
"334 261 LINE",
"346 76 LINE",
"218 143 OFFCURVE",
"107 191 OFFCURVE",
"11 214 CURVE",
"19 316 LINE",
"46 320 OFFCURVE",
"77 337 OFFCURVE",
"77 358 CURVE",
"76 391 OFFCURVE",
"65 446 OFFCURVE",
"53 503 CURVE SMOOTH",
"40 560 OFFCURVE",
"23 620 OFFCURVE",
"11 664 CURVE",
"323 653 LINE",
"326 412 LINE"
);
}
);
width = 885;
}
);
unicode = 0048;
},
{
glyphname = I;
layers = (
{
layerId = "7B23AAD7-CE87-48AA-B0FE-511DC5B49C39";
name = Regular;
paths = (
{
closed = 1;
nodes = (
"254 716 OFFCURVE",
"325 731 OFFCURVE",
"422 698 CURVE SMOOTH",
"497 671 OFFCURVE",
"541 635 OFFCURVE",
"560 599 CURVE SMOOTH",
"579 563 OFFCURVE",
"569 530 OFFCURVE",
"537 511 CURVE SMOOTH",
"504 492 OFFCURVE",
"447 489 OFFCURVE",
"368 514 CURVE SMOOTH",
"321 530 OFFCURVE",
"285 553 OFFCURVE",
"262 579 CURVE SMOOTH",
"239 605 OFFCURVE",
"230 633 OFFCURVE",
"238 661 CURVE SMOOTH"
);
},
{
closed = 1;
nodes = (
"17 482 LINE",
"100 592 LINE",
"551 370 LINE",
"542 343 OFFCURVE",
"537 302 OFFCURVE",
"536 259 CURVE SMOOTH",
"535 216 OFFCURVE",
"538 172 OFFCURVE",
"543 140 CURVE",
"547 139 OFFCURVE",
"555 136 OFFCURVE",
"568 133 CURVE",
"580 129 OFFCURVE",
"593 125 OFFCURVE",
"606 120 CURVE",
"657 103 LINE",
"675 -7 LINE",
"135 -3 LINE",
"118 17 OFFCURVE",
"102 55 OFFCURVE",
"89 102 CURVE SMOOTH",
"76 149 OFFCURVE",
"67 204 OFFCURVE",
"64 260 CURVE SMOOTH",
"61 315 OFFCURVE",
"66 369 OFFCURVE",
"81 413 CURVE",
"80 416 OFFCURVE",
"75 422 OFFCURVE",
"68 429 CURVE SMOOTH",
"61 436 OFFCURVE",
"53 444 OFFCURVE",
"46 452 CURVE"
);
}
);
width = 687;
}
);
unicode = 0049;
},
{
glyphname = J;
layers = (
{
layerId = "7B23AAD7-CE87-48AA-B0FE-511DC5B49C39";
name = Regular;
paths = (
{
closed = 1;
nodes = (
"44 658 LINE",
"596 713 LINE",
"602 690 LINE SMOOTH",
"610 660 OFFCURVE",
"623 609 OFFCURVE",
"633 546 CURVE SMOOTH",
"643 483 OFFCURVE",
"648 415 OFFCURVE",
"643 350 CURVE SMOOTH",
"640 317 OFFCURVE",
"634 287 OFFCURVE",
"624 260 CURVE",
"677 235 LINE",
"668 204 LINE",
"656 169 OFFCURVE",
"633 123 OFFCURVE",
"593 77 CURVE SMOOTH",
"552 31 OFFCURVE",
"500 8 OFFCURVE",
"444 -1 CURVE SMOOTH",
"388 -10 OFFCURVE",
"324 -12 OFFCURVE",
"257 -5 CURVE SMOOTH",
"190 2 OFFCURVE",
"126 14 OFFCURVE",
"70 34 CURVE",
"41 43 OFFCURVE",
"17 54 OFFCURVE",
"-4 66 CURVE",
"16 102 OFFCURVE",
"42 160 OFFCURVE",
"61 219 CURVE SMOOTH",
"80 278 OFFCURVE",
"94 337 OFFCURVE",
"90 377 CURVE",
"192 390 LINE",
"185 342 OFFCURVE",
"180 302 OFFCURVE",
"176 266 CURVE SMOOTH",
"170 224 LINE",
"185 236 OFFCURVE",
"203 257 OFFCURVE",
"218 288 CURVE SMOOTH",
"233 319 OFFCURVE",
"244 362 OFFCURVE",
"244 418 CURVE SMOOTH",
"244 489 OFFCURVE",
"214 530 OFFCURVE",
"175 554 CURVE SMOOTH",
"135 578 OFFCURVE",
"88 587 OFFCURVE",
"55 592 CURVE"
);
}
);
width = 690;
}
);
unicode = 004A;
},
{
glyphname = K;
layers = (
{
layerId = "7B23AAD7-CE87-48AA-B0FE-511DC5B49C39";
name = Regular;
paths = (
{
closed = 1;
nodes = (
"155 677 LINE",
"203 641 OFFCURVE",
"257 628 OFFCURVE",
"302 623 CURVE SMOOTH",
"324 620 OFFCURVE",
"343 620 OFFCURVE",
"359 621 CURVE SMOOTH",
"375 622 OFFCURVE",
"385 622 OFFCURVE",
"389 622 CURVE",
"387 609 OFFCURVE",
"386 596 OFFCURVE",
"386 581 CURVE SMOOTH",
"386 552 OFFCURVE",
"388 522 OFFCURVE",
"392 498 CURVE",
"395 469 LINE",
"411 493 OFFCURVE",
"431 518 OFFCURVE",
"450 541 CURVE SMOOTH",
"459 552 OFFCURVE",
"468 562 OFFCURVE",
"475 571 CURVE SMOOTH",
"490 590 LINE",
"490 592 OFFCURVE",
"490 596 OFFCURVE",
"491 602 CURVE",
"492 613 OFFCURVE",
"494 627 OFFCURVE",
"495 644 CURVE",
"565 672 LINE",
"667 550 LINE",
"646 531 OFFCURVE",
"625 505 OFFCURVE",
"609 481 CURVE SMOOTH",
"593 457 OFFCURVE",
"580 435 OFFCURVE",
"575 423 CURVE",
"614 379 OFFCURVE",
"663 369 OFFCURVE",
"707 373 CURVE SMOOTH",
"750 376 OFFCURVE",
"786 393 OFFCURVE",
"797 401 CURVE",
"798 403 OFFCURVE",
"800 408 OFFCURVE",
"802 416 CURVE",
"803 424 OFFCURVE",
"805 433 OFFCURVE",
"807 442 CURVE",
"810 453 OFFCURVE",
"812 464 OFFCURVE",
"815 477 CURVE",
"897 471 LINE",
"908 404 OFFCURVE",
"909 332 OFFCURVE",
"912 259 CURVE SMOOTH",
"915 186 OFFCURVE",
"917 110 OFFCURVE",
"929 37 CURVE",
"850 19 OFFCURVE",
"787 7 OFFCURVE",
"740 1 CURVE SMOOTH",
"693 -5 OFFCURVE",
"656 -8 OFFCURVE",
"631 -7 CURVE",
"606 -7 OFFCURVE",
"588 -5 OFFCURVE",
"579 0 CURVE SMOOTH",
"570 5 OFFCURVE",
"563 8 OFFCURVE",
"560 11 CURVE",
"545 23 OFFCURVE",
"511 67 OFFCURVE",
"476 116 CURVE SMOOTH",
"458 141 OFFCURVE",
"440 165 OFFCURVE",
"423 190 CURVE SMOOTH",
"406 215 OFFCURVE",
"391 235 OFFCURVE",
"380 250 CURVE",
"380 -19 LINE",
"329 -10 OFFCURVE",
"291 5 OFFCURVE",
"257 22 CURVE SMOOTH",
"223 39 OFFCURVE",
"194 60 OFFCURVE",
"163 81 CURVE",
"119 116 OFFCURVE",
"73 139 OFFCURVE",
"14 155 CURVE",
"62 251 LINE",
"71 251 OFFCURVE",
"80 251 OFFCURVE",
"88 250 CURVE SMOOTH",
"95 249 OFFCURVE",
"103 249 OFFCURVE",
"110 249 CURVE SMOOTH",
"126 249 LINE",
"126 308 OFFCURVE",
"136 379 OFFCURVE",
"147 442 CURVE SMOOTH",
"158 505 OFFCURVE",
"170 557 OFFCURVE",
"175 574 CURVE",
"170 578 OFFCURVE",
"158 587 OFFCURVE",
"147 598 CURVE",
"140 604 OFFCURVE",
"133 610 OFFCURVE",
"126 617 CURVE"
);
}
);
width = 952;
}
);
unicode = 004B;
},
{
glyphname = L;
layers = (
{
layerId = "7B23AAD7-CE87-48AA-B0FE-511DC5B49C39";
name = Regular;
paths = (
{
closed = 1;
nodes = (
"0 514 LINE",
"50 640 LINE",
"71 632 OFFCURVE",
"113 632 OFFCURVE",
"164 637 CURVE SMOOTH",
"215 642 OFFCURVE",
"272 652 OFFCURVE",
"325 664 CURVE SMOOTH",
"377 675 OFFCURVE",
"423 688 OFFCURVE",
"451 700 CURVE",
"475 648 OFFCURVE",
"483 594 OFFCURVE",
"485 542 CURVE SMOOTH",
"486 515 OFFCURVE",
"486 489 OFFCURVE",
"485 463 CURVE SMOOTH",
"484 411 OFFCURVE",
"487 360 OFFCURVE",
"500 309 CURVE SMOOTH",
"507 284 OFFCURVE",
"517 259 OFFCURVE",
"532 234 CURVE",
"525 271 OFFCURVE",
"524 322 OFFCURVE",
"525 365 CURVE SMOOTH",
"525 386 OFFCURVE",
"526 405 OFFCURVE",
"528 421 CURVE SMOOTH",
"530 436 OFFCURVE",
"532 446 OFFCURVE",
"534 449 CURVE",
"644 452 LINE",
"657 408 OFFCURVE",
"687 354 OFFCURVE",
"720 302 CURVE SMOOTH",
"753 249 OFFCURVE",
"790 197 OFFCURVE",
"819 158 CURVE SMOOTH",
"834 138 OFFCURVE",
"846 122 OFFCURVE",
"856 110 CURVE",
"865 97 OFFCURVE",
"871 90 OFFCURVE",
"872 88 CURVE",
"818 -20 LINE",
"767 11 OFFCURVE",
"710 24 OFFCURVE",
"650 29 CURVE SMOOTH",
"589 33 OFFCURVE",
"524 29 OFFCURVE",
"460 22 CURVE SMOOTH",
"389 15 OFFCURVE",
"315 8 OFFCURVE",
"243 12 CURVE SMOOTH",
"170 16 OFFCURVE",
"96 31 OFFCURVE",
"28 70 CURVE",
"76 166 LINE",
"115 181 OFFCURVE",
"135 213 OFFCURVE",
"146 252 CURVE SMOOTH",
"157 291 OFFCURVE",
"157 336 OFFCURVE",
"150 376 CURVE SMOOTH",
"143 415 OFFCURVE",
"131 450 OFFCURVE",
"118 466 CURVE",
"97 475 LINE",
"56 491 LINE"
);
}
);
width = 862;
}
);
unicode = 004C;
},
{
glyphname = M;
layers = (
{
layerId = "7B23AAD7-CE87-48AA-B0FE-511DC5B49C39";
name = Regular;
paths = (
{
closed = 1;
nodes = (
"984 714 LINE",
"976 576 LINE",
"959 583 OFFCURVE",
"926 591 OFFCURVE",
"886 588 CURVE",
"890 555 OFFCURVE",
"913 487 OFFCURVE",
"950 411 CURVE SMOOTH",
"987 335 OFFCURVE",
"1040 251 OFFCURVE",
"1104 186 CURVE",
"1043 170 OFFCURVE",
"964 138 OFFCURVE",
"886 102 CURVE SMOOTH",
"808 66 OFFCURVE",
"731 27 OFFCURVE",
"676 -4 CURVE",
"628 114 LINE",
"638 125 OFFCURVE",
"647 135 OFFCURVE",
"656 144 CURVE SMOOTH",
"671 159 OFFCURVE",
"686 176 OFFCURVE",
"689 180 CURVE",
"689 183 OFFCURVE",
"688 191 OFFCURVE",
"685 206 CURVE SMOOTH",
"679 235 OFFCURVE",
"670 275 OFFCURVE",
"662 315 CURVE",
"657 334 OFFCURVE",
"654 350 OFFCURVE",
"652 362 CURVE",
"649 355 OFFCURVE",
"646 347 OFFCURVE",
"641 336 CURVE SMOOTH",
"624 299 LINE",
"605 257 LINE",
"584 213 LINE SMOOTH",
"568 179 OFFCURVE",
"551 143 OFFCURVE",
"534 104 CURVE",
"452 122 LINE",
"455 198 LINE SMOOTH",
"458 241 OFFCURVE",
"459 288 OFFCURVE",
"459 317 CURVE",
"435 276 LINE",
"415 245 OFFCURVE",
"396 213 OFFCURVE",
"384 186 CURVE",
"377 172 OFFCURVE",
"374 161 OFFCURVE",
"374 152 CURVE SMOOTH",
"374 132 OFFCURVE",
"387 115 OFFCURVE",
"403 102 CURVE SMOOTH",
"418 89 OFFCURVE",
"436 81 OFFCURVE",
"444 78 CURVE",
"390 -28 LINE",
"368 -7 LINE",
"342 16 OFFCURVE",
"301 51 OFFCURVE",
"251 92 CURVE SMOOTH",
"201 132 OFFCURVE",
"146 173 OFFCURVE",
"94 207 CURVE SMOOTH",
"68 224 OFFCURVE",
"44 237 OFFCURVE",
"22 246 CURVE",
"28 249 OFFCURVE",
"42 259 OFFCURVE",
"65 275 CURVE SMOOTH",
"109 306 OFFCURVE",
"167 357 OFFCURVE",
"220 426 CURVE SMOOTH",
"246 460 OFFCURVE",
"266 497 OFFCURVE",
"280 538 CURVE",
"277 541 OFFCURVE",
"272 544 OFFCURVE",
"265 548 CURVE",
"220 576 LINE",
"215 632 LINE",
"217 633 OFFCURVE",
"224 634 OFFCURVE",
"237 636 CURVE",
"250 637 OFFCURVE",
"265 640 OFFCURVE",
"284 643 CURVE SMOOTH",
"303 646 OFFCURVE",
"324 650 OFFCURVE",
"347 654 CURVE SMOOTH",
"394 662 OFFCURVE",
"441 672 OFFCURVE",
"483 682 CURVE SMOOTH",
"504 687 OFFCURVE",
"521 691 OFFCURVE",
"536 696 CURVE",
"540 625 OFFCURVE",
"545 567 OFFCURVE",
"550 510 CURVE SMOOTH",
"552 481 OFFCURVE",
"554 458 OFFCURVE",
"556 440 CURVE",
"567 471 OFFCURVE",
"582 514 OFFCURVE",
"599 556 CURVE SMOOTH",
"615 598 OFFCURVE",
"631 638 OFFCURVE",
"642 662 CURVE"
);
}
);
width = 1074;
}
);
unicode = 004D;
},
{
glyphname = N;
layers = (
{
layerId = "7B23AAD7-CE87-48AA-B0FE-511DC5B49C39";
name = Regular;
paths = (
{
closed = 1;
nodes = (
"152 -14 LINE",
"4 556 LINE",
"59 571 OFFCURVE",
"113 587 OFFCURVE",
"164 602 CURVE SMOOTH",
"208 615 OFFCURVE",
"255 629 OFFCURVE",
"299 644 CURVE SMOOTH",
"342 659 OFFCURVE",
"381 674 OFFCURVE",
"409 686 CURVE",
"482 406 LINE",
"490 664 LINE",
"494 665 OFFCURVE",
"503 666 OFFCURVE",
"517 667 CURVE",
"545 670 OFFCURVE",
"588 673 OFFCURVE",
"639 674 CURVE SMOOTH",
"690 674 OFFCURVE",
"743 670 OFFCURVE",
"792 661 CURVE SMOOTH",
"817 656 OFFCURVE",
"839 649 OFFCURVE",
"858 640 CURVE",
"846 556 LINE",
"839 551 OFFCURVE",
"833 547 OFFCURVE",
"827 544 CURVE",
"816 537 OFFCURVE",
"805 531 OFFCURVE",
"800 528 CURVE",
"797 507 LINE SMOOTH",
"795 495 OFFCURVE",
"793 481 OFFCURVE",
"790 465 CURVE SMOOTH",
"787 448 OFFCURVE",
"783 431 OFFCURVE",
"780 412 CURVE SMOOTH",
"773 374 OFFCURVE",
"767 338 OFFCURVE",
"763 314 CURVE",
"760 302 OFFCURVE",
"759 295 OFFCURVE",
"758 292 CURVE",
"761 291 OFFCURVE",
"765 287 OFFCURVE",
"772 282 CURVE",
"793 264 LINE SMOOTH",
"801 257 OFFCURVE",
"810 249 OFFCURVE",
"820 242 CURVE",
"816 205 OFFCURVE",
"815 171 OFFCURVE",
"820 134 CURVE SMOOTH",
"824 97 OFFCURVE",
"837 54 OFFCURVE",
"864 -2 CURVE",
"857 -1 OFFCURVE",
"844 1 OFFCURVE",
"825 3 CURVE SMOOTH",
"786 7 OFFCURVE",
"732 10 OFFCURVE",
"668 13 CURVE SMOOTH",
"604 16 OFFCURVE",
"537 15 OFFCURVE",
"477 12 CURVE SMOOTH",
"446 10 OFFCURVE",
"419 7 OFFCURVE",
"396 2 CURVE",
"388 54 OFFCURVE",
"381 98 OFFCURVE",
"372 145 CURVE SMOOTH",
"367 168 OFFCURVE",
"363 189 OFFCURVE",
"358 206 CURVE",
"357 194 OFFCURVE",
"355 180 OFFCURVE",
"352 165 CURVE",
"347 134 OFFCURVE",
"340 99 OFFCURVE",
"336 61 CURVE",
"333 42 OFFCURVE",
"332 23 OFFCURVE",
"332 4 CURVE"
);
}
);
width = 854;
}
);
unicode = 004E;
},
{
glyphname = O;
layers = (
{
layerId = "7B23AAD7-CE87-48AA-B0FE-511DC5B49C39";
name = Regular;
paths = (
{
closed = 1;
nodes = (
"452 685 OFFCURVE",
"553 661 OFFCURVE",
"630 612 CURVE SMOOTH",
"707 563 OFFCURVE",
"762 488 OFFCURVE",
"775 399 CURVE SMOOTH",
"787 312 OFFCURVE",
"756 225 OFFCURVE",
"697 154 CURVE SMOOTH",
"638 82 OFFCURVE",
"551 28 OFFCURVE",
"448 5 CURVE SMOOTH",
"344 -18 OFFCURVE",
"238 1 OFFCURVE",
"158 57 CURVE SMOOTH",
"83 108 OFFCURVE",
"35 183 OFFCURVE",
"22 271 CURVE SMOOTH",
"6 359 OFFCURVE",
"29 449 OFFCURVE",
"85 522 CURVE SMOOTH",
"145 605 OFFCURVE",
"239 657 OFFCURVE",
"347 672 CURVE SMOOTH"
);
},
{
closed = 1;
nodes = (
"436 407 OFFCURVE",
"462 417 OFFCURVE",
"482 434 CURVE SMOOTH",
"501 450 OFFCURVE",
"513 474 OFFCURVE",
"513 502 CURVE",
"512 529 OFFCURVE",
"498 552 OFFCURVE",
"478 568 CURVE SMOOTH",
"458 583 OFFCURVE",
"432 592 OFFCURVE",
"404 591 CURVE",
"375 591 OFFCURVE",
"348 579 OFFCURVE",
"329 562 CURVE SMOOTH",
"310 545 OFFCURVE",
"299 520 OFFCURVE",
"300 496 CURVE",
"300 471 OFFCURVE",
"312 447 OFFCURVE",
"331 431 CURVE SMOOTH",
"350 415 OFFCURVE",
"378 406 OFFCURVE",
"407 407 CURVE SMOOTH"
);
}
);
width = 770;
}
);
unicode = 004F;
},
{
glyphname = P;
layers = (
{
layerId = "7B23AAD7-CE87-48AA-B0FE-511DC5B49C39";
name = Regular;
paths = (
{
closed = 1;
nodes = (
"110 205 LINE",
"98 266 OFFCURVE",
"86 323 OFFCURVE",
"74 377 CURVE SMOOTH",
"63 424 OFFCURVE",
"52 472 OFFCURVE",
"40 516 CURVE SMOOTH",
"28 560 OFFCURVE",
"17 599 OFFCURVE",
"6 624 CURVE",
"51 649 OFFCURVE",
"128 677 OFFCURVE",
"216 694 CURVE SMOOTH",
"303 711 OFFCURVE",
"400 719 OFFCURVE",
"485 701 CURVE SMOOTH",
"569 683 OFFCURVE",
"641 639 OFFCURVE",
"678 556 CURVE SMOOTH",
"707 492 OFFCURVE",
"707 432 OFFCURVE",
"692 380 CURVE SMOOTH",
"677 327 OFFCURVE",
"648 279 OFFCURVE",
"617 241 CURVE SMOOTH",
"602 222 OFFCURVE",
"586 205 OFFCURVE",
"571 190 CURVE SMOOTH",
"533 152 LINE",
"533 149 OFFCURVE",
"535 140 OFFCURVE",
"538 124 CURVE SMOOTH",
"544 92 OFFCURVE",
"551 54 OFFCURVE",
"560 2 CURVE",
"535 4 LINE SMOOTH",
"508 7 OFFCURVE",
"467 10 OFFCURVE",
"417 11 CURVE SMOOTH",
"367 11 OFFCURVE",
"314 8 OFFCURVE",
"266 0 CURVE SMOOTH",
"241 -4 OFFCURVE",
"219 -10 OFFCURVE",
"200 -18 CURVE",
"199 1 OFFCURVE",
"199 23 OFFCURVE",
"202 48 CURVE SMOOTH",
"207 99 OFFCURVE",
"214 152 OFFCURVE",
"216 200 CURVE SMOOTH",
"217 223 OFFCURVE",
"215 243 OFFCURVE",
"210 258 CURVE",
"202 255 OFFCURVE",
"177 242 OFFCURVE",
"154 229 CURVE SMOOTH"
);
},
{
closed = 1;
nodes = (
"514 332 OFFCURVE",
"518 289 OFFCURVE",
"525 238 CURVE",
"537 270 OFFCURVE",
"542 293 OFFCURVE",
"542 309 CURVE SMOOTH",
"542 336 OFFCURVE",
"532 347 OFFCURVE",
"511 359 CURVE"
);
}
);
width = 699;
}
);
unicode = 0050;
},
{
glyphname = Q;
layers = (
{
layerId = "7B23AAD7-CE87-48AA-B0FE-511DC5B49C39";
name = Regular;
paths = (
{
closed = 1;
nodes = (
"355 697 OFFCURVE",
"463 698 OFFCURVE",
"549 669 CURVE SMOOTH",
"635 640 OFFCURVE",
"698 581 OFFCURVE",
"726 502 CURVE SMOOTH",
"762 403 OFFCURVE",
"736 315 OFFCURVE",
"668 226 CURVE",
"702 190 LINE",
"746 230 LINE",
"747 227 OFFCURVE",
"749 224 OFFCURVE",
"751 219 CURVE",
"755 210 OFFCURVE",
"764 199 OFFCURVE",
"780 187 CURVE",
"788 180 OFFCURVE",
"799 174 OFFCURVE",
"812 168 CURVE",
"775 148 OFFCURVE",
"745 131 OFFCURVE",
"717 115 CURVE SMOOTH",
"689 98 OFFCURVE",
"663 80 OFFCURVE",
"634 60 CURVE SMOOTH",
"617 49 OFFCURVE",
"600 37 OFFCURVE",
"584 25 CURVE SMOOTH",
"551 0 OFFCURVE",
"518 -24 OFFCURVE",
"486 -44 CURVE SMOOTH",
"469 -55 OFFCURVE",
"452 -64 OFFCURVE",
"434 -72 CURVE",
"434 -29 OFFCURVE",
"429 23 OFFCURVE",
"418 74 CURVE",
"327 53 OFFCURVE",
"241 54 OFFCURVE",
"171 80 CURVE SMOOTH",
"101 106 OFFCURVE",
"47 154 OFFCURVE",
"20 226 CURVE SMOOTH",
"-7 301 OFFCURVE",
"-5 395 OFFCURVE",
"30 470 CURVE SMOOTH",
"70 559 OFFCURVE",
"137 615 OFFCURVE",
"240 654 CURVE SMOOTH"
);
},
{
closed = 1;
nodes = (
"265 247 OFFCURVE",
"290 241 OFFCURVE",
"312 241 CURVE",
"334 240 OFFCURVE",
"356 245 OFFCURVE",
"361 249 CURVE",
"347 286 LINE",
"516 372 LINE",
"522 367 OFFCURVE",
"528 363 OFFCURVE",
"533 359 CURVE SMOOTH",
"542 352 OFFCURVE",
"553 344 OFFCURVE",
"558 339 CURVE",
"570 355 OFFCURVE",
"577 368 OFFCURVE",
"578 385 CURVE SMOOTH",
"579 401 OFFCURVE",
"572 417 OFFCURVE",
"546 425 CURVE SMOOTH",
"520 433 OFFCURVE",
"483 434 OFFCURVE",
"440 427 CURVE SMOOTH",
"396 419 OFFCURVE",
"348 401 OFFCURVE",
"315 376 CURVE SMOOTH",
"282 351 OFFCURVE",
"262 322 OFFCURVE",
"255 297 CURVE",
"252 284 OFFCURVE",
"252 274 OFFCURVE",
"256 266 CURVE SMOOTH"
);
}
);
width = 800;
}
);
unicode = 0051;
},
{
glyphname = R;
layers = (
{
layerId = "7B23AAD7-CE87-48AA-B0FE-511DC5B49C39";
name = Regular;
paths = (
{
closed = 1;
nodes = (
"697 634 OFFCURVE",
"710 588 OFFCURVE",
"709 533 CURVE SMOOTH",
"708 478 OFFCURVE",
"692 414 OFFCURVE",
"665 354 CURVE",
"686 353 OFFCURVE",
"716 351 OFFCURVE",
"746 351 CURVE SMOOTH",
"776 351 OFFCURVE",
"805 353 OFFCURVE",
"829 361 CURVE",
"810 293 OFFCURVE",
"778 230 OFFCURVE",
"748 170 CURVE SMOOTH",
"718 109 OFFCURVE",
"689 51 OFFCURVE",
"678 -12 CURVE",
"583 63 LINE SMOOTH",
"570 73 OFFCURVE",
"558 83 OFFCURVE",
"545 94 CURVE SMOOTH",
"532 105 OFFCURVE",
"520 115 OFFCURVE",
"509 125 CURVE",
"485 144 OFFCURVE",
"467 162 OFFCURVE",
"456 174 CURVE",
"459 138 LINE",
"462 97 LINE SMOOTH",
"464 69 OFFCURVE",
"466 40 OFFCURVE",
"469 16 CURVE",
"454 21 OFFCURVE",
"420 27 OFFCURVE",
"377 35 CURVE",
"355 38 OFFCURVE",
"331 42 OFFCURVE",
"306 45 CURVE SMOOTH",
"230 55 LINE SMOOTH",
"170 62 OFFCURVE",
"105 70 OFFCURVE",
"34 78 CURVE",
"50 167 LINE",
"59 168 OFFCURVE",
"67 170 OFFCURVE",
"74 171 CURVE",
"87 174 OFFCURVE",
"101 174 OFFCURVE",
"108 173 CURVE",
"108 179 OFFCURVE",
"108 187 OFFCURVE",
"109 197 CURVE",
"109 217 OFFCURVE",
"109 240 OFFCURVE",
"107 264 CURVE SMOOTH",
"106 275 OFFCURVE",
"104 286 OFFCURVE",
"101 296 CURVE",
"98 296 OFFCURVE",
"94 296 OFFCURVE",
"88 297 CURVE",
"67 297 LINE SMOOTH",
"52 297 OFFCURVE",
"35 297 OFFCURVE",
"22 294 CURVE",
"25 317 OFFCURVE",
"21 347 OFFCURVE",
"14 381 CURVE SMOOTH",
"7 415 OFFCURVE",
"-3 452 OFFCURVE",
"-12 485 CURVE SMOOTH",
"-24 525 OFFCURVE",
"-38 567 OFFCURVE",
"-53 611 CURVE",
"30 618 OFFCURVE",
"101 624 OFFCURVE",
"173 636 CURVE SMOOTH",
"208 641 OFFCURVE",
"238 647 OFFCURVE",
"263 654 CURVE SMOOTH",
"330 673 OFFCURVE",
"410 691 OFFCURVE",
"483 697 CURVE SMOOTH",
"555 703 OFFCURVE",
"622 696 OFFCURVE",
"665 661 CURVE SMOOTH"
);
},
{
closed = 1;
nodes = (
"440 422 OFFCURVE",
"442 393 OFFCURVE",
"443 365 CURVE SMOOTH",
"444 336 OFFCURVE",
"446 308 OFFCURVE",
"447 293 CURVE",
"455 301 OFFCURVE",
"467 313 OFFCURVE",
"476 326 CURVE SMOOTH",
"485 339 OFFCURVE",
"494 355 OFFCURVE",
"495 368 CURVE",
"495 388 OFFCURVE",
"485 401 OFFCURVE",
"474 411 CURVE",
"468 416 OFFCURVE",
"462 420 OFFCURVE",
"456 424 CURVE",
"449 428 OFFCURVE",
"444 432 OFFCURVE",
"439 435 CURVE"
);
}
);
width = 837;
}
);
unicode = 0052;
},
{
glyphname = S;
layers = (
{
layerId = "7B23AAD7-CE87-48AA-B0FE-511DC5B49C39";
name = Regular;
paths = (
{
closed = 1;
nodes = (
"292 341 LINE",
"303 298 OFFCURVE",
"327 266 OFFCURVE",
"355 246 CURVE",
"382 225 OFFCURVE",
"413 213 OFFCURVE",
"433 212 CURVE SMOOTH",
"469 209 OFFCURVE",
"497 222 OFFCURVE",
"497 254 CURVE SMOOTH",
"497 271 OFFCURVE",
"476 286 OFFCURVE",
"445 299 CURVE SMOOTH",
"414 311 OFFCURVE",
"374 322 OFFCURVE",
"338 331 CURVE SMOOTH",
"247 351 LINE",
"194 359 OFFCURVE",
"138 377 OFFCURVE",
"96 403 CURVE SMOOTH",
"54 429 OFFCURVE",
"24 464 OFFCURVE",
"24 511 CURVE SMOOTH",
"24 562 OFFCURVE",
"47 596 OFFCURVE",
"83 617 CURVE SMOOTH",
"119 638 OFFCURVE",
"166 647 OFFCURVE",
"213 647 CURVE",
"210 671 OFFCURVE",
"209 689 OFFCURVE",
"209 704 CURVE",
"208 711 OFFCURVE",
"208 716 OFFCURVE",
"207 718 CURVE",
"210 718 OFFCURVE",
"220 718 OFFCURVE",
"238 717 CURVE SMOOTH",
"256 716 OFFCURVE",
"278 714 OFFCURVE",
"305 712 CURVE SMOOTH",
"357 708 OFFCURVE",
"421 704 OFFCURVE",
"473 701 CURVE SMOOTH",
"498 699 OFFCURVE",
"520 697 OFFCURVE",
"538 696 CURVE SMOOTH",
"567 694 LINE",
"580 480 LINE",
"393 414 LINE",
"356 437 OFFCURVE",
"306 462 OFFCURVE",
"262 477 CURVE SMOOTH",
"217 492 OFFCURVE",
"178 497 OFFCURVE",
"163 477 CURVE SMOOTH",
"144 452 OFFCURVE",
"164 431 OFFCURVE",
"212 413 CURVE SMOOTH",
"260 395 OFFCURVE",
"335 381 OFFCURVE",
"427 369 CURVE SMOOTH",
"482 362 OFFCURVE",
"540 357 OFFCURVE",
"585 341 CURVE SMOOTH",
"629 324 OFFCURVE",
"662 297 OFFCURVE",
"667 245 CURVE",
"671 216 OFFCURVE",
"665 181 OFFCURVE",
"649 149 CURVE SMOOTH",
"633 117 OFFCURVE",
"608 87 OFFCURVE",
"576 64 CURVE SMOOTH",
"521 25 OFFCURVE",
"461 14 OFFCURVE",
"404 18 CURVE SMOOTH",
"347 21 OFFCURVE",
"294 39 OFFCURVE",
"251 58 CURVE SMOOTH",
"230 67 OFFCURVE",
"211 76 OFFCURVE",
"196 85 CURVE",
"180 93 OFFCURVE",
"169 98 OFFCURVE",
"162 101 CURVE",
"108 86 LINE",
"108 88 OFFCURVE",
"107 95 OFFCURVE",
"104 106 CURVE SMOOTH",
"94 145 LINE SMOOTH",
"86 175 OFFCURVE",
"77 212 OFFCURVE",
"70 242 CURVE SMOOTH",
"60 280 LINE SMOOTH",
"57 291 OFFCURVE",
"56 297 OFFCURVE",
"56 298 CURVE"
);
}
);
width = 648;
}
);
unicode = 0053;
},
{
glyphname = T;
layers = (
{
layerId = "7B23AAD7-CE87-48AA-B0FE-511DC5B49C39";
name = Regular;
paths = (
{
closed = 1;
nodes = (
"113 166 LINE",
"10 578 LINE",
"730 699 LINE",
"755 410 LINE",
"734 402 OFFCURVE",
"714 394 OFFCURVE",
"697 387 CURVE SMOOTH",
"682 381 OFFCURVE",
"667 375 OFFCURVE",
"653 370 CURVE",
"624 358 LINE",
"629 350 OFFCURVE",
"636 333 OFFCURVE",
"642 317 CURVE SMOOTH",
"648 301 OFFCURVE",
"653 285 OFFCURVE",
"657 281 CURVE",
"766 281 LINE",
"773 208 LINE",
"771 207 OFFCURVE",
"763 204 OFFCURVE",
"748 197 CURVE SMOOTH",
"718 183 OFFCURVE",
"669 158 OFFCURVE",
"610 126 CURVE SMOOTH",
"551 94 OFFCURVE",
"490 56 OFFCURVE",
"434 15 CURVE SMOOTH",
"405 -6 OFFCURVE",
"380 -27 OFFCURVE",
"359 -48 CURVE",
"342 6 OFFCURVE",
"330 59 OFFCURVE",
"321 112 CURVE SMOOTH",
"297 257 LINE",
"278 250 LINE",
"262 245 OFFCURVE",
"246 239 OFFCURVE",
"234 235 CURVE",
"227 232 OFFCURVE",
"223 231 OFFCURVE",
"221 231 CURVE",
"220 230 OFFCURVE",
"218 226 OFFCURVE",
"217 220 CURVE",
"213 208 OFFCURVE",
"208 194 OFFCURVE",
"201 177 CURVE"
);
}
);
width = 769;
}
);
unicode = 0054;
},
{
glyphname = U;
layers = (
{
layerId = "7B23AAD7-CE87-48AA-B0FE-511DC5B49C39";
name = Regular;
paths = (
{
closed = 1;
nodes = (
"12 551 OFFCURVE",
"29 612 OFFCURVE",
"48 653 CURVE SMOOTH",
"59 677 OFFCURVE",
"70 697 OFFCURVE",
"83 713 CURVE",
"158 681 OFFCURVE",
"223 661 OFFCURVE",
"291 652 CURVE SMOOTH",
"359 643 OFFCURVE",
"429 643 OFFCURVE",
"510 648 CURVE",
"516 575 LINE",
"492 562 OFFCURVE",
"472 551 OFFCURVE",
"456 541 CURVE SMOOTH",
"439 530 LINE",
"443 506 OFFCURVE",
"452 481 OFFCURVE",
"469 462 CURVE SMOOTH",
"485 443 OFFCURVE",
"508 432 OFFCURVE",
"539 436 CURVE SMOOTH",
"571 440 OFFCURVE",
"590 466 OFFCURVE",
"599 498 CURVE SMOOTH",
"608 530 OFFCURVE",
"608 567 OFFCURVE",
"603 592 CURVE",
"804 639 LINE",
"829 571 OFFCURVE",
"843 514 OFFCURVE",
"843 454 CURVE SMOOTH",
"843 322 OFFCURVE",
"797 211 OFFCURVE",
"722 132 CURVE SMOOTH",
"646 52 OFFCURVE",
"543 6 OFFCURVE",
"427 6 CURVE SMOOTH",
"311 6 OFFCURVE",
"208 56 OFFCURVE",
"133 138 CURVE SMOOTH",
"57 220 OFFCURVE",
"12 334 OFFCURVE",
"12 466 CURVE SMOOTH"
);
}
);
width = 849;
}
);
unicode = 0055;
},
{
glyphname = V;
layers = (
{
layerId = "7B23AAD7-CE87-48AA-B0FE-511DC5B49C39";
name = Regular;
paths = (
{
closed = 1;
nodes = (
"224 259 LINE",
"9 560 LINE",
"348 707 LINE",
"375 649 OFFCURVE",
"399 595 OFFCURVE",
"422 546 CURVE SMOOTH",
"452 483 LINE",
"461 462 OFFCURVE",
"470 442 OFFCURVE",
"479 423 CURVE SMOOTH",
"496 386 OFFCURVE",
"509 355 OFFCURVE",
"516 339 CURVE",
"520 358 OFFCURVE",
"525 383 OFFCURVE",
"532 412 CURVE SMOOTH",
"545 470 OFFCURVE",
"558 536 OFFCURVE",
"567 603 CURVE SMOOTH",
"571 636 OFFCURVE",
"573 667 OFFCURVE",
"572 695 CURVE",
"933 681 LINE",
"933 675 OFFCURVE",
"932 660 OFFCURVE",
"930 635 CURVE SMOOTH",
"926 585 OFFCURVE",
"919 517 OFFCURVE",
"911 450 CURVE SMOOTH",
"906 416 OFFCURVE",
"901 388 OFFCURVE",
"896 365 CURVE",
"886 362 OFFCURVE",
"877 359 OFFCURVE",
"869 356 CURVE",
"862 353 OFFCURVE",
"855 351 OFFCURVE",
"849 350 CURVE",
"842 348 OFFCURVE",
"837 346 OFFCURVE",
"834 345 CURVE",
"831 337 OFFCURVE",
"827 324 OFFCURVE",
"822 305 CURVE",
"777 168 LINE SMOOTH",
"760 115 OFFCURVE",
"743 66 OFFCURVE",
"728 29 CURVE SMOOTH",
"721 10 OFFCURVE",
"715 -3 OFFCURVE",
"710 -12 CURVE",
"684 -12 LINE SMOOTH",
"655 -13 OFFCURVE",
"612 -14 OFFCURVE",
"561 -14 CURVE SMOOTH",
"510 -15 OFFCURVE",
"460 -15 OFFCURVE",
"417 -12 CURVE SMOOTH",
"396 -11 OFFCURVE",
"378 -9 OFFCURVE",
"365 -6 CURVE",
"366 14 OFFCURVE",
"353 68 OFFCURVE",
"335 124 CURVE SMOOTH",
"317 179 OFFCURVE",
"293 235 OFFCURVE",
"274 262 CURVE",
"270 261 OFFCURVE",
"257 259 OFFCURVE",
"246 259 CURVE SMOOTH"
);
}
);
width = 938;
}
);
unicode = 0056;
},
{
glyphname = W;
layers = (
{
layerId = "7B23AAD7-CE87-48AA-B0FE-511DC5B49C39";
name = Regular;
paths = (
{
closed = 1;
nodes = (
"673 711 LINE",
"1129 592 LINE",
"1126 567 OFFCURVE",
"1119 522 OFFCURVE",
"1111 479 CURVE SMOOTH",
"1102 435 OFFCURVE",
"1092 392 OFFCURVE",
"1084 368 CURVE",
"1073 366 OFFCURVE",
"1064 364 OFFCURVE",
"1055 361 CURVE",
"1040 357 OFFCURVE",
"1024 353 OFFCURVE",
"1017 352 CURVE",
"1014 331 OFFCURVE",
"1006 271 OFFCURVE",
"991 199 CURVE SMOOTH",
"976 126 OFFCURVE",
"956 42 OFFCURVE",
"928 -29 CURVE",
"619 27 LINE",
"579 165 LINE SMOOTH",
"568 201 OFFCURVE",
"558 237 OFFCURVE",
"550 268 CURVE",
"545 283 OFFCURVE",
"541 297 OFFCURVE",
"538 309 CURVE SMOOTH",
"535 320 OFFCURVE",
"532 328 OFFCURVE",
"531 333 CURVE",
"497 273 LINE SMOOTH",
"481 244 OFFCURVE",
"462 209 OFFCURVE",
"443 176 CURVE SMOOTH",
"371 47 LINE",
"253 62 LINE",
"253 62 OFFCURVE",
"251 68 OFFCURVE",
"248 80 CURVE",
"241 104 OFFCURVE",
"231 142 OFFCURVE",
"216 187 CURVE SMOOTH",
"201 232 OFFCURVE",
"185 278 OFFCURVE",
"169 316 CURVE",
"160 335 OFFCURVE",
"152 350 OFFCURVE",
"144 361 CURVE",
"142 360 OFFCURVE",
"139 360 OFFCURVE",
"135 360 CURVE",
"121 358 LINE",
"116 357 OFFCURVE",
"110 357 OFFCURVE",
"103 357 CURVE",
"-20 483 LINE",
"-17 484 OFFCURVE",
"-9 488 OFFCURVE",
"4 494 CURVE SMOOTH",
"30 506 OFFCURVE",
"68 525 OFFCURVE",
"115 549 CURVE SMOOTH",
"162 572 OFFCURVE",
"211 599 OFFCURVE",
"256 624 CURVE SMOOTH",
"278 637 OFFCURVE",
"298 649 OFFCURVE",
"315 660 CURVE",
"334 635 OFFCURVE",
"353 595 OFFCURVE",
"370 551 CURVE SMOOTH",
"386 507 OFFCURVE",
"401 457 OFFCURVE",
"410 413 CURVE",
"422 442 OFFCURVE",
"435 480 OFFCURVE",
"447 517 CURVE SMOOTH",
"459 553 OFFCURVE",
"468 588 OFFCURVE",
"471 609 CURVE",
"560 619 LINE",
"577 574 OFFCURVE",
"593 534 OFFCURVE",
"607 495 CURVE SMOOTH",
"614 475 OFFCURVE",
"619 458 OFFCURVE",
"624 445 CURVE"
);
}
);
width = 1137;
}
);
unicode = 0057;
},
{
glyphname = X;
layers = (
{
layerId = "7B23AAD7-CE87-48AA-B0FE-511DC5B49C39";
name = Regular;
paths = (
{
closed = 1;
nodes = (
"229 668 LINE",
"288 632 OFFCURVE",
"349 595 OFFCURVE",
"425 539 CURVE",
"445 559 OFFCURVE",
"483 590 OFFCURVE",
"521 621 CURVE SMOOTH",
"559 652 OFFCURVE",
"596 684 OFFCURVE",
"616 701 CURVE",
"773 562 LINE",
"756 545 OFFCURVE",
"722 514 OFFCURVE",
"688 484 CURVE SMOOTH",
"654 454 OFFCURVE",
"621 422 OFFCURVE",
"606 405 CURVE",
"610 402 OFFCURVE",
"616 398 OFFCURVE",
"624 391 CURVE SMOOTH",
"640 377 OFFCURVE",
"659 360 OFFCURVE",
"675 347 CURVE",
"691 333 LINE",
"731 371 LINE",
"761 400 LINE",
"846 224 LINE",
"567 -23 LINE",
"522 48 OFFCURVE",
"471 104 OFFCURVE",
"416 168 CURVE",
"369 100 OFFCURVE",
"339 50 OFFCURVE",
"320 -10 CURVE",
"317 -7 OFFCURVE",
"311 1 OFFCURVE",
"301 12 CURVE SMOOTH",
"280 35 OFFCURVE",
"249 68 OFFCURVE",
"211 108 CURVE SMOOTH",
"173 148 OFFCURVE",
"131 190 OFFCURVE",
"92 228 CURVE SMOOTH",
"72 247 OFFCURVE",
"53 263 OFFCURVE",
"36 278 CURVE",
"59 279 OFFCURVE",
"80 279 OFFCURVE",
"99 280 CURVE SMOOTH",
"115 281 OFFCURVE",
"130 281 OFFCURVE",
"145 281 CURVE SMOOTH",
"170 281 LINE",
"200 314 LINE",
"238 357 LINE",
"187 402 OFFCURVE",
"145 436 OFFCURVE",
"98 464 CURVE"
);
}
);
width = 868;
}
);
unicode = 0058;
},
{
glyphname = Y;
layers = (
{
layerId = "7B23AAD7-CE87-48AA-B0FE-511DC5B49C39";
name = Regular;
paths = (
{
closed = 1;
nodes = (
"63 610 LINE",
"86 611 OFFCURVE",
"146 620 OFFCURVE",
"210 631 CURVE SMOOTH",
"273 642 OFFCURVE",
"337 653 OFFCURVE",
"366 661 CURVE",
"379 606 LINE",
"372 597 OFFCURVE",
"366 589 OFFCURVE",
"360 582 CURVE",
"355 575 OFFCURVE",
"350 569 OFFCURVE",
"346 564 CURVE SMOOTH",
"336 552 LINE",
"341 536 OFFCURVE",
"356 503 OFFCURVE",
"372 468 CURVE SMOOTH",
"396 418 LINE",
"413 380 LINE",
"428 395 OFFCURVE",
"453 424 OFFCURVE",
"479 456 CURVE SMOOTH",
"549 539 LINE",
"544 540 OFFCURVE",
"538 542 OFFCURVE",
"531 544 CURVE SMOOTH",
"518 548 OFFCURVE",
"504 551 OFFCURVE",
"487 555 CURVE",
"487 623 LINE",
"551 622 OFFCURVE",
"618 630 OFFCURVE",
"683 638 CURVE SMOOTH",
"747 646 OFFCURVE",
"811 651 OFFCURVE",
"871 642 CURVE",
"823 594 OFFCURVE",
"774 512 OFFCURVE",
"723 424 CURVE SMOOTH",
"698 379 OFFCURVE",
"672 334 OFFCURVE",
"647 287 CURVE SMOOTH",
"595 194 OFFCURVE",
"542 110 OFFCURVE",
"490 50 CURVE SMOOTH",
"438 -10 OFFCURVE",
"380 -37 OFFCURVE",
"300 -38 CURVE SMOOTH",
"220 -39 OFFCURVE",
"139 -19 OFFCURVE",
"66 17 CURVE SMOOTH",
"29 35 OFFCURVE",
"-3 55 OFFCURVE",
"-31 76 CURVE",
"62 91 OFFCURVE",
"130 129 OFFCURVE",
"176 168 CURVE SMOOTH",
"199 187 OFFCURVE",
"216 205 OFFCURVE",
"229 222 CURVE SMOOTH",
"254 255 LINE",
"247 284 OFFCURVE",
"225 324 OFFCURVE",
"198 364 CURVE SMOOTH",
"170 404 OFFCURVE",
"138 444 OFFCURVE",
"113 474 CURVE SMOOTH",
"100 489 OFFCURVE",
"90 501 OFFCURVE",
"82 511 CURVE",
"73 520 OFFCURVE",
"69 525 OFFCURVE",
"68 526 CURVE"
);
}
);
width = 882;
}
);
unicode = 0059;
},
{
glyphname = Z;
layers = (
{
layerId = "7B23AAD7-CE87-48AA-B0FE-511DC5B49C39";
name = Regular;
paths = (
{
closed = 1;
nodes = (
"493 736 LINE",
"493 726 OFFCURVE",
"493 716 OFFCURVE",
"492 707 CURVE SMOOTH",
"491 699 OFFCURVE",
"491 691 OFFCURVE",
"491 684 CURVE SMOOTH",
"491 665 LINE",
"540 665 LINE SMOOTH",
"583 665 OFFCURVE",
"636 667 OFFCURVE",
"692 671 CURVE SMOOTH",
"719 673 OFFCURVE",
"745 676 OFFCURVE",
"769 679 CURVE",
"768 673 OFFCURVE",
"765 656 OFFCURVE",
"759 628 CURVE SMOOTH",
"746 571 OFFCURVE",
"701 475 OFFCURVE",
"610 347 CURVE SMOOTH",
"564 282 OFFCURVE",
"501 211 OFFCURVE",
"422 134 CURVE",
"428 135 OFFCURVE",
"435 135 OFFCURVE",
"444 136 CURVE",
"453 136 OFFCURVE",
"461 136 OFFCURVE",
"470 137 CURVE SMOOTH",
"478 138 OFFCURVE",
"485 138 OFFCURVE",
"492 139 CURVE",
"503 139 LINE",
"520 156 LINE SMOOTH",
"538 174 OFFCURVE",
"559 195 OFFCURVE",
"587 226 CURVE",
"729 192 LINE",
"728 -1 LINE",
"723 -2 OFFCURVE",
"710 -3 OFFCURVE",
"688 -4 CURVE",
"643 -8 OFFCURVE",
"576 -11 OFFCURVE",
"495 -14 CURVE SMOOTH",
"454 -15 OFFCURVE",
"413 -16 OFFCURVE",
"372 -16 CURVE SMOOTH",
"289 -16 OFFCURVE",
"208 -13 OFFCURVE",
"145 -4 CURVE",
"145 108 LINE",
"148 109 OFFCURVE",
"161 117 OFFCURVE",
"183 130 CURVE SMOOTH",
"226 156 OFFCURVE",
"285 201 OFFCURVE",
"340 262 CURVE SMOOTH",
"367 292 OFFCURVE",
"388 325 OFFCURVE",
"403 361 CURVE",
"393 358 OFFCURVE",
"381 356 OFFCURVE",
"366 353 CURVE SMOOTH",
"337 347 OFFCURVE",
"304 337 OFFCURVE",
"272 322 CURVE",
"255 315 OFFCURVE",
"241 306 OFFCURVE",
"228 296 CURVE",
"144 314 LINE",
"141 354 LINE SMOOTH",
"136 402 OFFCURVE",
"124 472 OFFCURVE",
"101 546 CURVE SMOOTH",
"89 583 OFFCURVE",
"74 615 OFFCURVE",
"55 644 CURVE"
);
}
);
width = 825;
}
);
unicode = 005A;
},
{
glyphname = a;
layers = (
{
layerId = "7B23AAD7-CE87-48AA-B0FE-511DC5B49C39";
name = Regular;
paths = (
{
closed = 1;
nodes = (
"179 692 LINE",
"619 692 LINE",
"655 579 LINE SMOOTH",
"679 498 OFFCURVE",
"705 426 OFFCURVE",
"727 376 CURVE SMOOTH",
"749 326 OFFCURVE",
"765 326 OFFCURVE",
"801 317 CURVE SMOOTH",
"836 308 OFFCURVE",
"870 299 OFFCURVE",
"895 295 CURVE",
"908 292 OFFCURVE",
"915 291 OFFCURVE",
"918 290 CURVE",
"918 221 LINE",
"899 209 LINE SMOOTH",
"877 195 OFFCURVE",
"842 172 OFFCURVE",
"801 144 CURVE SMOOTH",
"760 115 OFFCURVE",
"719 83 OFFCURVE",
"684 51 CURVE SMOOTH",
"666 34 OFFCURVE",
"651 18 OFFCURVE",
"639 3 CURVE",
"616 15 OFFCURVE",
"596 33 OFFCURVE",
"580 50 CURVE SMOOTH",
"572 58 OFFCURVE",
"565 66 OFFCURVE",
"559 73 CURVE SMOOTH",
"545 89 LINE",
"543 89 OFFCURVE",
"539 88 OFFCURVE",
"533 85 CURVE",
"526 82 OFFCURVE",
"518 79 OFFCURVE",
"509 76 CURVE",
"489 68 OFFCURVE",
"465 59 OFFCURVE",
"441 48 CURVE SMOOTH",
"413 36 OFFCURVE",
"382 23 OFFCURVE",
"348 8 CURVE",
"347 10 OFFCURVE",
"339 17 OFFCURVE",
"324 29 CURVE",
"292 52 OFFCURVE",
"235 82 OFFCURVE",
"153 110 CURVE SMOOTH",
"112 124 OFFCURVE",
"65 134 OFFCURVE",
"13 140 CURVE",
"27 212 LINE",
"47 215 OFFCURVE",
"62 218 OFFCURVE",
"78 222 CURVE",
"85 223 OFFCURVE",
"91 225 OFFCURVE",
"94 226 CURVE",
"99 246 OFFCURVE",
"115 302 OFFCURVE",
"141 367 CURVE SMOOTH",
"167 432 OFFCURVE",
"204 509 OFFCURVE",
"249 566 CURVE",
"241 571 OFFCURVE",
"226 579 OFFCURVE",
"211 586 CURVE SMOOTH",
"203 590 OFFCURVE",
"195 595 OFFCURVE",
"186 600 CURVE"
);
},
{
closed = 1;
nodes = (
"205 669 OFFCURVE",
"206 654 OFFCURVE",
"207 642 CURVE SMOOTH",
"208 629 OFFCURVE",
"211 618 OFFCURVE",
"212 614 CURVE",
"216 611 OFFCURVE",
"240 598 OFFCURVE",
"263 587 CURVE",
"276 580 OFFCURVE",
"292 573 OFFCURVE",
"309 566 CURVE",
"269 522 OFFCURVE",
"235 469 OFFCURVE",
"206 417 CURVE SMOOTH",
"177 364 OFFCURVE",
"154 313 OFFCURVE",
"138 274 CURVE SMOOTH",
"129 254 OFFCURVE",
"123 238 OFFCURVE",
"119 226 CURVE",
"114 213 OFFCURVE",
"112 206 OFFCURVE",
"111 205 CURVE",
"63 195 LINE",
"48 191 LINE",
"48 161 LINE",
"137 150 OFFCURVE",
"213 128 OFFCURVE",
"270 105 CURVE SMOOTH",
"298 94 OFFCURVE",
"321 83 OFFCURVE",
"339 74 CURVE SMOOTH",
"357 65 OFFCURVE",
"369 58 OFFCURVE",
"376 55 CURVE",
"377 55 OFFCURVE",
"381 56 OFFCURVE",
"387 58 CURVE",
"392 60 OFFCURVE",
"399 63 OFFCURVE",
"408 66 CURVE SMOOTH",
"425 72 OFFCURVE",
"449 80 OFFCURVE",
"470 88 CURVE SMOOTH",
"496 97 OFFCURVE",
"525 108 OFFCURVE",
"557 121 CURVE",
"559 119 OFFCURVE",
"562 115 OFFCURVE",
"566 109 CURVE SMOOTH",
"574 97 OFFCURVE",
"586 82 OFFCURVE",
"602 67 CURVE SMOOTH",
"609 60 OFFCURVE",
"617 53 OFFCURVE",
"626 48 CURVE",
"647 73 OFFCURVE",
"680 102 OFFCURVE",
"716 128 CURVE SMOOTH",
"752 154 OFFCURVE",
"791 178 OFFCURVE",
"824 198 CURVE SMOOTH",
"856 217 OFFCURVE",
"883 232 OFFCURVE",
"894 237 CURVE",
"894 270 LINE",
"887 272 OFFCURVE",
"878 274 OFFCURVE",
"865 277 CURVE",
"840 281 OFFCURVE",
"810 288 OFFCURVE",
"782 297 CURVE",
"753 305 OFFCURVE",
"737 308 OFFCURVE",
"717 339 CURVE SMOOTH",
"697 370 OFFCURVE",
"675 415 OFFCURVE",
"655 467 CURVE SMOOTH",
"634 519 OFFCURVE",
"615 570 OFFCURVE",
"602 611 CURVE SMOOTH",
"586 658 LINE",
"554 660 LINE",
"486 663 LINE SMOOTH",
"459 664 OFFCURVE",
"430 666 OFFCURVE",
"399 668 CURVE SMOOTH",
"368 669 OFFCURVE",
"338 671 OFFCURVE",
"311 672 CURVE SMOOTH",
"284 673 OFFCURVE",
"260 675 OFFCURVE",
"241 676 CURVE SMOOTH",
"221 677 OFFCURVE",
"209 677 OFFCURVE",
"205 677 CURVE"
);
},
{
closed = 1;
nodes = (
"365 221 OFFCURVE",
"370 251 OFFCURVE",
"376 284 CURVE SMOOTH",
"382 317 OFFCURVE",
"389 355 OFFCURVE",
"397 388 CURVE SMOOTH",
"406 428 OFFCURVE",
"416 470 OFFCURVE",
"427 513 CURVE",
"481 364 LINE SMOOTH",
"504 300 OFFCURVE",
"527 234 OFFCURVE",
"538 198 CURVE",
"502 198 LINE SMOOTH",
"473 197 OFFCURVE",
"441 196 OFFCURVE",
"410 197 CURVE SMOOTH",
"394 197 OFFCURVE",
"379 198 OFFCURVE",
"365 200 CURVE"
);
},
{
closed = 1;
nodes = (
"428 370 LINE",
"425 353 OFFCURVE",
"423 335 OFFCURVE",
"420 318 CURVE",
"415 282 OFFCURVE",
"411 246 OFFCURVE",
"411 221 CURVE",
"426 220 OFFCURVE",
"443 219 OFFCURVE",
"461 219 CURVE SMOOTH",
"479 219 OFFCURVE",
"493 220 OFFCURVE",
"504 221 CURVE",
"496 245 OFFCURVE",
"483 281 OFFCURVE",
"471 317 CURVE SMOOTH",
"458 352 OFFCURVE",
"445 388 OFFCURVE",
"434 415 CURVE"
);
}
);
width = 888;
}
);
unicode = 0061;
},
{
glyphname = b;
layers = (
{
layerId = "7B23AAD7-CE87-48AA-B0FE-511DC5B49C39";
name = Regular;
paths = (
{
closed = 1;
nodes = (
"-10 706 LINE",
"16 703 OFFCURVE",
"46 701 OFFCURVE",
"81 700 CURVE SMOOTH",
"149 697 OFFCURVE",
"225 694 OFFCURVE",
"301 690 CURVE SMOOTH",
"377 685 OFFCURVE",
"446 677 OFFCURVE",
"500 666 CURVE SMOOTH",
"554 654 OFFCURVE",
"592 634 OFFCURVE",
"635 578 CURVE SMOOTH",
"656 550 OFFCURVE",
"670 513 OFFCURVE",
"675 468 CURVE",
"675 397 OFFCURVE",
"657 334 OFFCURVE",
"596 266 CURVE",
"623 241 OFFCURVE",
"648 200 OFFCURVE",
"648 157 CURVE SMOOTH",
"648 112 OFFCURVE",
"623 73 OFFCURVE",
"573 41 CURVE",
"521 5 OFFCURVE",
"444 -6 OFFCURVE",
"370 -6 CURVE SMOOTH",
"296 -6 OFFCURVE",
"223 6 OFFCURVE",
"182 14 CURVE",
"182 31 LINE",
"181 41 OFFCURVE",
"181 53 OFFCURVE",
"181 68 CURVE",
"180 97 OFFCURVE",
"179 135 OFFCURVE",
"177 168 CURVE SMOOTH",
"175 201 OFFCURVE",
"173 232 OFFCURVE",
"169 248 CURVE",
"168 249 OFFCURVE",
"163 251 OFFCURVE",
"155 253 CURVE SMOOTH",
"146 255 OFFCURVE",
"137 257 OFFCURVE",
"128 260 CURVE",
"92 270 LINE",
"91 271 OFFCURVE",
"90 280 OFFCURVE",
"87 297 CURVE SMOOTH",
"82 330 OFFCURVE",
"72 381 OFFCURVE",
"58 441 CURVE SMOOTH",
"44 500 OFFCURVE",
"27 558 OFFCURVE",
"5 606 CURVE SMOOTH",
"-6 629 OFFCURVE",
"-18 647 OFFCURVE",
"-30 660 CURVE"
);
},
{
closed = 1;
nodes = (
"524 635 OFFCURVE",
"479 645 OFFCURVE",
"425 651 CURVE SMOOTH",
"371 657 OFFCURVE",
"308 660 OFFCURVE",
"248 661 CURVE SMOOTH",
"178 663 OFFCURVE",
"103 663 OFFCURVE",
"24 660 CURVE",
"45 635 OFFCURVE",
"64 590 OFFCURVE",
"79 541 CURVE SMOOTH",
"94 492 OFFCURVE",
"105 438 OFFCURVE",
"113 392 CURVE SMOOTH",
"124 331 LINE SMOOTH",
"127 314 OFFCURVE",
"129 301 OFFCURVE",
"131 293 CURVE",
"136 292 OFFCURVE",
"151 285 OFFCURVE",
"164 278 CURVE",
"171 275 OFFCURVE",
"180 271 OFFCURVE",
"189 266 CURVE",
"191 255 OFFCURVE",
"194 238 OFFCURVE",
"197 216 CURVE SMOOTH",
"200 194 OFFCURVE",
"204 171 OFFCURVE",
"208 147 CURVE SMOOTH",
"216 99 OFFCURVE",
"223 51 OFFCURVE",
"224 31 CURVE",
"257 24 OFFCURVE",
"320 16 OFFCURVE",
"385 17 CURVE SMOOTH",
"450 18 OFFCURVE",
"518 28 OFFCURVE",
"565 60 CURVE SMOOTH",
"605 88 OFFCURVE",
"629 114 OFFCURVE",
"629 161 CURVE SMOOTH",
"629 174 OFFCURVE",
"620 198 OFFCURVE",
"607 220 CURVE SMOOTH",
"594 242 OFFCURVE",
"574 263 OFFCURVE",
"553 275 CURVE",
"588 308 OFFCURVE",
"612 334 OFFCURVE",
"628 362 CURVE SMOOTH",
"644 390 OFFCURVE",
"651 421 OFFCURVE",
"651 465 CURVE",
"639 548 OFFCURVE",
"596 593 OFFCURVE",
"549 622 CURVE"
);
},
{
closed = 1;
nodes = (
"360 437 LINE",
"413 416 OFFCURVE",
"438 391 OFFCURVE",
"445 362 CURVE",
"446 346 OFFCURVE",
"445 330 OFFCURVE",
"437 315 CURVE SMOOTH",
"429 300 OFFCURVE",
"414 286 OFFCURVE",
"389 277 CURVE"
);
},
{
closed = 1;
nodes = (
"387 396 OFFCURVE",
"390 383 OFFCURVE",
"393 368 CURVE SMOOTH",
"396 353 OFFCURVE",
"398 341 OFFCURVE",
"399 332 CURVE",
"406 339 OFFCURVE",
"413 348 OFFCURVE",
"413 359 CURVE SMOOTH",
"413 378 OFFCURVE",
"402 396 OFFCURVE",
"385 408 CURVE"
);
},
{
closed = 1;
nodes = (
"396 248 LINE",
"392 270 LINE",
"413 262 LINE SMOOTH",
"441 251 OFFCURVE",
"462 227 OFFCURVE",
"469 202 CURVE",
"476 171 OFFCURVE",
"462 143 OFFCURVE",
"417 126 CURVE"
);
},
{
closed = 1;
nodes = (
"417 227 OFFCURVE",
"420 207 OFFCURVE",
"423 188 CURVE",
"442 195 OFFCURVE",
"442 207 OFFCURVE",
"437 219 CURVE SMOOTH",
"432 231 OFFCURVE",
"420 244 OFFCURVE",
"409 251 CURVE"
);
}
);
width = 658;
}
);
unicode = 0062;
},
{
glyphname = c;
layers = (
{
layerId = "7B23AAD7-CE87-48AA-B0FE-511DC5B49C39";
name = Regular;
paths = (
{
closed = 1;
nodes = (
"122 690 OFFCURVE",
"166 691 OFFCURVE",
"210 694 CURVE SMOOTH",
"254 697 OFFCURVE",
"299 701 OFFCURVE",
"339 705 CURVE SMOOTH",
"386 710 OFFCURVE",
"433 715 OFFCURVE",
"480 722 CURVE",
"616 353 LINE",
"601 336 OFFCURVE",
"568 327 OFFCURVE",
"530 319 CURVE SMOOTH",
"511 315 OFFCURVE",
"491 311 OFFCURVE",
"471 308 CURVE SMOOTH",
"430 301 OFFCURVE",
"396 292 OFFCURVE",
"376 280 CURVE SMOOTH",
"355 267 OFFCURVE",
"360 246 OFFCURVE",
"369 234 CURVE",
"377 222 OFFCURVE",
"396 217 OFFCURVE",
"422 225 CURVE",
"435 228 OFFCURVE",
"450 236 OFFCURVE",
"467 249 CURVE",
"600 183 LINE",
"600 182 OFFCURVE",
"595 176 OFFCURVE",
"585 163 CURVE SMOOTH",
"564 137 OFFCURVE",
"526 99 OFFCURVE",
"474 63 CURVE SMOOTH",
"422 26 OFFCURVE",
"357 0 OFFCURVE",
"285 -1 CURVE SMOOTH",
"213 -2 OFFCURVE",
"144 32 OFFCURVE",
"109 64 CURVE SMOOTH",
"74 95 OFFCURVE",
"52 133 OFFCURVE",
"40 177 CURVE SMOOTH",
"27 221 OFFCURVE",
"17 279 OFFCURVE",
"25 328 CURVE SMOOTH",
"33 377 OFFCURVE",
"48 422 OFFCURVE",
"65 466 CURVE SMOOTH",
"82 509 OFFCURVE",
"95 554 OFFCURVE",
"96 606 CURVE SMOOTH",
"97 631 OFFCURVE",
"93 659 OFFCURVE",
"85 690 CURVE"
);
},
{
closed = 1;
nodes = (
"413 677 OFFCURVE",
"363 672 OFFCURVE",
"317 668 CURVE SMOOTH",
"278 664 OFFCURVE",
"238 662 OFFCURVE",
"203 660 CURVE SMOOTH",
"168 658 OFFCURVE",
"141 657 OFFCURVE",
"126 658 CURVE",
"133 601 OFFCURVE",
"126 558 OFFCURVE",
"115 520 CURVE SMOOTH",
"109 501 OFFCURVE",
"102 482 OFFCURVE",
"95 465 CURVE",
"79 430 OFFCURVE",
"66 394 OFFCURVE",
"56 351 CURVE SMOOTH",
"46 308 OFFCURVE",
"47 260 OFFCURVE",
"57 217 CURVE SMOOTH",
"67 173 OFFCURVE",
"90 132 OFFCURVE",
"131 97 CURVE SMOOTH",
"171 61 OFFCURVE",
"243 30 OFFCURVE",
"299 27 CURVE SMOOTH",
"355 23 OFFCURVE",
"404 37 OFFCURVE",
"442 62 CURVE SMOOTH",
"480 86 OFFCURVE",
"509 114 OFFCURVE",
"528 138 CURVE SMOOTH",
"549 166 LINE",
"544 169 OFFCURVE",
"526 180 OFFCURVE",
"510 192 CURVE SMOOTH",
"493 204 OFFCURVE",
"476 216 OFFCURVE",
"471 221 CURVE",
"440 198 OFFCURVE",
"398 192 OFFCURVE",
"371 199 CURVE SMOOTH",
"351 204 OFFCURVE",
"337 216 OFFCURVE",
"329 228 CURVE",
"324 234 OFFCURVE",
"321 240 OFFCURVE",
"319 245 CURVE SMOOTH",
"317 250 OFFCURVE",
"316 253 OFFCURVE",
"316 254 CURVE",
"309 281 OFFCURVE",
"330 297 OFFCURVE",
"362 309 CURVE SMOOTH",
"393 320 OFFCURVE",
"436 327 OFFCURVE",
"476 333 CURVE SMOOTH",
"515 339 OFFCURVE",
"551 344 OFFCURVE",
"568 353 CURVE",
"567 356 OFFCURVE",
"563 365 OFFCURVE",
"558 382 CURVE",
"547 414 OFFCURVE",
"533 462 OFFCURVE",
"517 515 CURVE SMOOTH",
"495 591 LINE",
"476 652 LINE SMOOTH",
"471 669 OFFCURVE",
"467 679 OFFCURVE",
"466 682 CURVE"
);
}
);
width = 612;
}
);
unicode = 0063;
},
{
glyphname = d;
layers = (
{
layerId = "7B23AAD7-CE87-48AA-B0FE-511DC5B49C39";
name = Regular;
paths = (
{
closed = 1;
nodes = (
"23 672 LINE",
"434 702 LINE",
"451 678 LINE SMOOTH",
"470 651 OFFCURVE",
"497 610 OFFCURVE",
"528 558 CURVE SMOOTH",
"559 505 OFFCURVE",
"587 445 OFFCURVE",
"608 382 CURVE SMOOTH",
"628 319 OFFCURVE",
"635 258 OFFCURVE",
"624 202 CURVE SMOOTH",
"612 146 OFFCURVE",
"567 92 OFFCURVE",
"512 59 CURVE SMOOTH",
"457 26 OFFCURVE",
"397 10 OFFCURVE",
"335 7 CURVE SMOOTH",
"273 4 OFFCURVE",
"212 10 OFFCURVE",
"159 19 CURVE SMOOTH",
"87 32 LINE",
"43 345 LINE",
"62 361 LINE",
"66 364 OFFCURVE",
"69 367 OFFCURVE",
"72 370 CURVE SMOOTH",
"84 382 LINE",
"83 384 OFFCURVE",
"82 390 OFFCURVE",
"81 399 CURVE",
"79 408 OFFCURVE",
"77 419 OFFCURVE",
"75 432 CURVE SMOOTH",
"73 445 OFFCURVE",
"71 459 OFFCURVE",
"68 474 CURVE",
"56 552 LINE",
"55 562 OFFCURVE",
"54 568 OFFCURVE",
"54 571 CURVE",
"47 571 OFFCURVE",
"36 572 OFFCURVE",
"27 573 CURVE",
"22 574 OFFCURVE",
"16 574 OFFCURVE",
"10 574 CURVE"
);
},
{
closed = 1;
nodes = (
"344 677 OFFCURVE",
"285 672 OFFCURVE",
"232 667 CURVE SMOOTH",
"209 665 OFFCURVE",
"187 663 OFFCURVE",
"166 662 CURVE",
"144 660 OFFCURVE",
"124 658 OFFCURVE",
"107 657 CURVE",
"89 655 OFFCURVE",
"74 654 OFFCURVE",
"63 653 CURVE SMOOTH",
"52 652 OFFCURVE",
"45 652 OFFCURVE",
"43 652 CURVE",
"43 647 OFFCURVE",
"43 632 OFFCURVE",
"40 619 CURVE",
"37 594 LINE",
"84 591 LINE",
"107 375 LINE",
"84 348 LINE",
"98 208 LINE SMOOTH",
"100 190 OFFCURVE",
"102 173 OFFCURVE",
"103 156 CURVE SMOOTH",
"104 139 OFFCURVE",
"106 123 OFFCURVE",
"107 110 CURVE SMOOTH",
"110 76 LINE SMOOTH",
"111 67 OFFCURVE",
"111 61 OFFCURVE",
"111 59 CURVE",
"143 47 OFFCURVE",
"208 37 OFFCURVE",
"280 39 CURVE SMOOTH",
"352 41 OFFCURVE",
"432 55 OFFCURVE",
"494 91 CURVE SMOOTH",
"556 126 OFFCURVE",
"599 181 OFFCURVE",
"599 268 CURVE SMOOTH",
"599 309 OFFCURVE",
"588 357 OFFCURVE",
"570 403 CURVE SMOOTH",
"552 449 OFFCURVE",
"529 496 OFFCURVE",
"505 537 CURVE SMOOTH",
"478 586 OFFCURVE",
"446 634 OFFCURVE",
"411 682 CURVE"
);
},
{
closed = 1;
nodes = (
"261 432 LINE",
"284 423 OFFCURVE",
"317 395 OFFCURVE",
"343 362 CURVE SMOOTH",
"369 329 OFFCURVE",
"388 290 OFFCURVE",
"380 257 CURVE SMOOTH",
"373 230 OFFCURVE",
"346 204 OFFCURVE",
"289 197 CURVE"
);
},
{
closed = 1;
nodes = (
"290 382 OFFCURVE",
"295 348 OFFCURVE",
"300 314 CURVE SMOOTH",
"306 267 LINE SMOOTH",
"308 252 OFFCURVE",
"309 242 OFFCURVE",
"310 237 CURVE",
"325 242 OFFCURVE",
"339 250 OFFCURVE",
"350 259 CURVE SMOOTH",
"361 268 OFFCURVE",
"367 281 OFFCURVE",
"364 294 CURVE SMOOTH",
"351 350 OFFCURVE",
"317 377 OFFCURVE",
"286 397 CURVE"
);
}
);
width = 634;
}
);
unicode = 0064;
},
{
glyphname = e;
layers = (
{
layerId = "7B23AAD7-CE87-48AA-B0FE-511DC5B49C39";
name = Regular;
paths = (
{
closed = 1;
nodes = (
"107 684 LINE",
"158 659 OFFCURVE",
"219 655 OFFCURVE",
"274 651 CURVE SMOOTH",
"345 648 OFFCURVE",
"414 639 OFFCURVE",
"466 611 CURVE SMOOTH",
"517 582 OFFCURVE",
"550 535 OFFCURVE",
"550 455 CURVE SMOOTH",
"550 416 OFFCURVE",
"531 363 OFFCURVE",
"496 304 CURVE",
"503 303 OFFCURVE",
"508 301 OFFCURVE",
"512 300 CURVE",
"515 298 OFFCURVE",
"520 296 OFFCURVE",
"525 295 CURVE",
"528 303 LINE",
"528 306 OFFCURVE",
"528 308 OFFCURVE",
"529 311 CURVE",
"531 321 LINE",
"618 340 LINE",
"611 80 LINE",
"609 77 OFFCURVE",
"600 70 OFFCURVE",
"583 58 CURVE SMOOTH",
"549 33 OFFCURVE",
"494 5 OFFCURVE",
"429 -14 CURVE SMOOTH",
"396 -23 OFFCURVE",
"363 -26 OFFCURVE",
"329 -23 CURVE SMOOTH",
"288 -20 OFFCURVE",
"256 -11 OFFCURVE",
"232 -1 CURVE SMOOTH",
"219 4 OFFCURVE",
"208 9 OFFCURVE",
"197 15 CURVE SMOOTH",
"176 27 OFFCURVE",
"148 41 OFFCURVE",
"130 47 CURVE SMOOTH",
"112 53 OFFCURVE",
"97 55 OFFCURVE",
"81 59 CURVE",
"73 60 OFFCURVE",
"62 63 OFFCURVE",
"49 67 CURVE",
"76 158 OFFCURVE",
"83 252 OFFCURVE",
"75 340 CURVE SMOOTH",
"67 428 OFFCURVE",
"43 508 OFFCURVE",
"4 571 CURVE"
);
},
{
closed = 1;
nodes = (
"112 652 OFFCURVE",
"108 647 OFFCURVE",
"103 640 CURVE SMOOTH",
"97 632 OFFCURVE",
"91 624 OFFCURVE",
"85 615 CURVE",
"78 606 OFFCURVE",
"72 597 OFFCURVE",
"67 590 CURVE SMOOTH",
"61 582 OFFCURVE",
"57 577 OFFCURVE",
"56 574 CURVE",
"97 499 OFFCURVE",
"113 389 OFFCURVE",
"113 282 CURVE SMOOTH",
"113 214 OFFCURVE",
"97 151 OFFCURVE",
"85 92 CURVE",
"124 80 OFFCURVE",
"149 67 OFFCURVE",
"174 51 CURVE",
"185 45 OFFCURVE",
"195 39 OFFCURVE",
"205 34 CURVE",
"224 22 OFFCURVE",
"247 11 OFFCURVE",
"276 4 CURVE SMOOTH",
"305 -4 OFFCURVE",
"356 -14 OFFCURVE",
"412 4 CURVE SMOOTH",
"467 22 OFFCURVE",
"513 49 OFFCURVE",
"545 74 CURVE SMOOTH",
"576 99 LINE",
"576 100 OFFCURVE",
"576 106 OFFCURVE",
"577 116 CURVE",
"578 136 OFFCURVE",
"581 166 OFFCURVE",
"585 199 CURVE SMOOTH",
"593 287 LINE SMOOTH",
"594 299 OFFCURVE",
"594 307 OFFCURVE",
"595 311 CURVE",
"579 308 OFFCURVE",
"561 304 OFFCURVE",
"550 301 CURVE",
"549 299 OFFCURVE",
"549 296 OFFCURVE",
"548 292 CURVE",
"547 287 OFFCURVE",
"545 283 OFFCURVE",
"544 279 CURVE",
"541 263 LINE",
"457 279 LINE",
"509 362 OFFCURVE",
"518 415 OFFCURVE",
"518 452 CURVE SMOOTH",
"518 471 OFFCURVE",
"514 493 OFFCURVE",
"505 516 CURVE SMOOTH",
"496 539 OFFCURVE",
"481 562 OFFCURVE",
"460 578 CURVE SMOOTH",
"433 598 OFFCURVE",
"397 610 OFFCURVE",
"363 618 CURVE SMOOTH",
"329 625 OFFCURVE",
"295 628 OFFCURVE",
"274 629 CURVE SMOOTH",
"218 632 OFFCURVE",
"162 635 OFFCURVE",
"113 655 CURVE"
);
},
{
closed = 1;
nodes = (
"367 284 OFFCURVE",
"324 316 OFFCURVE",
"299 358 CURVE SMOOTH",
"274 400 OFFCURVE",
"266 451 OFFCURVE",
"271 488 CURVE",
"338 464 OFFCURVE",
"374 433 OFFCURVE",
"396 399 CURVE SMOOTH",
"418 365 OFFCURVE",
"424 325 OFFCURVE",
"428 285 CURVE"
);
},
{
closed = 1;
nodes = (
"291 436 OFFCURVE",
"296 405 OFFCURVE",
"312 380 CURVE SMOOTH",
"328 355 OFFCURVE",
"354 333 OFFCURVE",
"399 324 CURVE",
"395 351 OFFCURVE",
"387 378 OFFCURVE",
"371 402 CURVE SMOOTH",
"355 426 OFFCURVE",
"330 448 OFFCURVE",
"290 465 CURVE"
);
}
);
width = 616;
}
);
unicode = 0065;
},
{
glyphname = f;
layers = (
{
layerId = "7B23AAD7-CE87-48AA-B0FE-511DC5B49C39";
name = Regular;
paths = (
{
closed = 1;
nodes = (
"531 715 LINE",
"607 693 OFFCURVE",
"680 649 OFFCURVE",
"749 583 CURVE",
"611 360 LINE",
"580 384 OFFCURVE",
"558 403 OFFCURVE",
"534 412 CURVE SMOOTH",
"510 421 OFFCURVE",
"484 422 OFFCURVE",
"448 413 CURVE",
"455 354 LINE",
"460 354 OFFCURVE",
"467 355 OFFCURVE",
"478 356 CURVE SMOOTH",
"489 357 OFFCURVE",
"500 359 OFFCURVE",
"511 360 CURVE",
"524 362 OFFCURVE",
"539 364 OFFCURVE",
"555 365 CURVE",
"562 246 LINE",
"521 219 LINE",
"500 204 OFFCURVE",
"479 191 OFFCURVE",
"472 187 CURVE",
"474 173 LINE SMOOTH",
"476 158 OFFCURVE",
"480 137 OFFCURVE",
"485 110 CURVE",
"488 97 OFFCURVE",
"490 83 OFFCURVE",
"493 69 CURVE SMOOTH",
"500 37 OFFCURVE",
"507 1 OFFCURVE",
"514 -38 CURVE",
"389 13 OFFCURVE",
"303 14 OFFCURVE",
"243 3 CURVE",
"222 0 OFFCURVE",
"197 -2 OFFCURVE",
"167 -2 CURVE SMOOTH",
"136 -2 OFFCURVE",
"102 3 OFFCURVE",
"65 13 CURVE",
"69 28 LINE",
"84 63 OFFCURVE",
"97 114 OFFCURVE",
"106 166 CURVE SMOOTH",
"114 218 OFFCURVE",
"118 272 OFFCURVE",
"111 312 CURVE SMOOTH",
"100 376 OFFCURVE",
"78 425 OFFCURVE",
"56 460 CURVE SMOOTH",
"45 477 OFFCURVE",
"34 491 OFFCURVE",
"24 501 CURVE",
"14 510 OFFCURVE",
"7 516 OFFCURVE",
"3 518 CURVE",
"93 674 LINE",
"120 653 OFFCURVE",
"148 646 OFFCURVE",
"178 647 CURVE SMOOTH",
"193 647 OFFCURVE",
"208 648 OFFCURVE",
"223 651 CURVE SMOOTH",
"238 654 OFFCURVE",
"254 656 OFFCURVE",
"271 659 CURVE SMOOTH",
"334 670 OFFCURVE",
"399 681 OFFCURVE",
"483 674 CURVE"
);
},
{
closed = 1;
nodes = (
"401 656 OFFCURVE",
"337 646 OFFCURVE",
"277 635 CURVE SMOOTH",
"212 624 OFFCURVE",
"152 615 OFFCURVE",
"103 638 CURVE",
"98 630 OFFCURVE",
"85 602 OFFCURVE",
"73 575 CURVE SMOOTH",
"57 539 LINE SMOOTH",
"52 528 OFFCURVE",
"50 521 OFFCURVE",
"49 518 CURVE",
"57 507 OFFCURVE",
"74 485 OFFCURVE",
"91 452 CURVE SMOOTH",
"107 419 OFFCURVE",
"126 373 OFFCURVE",
"135 316 CURVE SMOOTH",
"139 291 OFFCURVE",
"142 257 OFFCURVE",
"142 225 CURVE SMOOTH",
"142 156 OFFCURVE",
"131 80 OFFCURVE",
"118 24 CURVE",
"163 13 OFFCURVE",
"202 20 OFFCURVE",
"239 28 CURVE",
"267 33 OFFCURVE",
"298 38 OFFCURVE",
"335 37 CURVE SMOOTH",
"372 36 OFFCURVE",
"414 29 OFFCURVE",
"465 10 CURVE",
"465 26 OFFCURVE",
"461 72 OFFCURVE",
"457 115 CURVE SMOOTH",
"448 197 LINE",
"537 260 LINE",
"531 337 LINE",
"527 336 OFFCURVE",
"520 335 OFFCURVE",
"509 335 CURVE",
"476 332 LINE",
"434 329 LINE",
"409 444 LINE",
"456 456 OFFCURVE",
"492 454 OFFCURVE",
"524 444 CURVE SMOOTH",
"555 434 OFFCURVE",
"580 415 OFFCURVE",
"604 396 CURVE",
"606 399 OFFCURVE",
"610 406 OFFCURVE",
"617 416 CURVE SMOOTH",
"623 425 OFFCURVE",
"630 437 OFFCURVE",
"638 450 CURVE",
"645 463 OFFCURVE",
"654 476 OFFCURVE",
"663 491 CURVE SMOOTH",
"681 519 OFFCURVE",
"696 544 OFFCURVE",
"708 563 CURVE SMOOTH",
"718 580 LINE",
"662 628 OFFCURVE",
"601 662 OFFCURVE",
"537 677 CURVE",
"536 676 OFFCURVE",
"534 675 OFFCURVE",
"529 672 CURVE SMOOTH",
"524 669 OFFCURVE",
"518 665 OFFCURVE",
"512 662 CURVE",
"505 658 OFFCURVE",
"497 654 OFFCURVE",
"489 649 CURVE"
);
}
);
width = 736;
}
);
unicode = 0066;
},
{
glyphname = g;
layers = (
{
layerId = "7B23AAD7-CE87-48AA-B0FE-511DC5B49C39";
name = Regular;
paths = (
{
closed = 1;
nodes = (
"77 662 OFFCURVE",
"150 695 OFFCURVE",
"244 705 CURVE SMOOTH",
"291 710 OFFCURVE",
"342 710 OFFCURVE",
"398 707 CURVE SMOOTH",
"453 703 OFFCURVE",
"511 699 OFFCURVE",
"572 696 CURVE",
"700 702 LINE",
"649 487 LINE",
"612 495 OFFCURVE",
"564 503 OFFCURVE",
"521 502 CURVE SMOOTH",
"478 501 OFFCURVE",
"442 491 OFFCURVE",
"429 464 CURVE SMOOTH",
"420 444 OFFCURVE",
"422 417 OFFCURVE",
"435 393 CURVE SMOOTH",
"447 369 OFFCURVE",
"470 349 OFFCURVE",
"502 344 CURVE",
"503 430 LINE",
"703 426 LINE",
"702 363 OFFCURVE",
"722 295 OFFCURVE",
"750 231 CURVE SMOOTH",
"778 167 OFFCURVE",
"814 109 OFFCURVE",
"845 63 CURVE SMOOTH",
"860 40 OFFCURVE",
"874 21 OFFCURVE",
"886 6 CURVE",
"897 -9 OFFCURVE",
"905 -19 OFFCURVE",
"909 -23 CURVE",
"160 2 LINE",
"176 86 LINE",
"209 101 LINE SMOOTH",
"218 105 OFFCURVE",
"228 109 OFFCURVE",
"238 114 CURVE",
"247 118 OFFCURVE",
"255 121 OFFCURVE",
"260 122 CURVE",
"245 135 OFFCURVE",
"227 152 OFFCURVE",
"206 171 CURVE SMOOTH",
"162 210 OFFCURVE",
"118 258 OFFCURVE",
"78 314 CURVE SMOOTH",
"38 369 OFFCURVE",
"13 428 OFFCURVE",
"12 490 CURVE SMOOTH",
"11 521 OFFCURVE",
"19 551 OFFCURVE",
"34 581 CURVE SMOOTH"
);
},
{
closed = 1;
nodes = (
"223 82 LINE",
"222 77 OFFCURVE",
"220 71 OFFCURVE",
"218 64 CURVE SMOOTH",
"212 42 LINE",
"215 41 OFFCURVE",
"226 41 OFFCURVE",
"245 40 CURVE SMOOTH",
"264 39 OFFCURVE",
"287 37 OFFCURVE",
"315 36 CURVE",
"343 34 OFFCURVE",
"375 32 OFFCURVE",
"410 31 CURVE SMOOTH",
"517 25 LINE SMOOTH",
"590 21 OFFCURVE",
"664 18 OFFCURVE",
"724 15 CURVE SMOOTH",
"799 12 LINE SMOOTH",
"819 11 OFFCURVE",
"832 10 OFFCURVE",
"839 9 CURVE",
"815 38 OFFCURVE",
"774 94 OFFCURVE",
"735 162 CURVE SMOOTH",
"695 230 OFFCURVE",
"660 310 OFFCURVE",
"649 387 CURVE",
"640 390 OFFCURVE",
"614 391 OFFCURVE",
"590 392 CURVE SMOOTH",
"532 394 LINE",
"523 314 LINE",
"479 318 OFFCURVE",
"436 338 OFFCURVE",
"409 369 CURVE SMOOTH",
"382 400 OFFCURVE",
"371 440 OFFCURVE",
"392 483 CURVE SMOOTH",
"411 519 OFFCURVE",
"458 530 OFFCURVE",
"506 531 CURVE SMOOTH",
"554 532 OFFCURVE",
"605 524 OFFCURVE",
"626 520 CURVE",
"629 528 OFFCURVE",
"633 559 OFFCURVE",
"638 591 CURVE SMOOTH",
"640 607 OFFCURVE",
"642 622 OFFCURVE",
"645 637 CURVE",
"647 651 OFFCURVE",
"648 661 OFFCURVE",
"649 666 CURVE",
"640 666 OFFCURVE",
"620 667 OFFCURVE",
"601 668 CURVE",
"590 669 OFFCURVE",
"579 669 OFFCURVE",
"568 670 CURVE SMOOTH",
"489 675 OFFCURVE",
"406 680 OFFCURVE",
"330 676 CURVE SMOOTH",
"253 671 OFFCURVE",
"183 658 OFFCURVE",
"132 627 CURVE SMOOTH",
"81 595 OFFCURVE",
"50 547 OFFCURVE",
"50 471 CURVE SMOOTH",
"50 403 OFFCURVE",
"94 332 OFFCURVE",
"147 269 CURVE SMOOTH",
"200 205 OFFCURVE",
"266 149 OFFCURVE",
"307 112 CURVE"
);
}
);
width = 875;
}
);
unicode = 0067;
},
{
glyphname = h;
layers = (
{
layerId = "7B23AAD7-CE87-48AA-B0FE-511DC5B49C39";
name = Regular;
paths = (
{
closed = 1;
nodes = (
"384 429 LINE",
"384 680 LINE",
"647 710 LINE",
"659 656 OFFCURVE",
"670 603 OFFCURVE",
"680 552 CURVE SMOOTH",
"700 449 OFFCURVE",
"719 364 OFFCURVE",
"737 305 CURVE SMOOTH",
"746 275 OFFCURVE",
"755 255 OFFCURVE",
"766 244 CURVE SMOOTH",
"779 231 OFFCURVE",
"798 229 OFFCURVE",
"815 233 CURVE",
"823 234 OFFCURVE",
"830 236 OFFCURVE",
"837 239 CURVE",
"843 242 OFFCURVE",
"847 243 OFFCURVE",
"848 244 CURVE",
"914 159 LINE",
"553 -67 LINE",
"550 -64 OFFCURVE",
"537 -53 OFFCURVE",
"512 -33 CURVE SMOOTH",
"487 -14 OFFCURVE",
"452 8 OFFCURVE",
"409 33 CURVE",
"405 266 LINE",
"338 252 LINE",
"351 63 LINE",
"223 130 OFFCURVE",
"101 181 OFFCURVE",
"5 204 CURVE",
"14 319 LINE",
"41 323 OFFCURVE",
"72 336 OFFCURVE",
"72 357 CURVE",
"71 390 OFFCURVE",
"59 447 OFFCURVE",
"44 506 CURVE SMOOTH",
"20 594 LINE SMOOTH",
"11 623 OFFCURVE",
"4 649 OFFCURVE",
"-2 671 CURVE",
"319 662 LINE",
"329 424 LINE"
);
},
{
closed = 1;
nodes = (
"623 674 OFFCURVE",
"616 673 OFFCURVE",
"605 672 CURVE",
"582 669 OFFCURVE",
"550 666 OFFCURVE",
"515 663 CURVE SMOOTH",
"480 659 OFFCURVE",
"448 656 OFFCURVE",
"426 653 CURVE",
"415 651 OFFCURVE",
"408 650 OFFCURVE",
"405 649 CURVE",
"407 599 LINE",
"408 586 OFFCURVE",
"408 573 OFFCURVE",
"409 558 CURVE",
"409 543 OFFCURVE",
"409 528 OFFCURVE",
"410 513 CURVE",
"411 478 OFFCURVE",
"413 440 OFFCURVE",
"414 398 CURVE",
"308 381 LINE",
"307 423 OFFCURVE",
"305 461 OFFCURVE",
"303 496 CURVE SMOOTH",
"302 525 OFFCURVE",
"300 557 OFFCURVE",
"300 582 CURVE",
"299 594 OFFCURVE",
"299 605 OFFCURVE",
"299 614 CURVE",
"298 623 OFFCURVE",
"298 629 OFFCURVE",
"298 632 CURVE",
"41 632 LINE",
"49 603 OFFCURVE",
"61 553 OFFCURVE",
"72 501 CURVE SMOOTH",
"83 449 OFFCURVE",
"92 396 OFFCURVE",
"93 357 CURVE SMOOTH",
"93 336 OFFCURVE",
"84 321 OFFCURVE",
"73 311 CURVE",
"61 301 OFFCURVE",
"49 294 OFFCURVE",
"41 291 CURVE",
"41 231 LINE",
"120 207 OFFCURVE",
"212 173 OFFCURVE",
"317 116 CURVE",
"317 174 LINE SMOOTH",
"317 193 OFFCURVE",
"317 211 OFFCURVE",
"316 226 CURVE SMOOTH",
"315 244 OFFCURVE",
"315 262 OFFCURVE",
"314 279 CURVE",
"429 306 LINE",
"441 50 LINE",
"532 -12 LINE",
"556 -30 LINE",
"557 -29 OFFCURVE",
"563 -26 OFFCURVE",
"572 -19 CURVE",
"590 -7 OFFCURVE",
"618 11 OFFCURVE",
"654 34 CURVE SMOOTH",
"671 45 OFFCURVE",
"689 57 OFFCURVE",
"707 68 CURVE SMOOTH",
"852 159 LINE",
"836 204 LINE",
"808 192 OFFCURVE",
"787 187 OFFCURVE",
"764 191 CURVE SMOOTH",
"741 195 OFFCURVE",
"730 218 OFFCURVE",
"716 257 CURVE SMOOTH",
"702 296 OFFCURVE",
"688 345 OFFCURVE",
"677 398 CURVE SMOOTH",
"671 425 OFFCURVE",
"665 451 OFFCURVE",
"660 477 CURVE SMOOTH",
"648 538 OFFCURVE",
"637 604 OFFCURVE",
"626 675 CURVE"
);
}
);
width = 885;
}
);
unicode = 0068;
},
{
glyphname = i;
layers = (
{
layerId = "7B23AAD7-CE87-48AA-B0FE-511DC5B49C39";
name = Regular;
paths = (
{
closed = 1;
nodes = (
"236 689 OFFCURVE",
"263 707 OFFCURVE",
"300 714 CURVE SMOOTH",
"336 721 OFFCURVE",
"384 717 OFFCURVE",
"432 701 CURVE SMOOTH",
"507 676 OFFCURVE",
"551 636 OFFCURVE",
"568 600 CURVE SMOOTH",
"584 563 OFFCURVE",
"575 528 OFFCURVE",
"541 508 CURVE SMOOTH",
"507 488 OFFCURVE",
"448 484 OFFCURVE",
"369 509 CURVE SMOOTH",
"322 525 OFFCURVE",
"282 549 OFFCURVE",
"257 577 CURVE SMOOTH",
"232 604 OFFCURVE",
"220 634 OFFCURVE",
"228 662 CURVE SMOOTH"
);
},
{
closed = 1;
nodes = (
"410 519 OFFCURVE",
"444 513 OFFCURVE",
"471 516 CURVE SMOOTH",
"498 519 OFFCURVE",
"517 529 OFFCURVE",
"522 545 CURVE",
"526 556 OFFCURVE",
"526 568 OFFCURVE",
"522 579 CURVE SMOOTH",
"510 615 OFFCURVE",
"475 650 OFFCURVE",
"427 673 CURVE SMOOTH",
"390 692 OFFCURVE",
"356 697 OFFCURVE",
"329 694 CURVE SMOOTH",
"302 691 OFFCURVE",
"285 681 OFFCURVE",
"278 666 CURVE",
"267 630 OFFCURVE",
"301 572 OFFCURVE",
"373 536 CURVE SMOOTH"
);
},
{
closed = 1;
nodes = (
"98 599 LINE",
"561 380 LINE",
"552 353 OFFCURVE",
"545 310 OFFCURVE",
"542 266 CURVE SMOOTH",
"538 221 OFFCURVE",
"540 175 OFFCURVE",
"545 143 CURVE",
"549 142 OFFCURVE",
"557 139 OFFCURVE",
"570 136 CURVE",
"583 132 OFFCURVE",
"596 128 OFFCURVE",
"610 123 CURVE",
"627 118 OFFCURVE",
"644 112 OFFCURVE",
"663 106 CURVE",
"687 -15 LINE",
"129 -15 LINE",
"113 5 OFFCURVE",
"95 44 OFFCURVE",
"83 93 CURVE SMOOTH",
"70 141 OFFCURVE",
"60 199 OFFCURVE",
"57 256 CURVE SMOOTH",
"54 312 OFFCURVE",
"59 368 OFFCURVE",
"74 412 CURVE",
"71 419 OFFCURVE",
"53 435 OFFCURVE",
"36 451 CURVE SMOOTH",
"26 460 OFFCURVE",
"15 471 OFFCURVE",
"4 482 CURVE"
);
},
{
closed = 1;
nodes = (
"110 563 LINE",
"106 555 OFFCURVE",
"96 539 OFFCURVE",
"85 521 CURVE",
"73 503 OFFCURVE",
"63 486 OFFCURVE",
"59 478 CURVE",
"63 474 OFFCURVE",
"75 461 OFFCURVE",
"86 446 CURVE",
"93 438 OFFCURVE",
"99 429 OFFCURVE",
"106 419 CURVE",
"89 379 OFFCURVE",
"86 325 OFFCURVE",
"93 269 CURVE SMOOTH",
"100 212 OFFCURVE",
"115 155 OFFCURVE",
"131 108 CURVE SMOOTH",
"146 60 OFFCURVE",
"161 25 OFFCURVE",
"169 13 CURVE",
"636 13 LINE",
"636 88 LINE",
"628 91 OFFCURVE",
"596 98 OFFCURVE",
"565 105 CURVE SMOOTH",
"506 119 LINE",
"498 167 OFFCURVE",
"496 207 OFFCURVE",
"500 247 CURVE SMOOTH",
"504 286 OFFCURVE",
"513 324 OFFCURVE",
"529 369 CURVE",
"526 370 OFFCURVE",
"514 376 OFFCURVE",
"493 386 CURVE",
"472 395 OFFCURVE",
"446 407 OFFCURVE",
"416 421 CURVE SMOOTH",
"320 466 LINE",
"223 511 LINE",
"147 547 LINE"
);
}
);
width = 687;
}
);
unicode = 0069;
},
{
glyphname = j;
layers = (
{
layerId = "7B23AAD7-CE87-48AA-B0FE-511DC5B49C39";
name = Regular;
paths = (
{
closed = 1;
nodes = (
"38 664 LINE",
"601 721 LINE",
"601 720 OFFCURVE",
"603 712 OFFCURVE",
"608 697 CURVE",
"616 666 OFFCURVE",
"627 615 OFFCURVE",
"638 551 CURVE SMOOTH",
"649 486 OFFCURVE",
"654 417 OFFCURVE",
"649 350 CURVE SMOOTH",
"646 317 OFFCURVE",
"640 286 OFFCURVE",
"630 258 CURVE",
"684 233 LINE",
"675 202 LINE",
"663 166 OFFCURVE",
"639 119 OFFCURVE",
"598 72 CURVE SMOOTH",
"557 25 OFFCURVE",
"503 3 OFFCURVE",
"447 -7 CURVE SMOOTH",
"390 -17 OFFCURVE",
"324 -19 OFFCURVE",
"256 -12 CURVE SMOOTH",
"187 -5 OFFCURVE",
"121 7 OFFCURVE",
"64 27 CURVE SMOOTH",
"35 37 OFFCURVE",
"10 48 OFFCURVE",
"-11 60 CURVE",
"10 97 OFFCURVE",
"36 156 OFFCURVE",
"56 216 CURVE SMOOTH",
"75 276 OFFCURVE",
"89 338 OFFCURVE",
"85 378 CURVE",
"199 391 LINE",
"192 340 OFFCURVE",
"187 300 OFFCURVE",
"183 264 CURVE SMOOTH",
"177 222 LINE",
"192 234 OFFCURVE",
"210 255 OFFCURVE",
"226 287 CURVE SMOOTH",
"241 319 OFFCURVE",
"252 363 OFFCURVE",
"252 420 CURVE SMOOTH",
"252 492 OFFCURVE",
"219 534 OFFCURVE",
"176 559 CURVE SMOOTH",
"133 583 OFFCURVE",
"84 592 OFFCURVE",
"49 597 CURVE"
);
},
{
closed = 1;
nodes = (
"520 687 LINE",
"435 680 LINE SMOOTH",
"401 677 OFFCURVE",
"365 675 OFFCURVE",
"326 672 CURVE SMOOTH",
"217 663 LINE SMOOTH",
"183 660 OFFCURVE",
"154 658 OFFCURVE",
"130 657 CURVE SMOOTH",
"89 654 LINE",
"96 618 LINE",
"121 615 OFFCURVE",
"166 606 OFFCURVE",
"204 577 CURVE SMOOTH",
"242 548 OFFCURVE",
"274 500 OFFCURVE",
"274 417 CURVE SMOOTH",
"274 332 OFFCURVE",
"249 274 OFFCURVE",
"222 236 CURVE SMOOTH",
"208 217 OFFCURVE",
"195 202 OFFCURVE",
"182 192 CURVE SMOOTH",
"169 182 OFFCURVE",
"161 176 OFFCURVE",
"156 173 CURVE",
"159 206 OFFCURVE",
"162 237 OFFCURVE",
"165 264 CURVE SMOOTH",
"166 276 OFFCURVE",
"168 288 OFFCURVE",
"169 300 CURVE SMOOTH",
"170 311 OFFCURVE",
"172 322 OFFCURVE",
"173 332 CURVE SMOOTH",
"176 357 LINE SMOOTH",
"177 364 OFFCURVE",
"177 368 OFFCURVE",
"177 371 CURVE",
"102 360 LINE",
"113 280 OFFCURVE",
"84 176 OFFCURVE",
"35 63 CURVE",
"87 38 OFFCURVE",
"176 18 OFFCURVE",
"265 12 CURVE SMOOTH",
"354 6 OFFCURVE",
"446 13 OFFCURVE",
"503 38 CURVE",
"554 63 OFFCURVE",
"587 100 OFFCURVE",
"609 133 CURVE SMOOTH",
"631 166 OFFCURVE",
"641 198 OFFCURVE",
"645 211 CURVE",
"591 238 LINE",
"619 275 OFFCURVE",
"627 334 OFFCURVE",
"625 396 CURVE SMOOTH",
"623 458 OFFCURVE",
"610 523 OFFCURVE",
"596 578 CURVE SMOOTH",
"582 633 OFFCURVE",
"566 674 OFFCURVE",
"558 689 CURVE"
);
}
);
width = 690;
}
);
unicode = 006A;
},
{
glyphname = k;
layers = (
{
layerId = "7B23AAD7-CE87-48AA-B0FE-511DC5B49C39";
name = Regular;
paths = (
{
closed = 1;
nodes = (
"113 613 LINE",
"154 691 LINE",
"202 655 OFFCURVE",
"260 642 OFFCURVE",
"308 637 CURVE SMOOTH",
"332 634 OFFCURVE",
"353 634 OFFCURVE",
"371 635 CURVE SMOOTH",
"388 636 OFFCURVE",
"399 636 OFFCURVE",
"403 636 CURVE",
"399 611 OFFCURVE",
"396 583 OFFCURVE",
"396 557 CURVE SMOOTH",
"396 531 OFFCURVE",
"398 508 OFFCURVE",
"399 493 CURVE",
"415 517 OFFCURVE",
"433 540 OFFCURVE",
"450 560 CURVE SMOOTH",
"458 569 OFFCURVE",
"465 578 OFFCURVE",
"472 585 CURVE",
"478 592 OFFCURVE",
"482 598 OFFCURVE",
"485 602 CURVE",
"485 656 LINE",
"567 692 LINE",
"689 543 LINE",
"668 524 OFFCURVE",
"643 499 OFFCURVE",
"624 476 CURVE SMOOTH",
"604 453 OFFCURVE",
"588 432 OFFCURVE",
"583 420 CURVE",
"622 376 OFFCURVE",
"668 369 OFFCURVE",
"708 377 CURVE SMOOTH",
"748 384 OFFCURVE",
"781 404 OFFCURVE",
"792 412 CURVE",
"793 414 OFFCURVE",
"795 419 OFFCURVE",
"797 427 CURVE",
"798 435 OFFCURVE",
"800 443 OFFCURVE",
"802 452 CURVE",
"805 462 OFFCURVE",
"807 473 OFFCURVE",
"809 485 CURVE",
"904 478 LINE",
"915 411 OFFCURVE",
"919 335 OFFCURVE",
"924 258 CURVE SMOOTH",
"928 181 OFFCURVE",
"933 101 OFFCURVE",
"945 28 CURVE",
"786 -8 OFFCURVE",
"693 -20 OFFCURVE",
"638 -22 CURVE SMOOTH",
"610 -23 OFFCURVE",
"591 -22 OFFCURVE",
"580 -19 CURVE SMOOTH",
"569 -16 OFFCURVE",
"561 -13 OFFCURVE",
"558 -10 CURVE",
"543 2 OFFCURVE",
"513 40 OFFCURVE",
"481 84 CURVE SMOOTH",
"465 106 OFFCURVE",
"449 128 OFFCURVE",
"433 151 CURVE SMOOTH",
"392 207 LINE",
"392 -33 LINE",
"289 -14 OFFCURVE",
"218 32 OFFCURVE",
"157 75 CURVE",
"113 110 OFFCURVE",
"56 133 OFFCURVE",
"-3 149 CURVE",
"55 265 LINE",
"64 264 OFFCURVE",
"73 264 OFFCURVE",
"81 263 CURVE",
"96 262 OFFCURVE",
"111 261 OFFCURVE",
"119 261 CURVE",
"119 320 OFFCURVE",
"127 387 OFFCURVE",
"136 446 CURVE SMOOTH",
"145 505 OFFCURVE",
"155 554 OFFCURVE",
"160 571 CURVE",
"155 575 OFFCURVE",
"144 584 OFFCURVE",
"133 595 CURVE"
);
},
{
closed = 1;
nodes = (
"160 640 OFFCURVE",
"154 625 OFFCURVE",
"150 617 CURVE",
"184 578 LINE",
"181 560 LINE",
"176 538 OFFCURVE",
"170 501 OFFCURVE",
"163 455 CURVE SMOOTH",
"156 409 OFFCURVE",
"150 357 OFFCURVE",
"146 305 CURVE SMOOTH",
"144 279 OFFCURVE",
"143 254 OFFCURVE",
"143 230 CURVE",
"132 231 OFFCURVE",
"121 233 OFFCURVE",
"111 234 CURVE",
"94 237 OFFCURVE",
"75 238 OFFCURVE",
"68 238 CURVE",
"41 172 LINE",
"85 160 OFFCURVE",
"126 129 OFFCURVE",
"171 98 CURVE SMOOTH",
"230 59 OFFCURVE",
"289 17 OFFCURVE",
"369 1 CURVE",
"369 300 LINE",
"389 269 LINE",
"400 254 OFFCURVE",
"414 236 OFFCURVE",
"431 214 CURVE SMOOTH",
"464 170 OFFCURVE",
"501 125 OFFCURVE",
"531 89 CURVE SMOOTH",
"546 71 OFFCURVE",
"557 59 OFFCURVE",
"565 52 CURVE",
"568 51 OFFCURVE",
"574 48 OFFCURVE",
"585 42 CURVE SMOOTH",
"596 36 OFFCURVE",
"614 31 OFFCURVE",
"639 28 CURVE",
"689 20 OFFCURVE",
"769 21 OFFCURVE",
"901 52 CURVE",
"899 79 OFFCURVE",
"898 109 OFFCURVE",
"898 141 CURVE",
"897 172 OFFCURVE",
"896 205 OFFCURVE",
"894 238 CURVE SMOOTH",
"891 278 OFFCURVE",
"890 317 OFFCURVE",
"891 354 CURVE SMOOTH",
"892 391 OFFCURVE",
"889 423 OFFCURVE",
"884 451 CURVE",
"873 454 OFFCURVE",
"839 458 OFFCURVE",
"826 458 CURVE",
"823 451 OFFCURVE",
"822 431 OFFCURVE",
"821 412 CURVE",
"820 401 OFFCURVE",
"820 390 OFFCURVE",
"819 377 CURVE",
"818 376 OFFCURVE",
"814 374 OFFCURVE",
"805 370 CURVE",
"787 361 OFFCURVE",
"756 350 OFFCURVE",
"719 346 CURVE SMOOTH",
"682 341 OFFCURVE",
"641 346 OFFCURVE",
"602 367 CURVE SMOOTH",
"582 378 OFFCURVE",
"563 394 OFFCURVE",
"546 416 CURVE",
"558 435 LINE",
"569 454 OFFCURVE",
"585 480 OFFCURVE",
"605 507 CURVE SMOOTH",
"615 520 OFFCURVE",
"625 532 OFFCURVE",
"635 543 CURVE",
"627 551 OFFCURVE",
"607 575 OFFCURVE",
"588 597 CURVE SMOOTH",
"562 628 LINE SMOOTH",
"554 638 OFFCURVE",
"549 644 OFFCURVE",
"546 647 CURVE",
"510 636 LINE",
"508 590 LINE",
"493 569 OFFCURVE",
"478 547 OFFCURVE",
"463 525 CURVE SMOOTH",
"450 506 OFFCURVE",
"436 487 OFFCURVE",
"421 466 CURVE SMOOTH",
"406 445 OFFCURVE",
"392 425 OFFCURVE",
"379 408 CURVE",
"378 419 OFFCURVE",
"376 433 OFFCURVE",
"374 450 CURVE SMOOTH",
"370 483 OFFCURVE",
"368 520 OFFCURVE",
"368 556 CURVE SMOOTH",
"368 574 OFFCURVE",
"369 590 OFFCURVE",
"372 605 CURVE",
"353 605 OFFCURVE",
"320 605 OFFCURVE",
"282 611 CURVE SMOOTH",
"244 617 OFFCURVE",
"201 628 OFFCURVE",
"164 652 CURVE"
);
}
);
width = 952;
}
);
unicode = 006B;
},
{
glyphname = l;
layers = (
{
layerId = "7B23AAD7-CE87-48AA-B0FE-511DC5B49C39";
name = Regular;
paths = (
{
closed = 1;
nodes = (
"39 487 LINE",
"-17 509 LINE",
"47 656 LINE",
"68 648 OFFCURVE",
"112 648 OFFCURVE",
"165 653 CURVE SMOOTH",
"217 657 OFFCURVE",
"277 667 OFFCURVE",
"332 679 CURVE SMOOTH",
"387 690 OFFCURVE",
"434 703 OFFCURVE",
"462 715 CURVE",
"498 636 OFFCURVE",
"496 557 OFFCURVE",
"495 481 CURVE SMOOTH",
"494 404 OFFCURVE",
"491 331 OFFCURVE",
"526 260 CURVE",
"519 297 OFFCURVE",
"518 342 OFFCURVE",
"521 378 CURVE SMOOTH",
"522 396 OFFCURVE",
"524 412 OFFCURVE",
"527 425 CURVE SMOOTH",
"530 438 OFFCURVE",
"532 446 OFFCURVE",
"534 449 CURVE",
"655 461 LINE",
"668 417 OFFCURVE",
"699 361 OFFCURVE",
"735 306 CURVE SMOOTH",
"770 250 OFFCURVE",
"808 195 OFFCURVE",
"840 153 CURVE SMOOTH",
"855 132 OFFCURVE",
"868 114 OFFCURVE",
"879 101 CURVE",
"889 88 OFFCURVE",
"895 80 OFFCURVE",
"896 78 CURVE",
"827 -38 LINE",
"776 -9 OFFCURVE",
"715 7 OFFCURVE",
"651 14 CURVE SMOOTH",
"586 21 OFFCURVE",
"517 18 OFFCURVE",
"453 11 CURVE SMOOTH",
"382 4 OFFCURVE",
"306 -2 OFFCURVE",
"230 3 CURVE SMOOTH",
"154 7 OFFCURVE",
"78 22 OFFCURVE",
"10 61 CURVE",
"67 173 LINE",
"104 188 OFFCURVE",
"126 220 OFFCURVE",
"135 257 CURVE SMOOTH",
"144 294 OFFCURVE",
"142 338 OFFCURVE",
"134 376 CURVE SMOOTH",
"126 414 OFFCURVE",
"113 447 OFFCURVE",
"100 463 CURVE",
"79 472 LINE"
);
},
{
closed = 1;
nodes = (
"384 644 OFFCURVE",
"313 623 OFFCURVE",
"245 610 CURVE SMOOTH",
"177 597 OFFCURVE",
"109 593 OFFCURVE",
"65 613 CURVE",
"63 607 OFFCURVE",
"61 600 OFFCURVE",
"58 592 CURVE",
"53 575 OFFCURVE",
"47 556 OFFCURVE",
"41 540 CURVE SMOOTH",
"38 532 OFFCURVE",
"35 526 OFFCURVE",
"34 522 CURVE",
"43 518 OFFCURVE",
"69 511 OFFCURVE",
"93 504 CURVE SMOOTH",
"139 491 LINE",
"152 476 OFFCURVE",
"169 442 OFFCURVE",
"179 401 CURVE SMOOTH",
"189 360 OFFCURVE",
"192 310 OFFCURVE",
"183 265 CURVE SMOOTH",
"174 220 OFFCURVE",
"151 178 OFFCURVE",
"106 153 CURVE",
"105 152 OFFCURVE",
"103 149 OFFCURVE",
"100 142 CURVE SMOOTH",
"97 135 OFFCURVE",
"93 128 OFFCURVE",
"89 120 CURVE",
"84 111 OFFCURVE",
"80 103 OFFCURVE",
"76 94 CURVE",
"71 85 OFFCURVE",
"68 78 OFFCURVE",
"65 73 CURVE",
"121 45 OFFCURVE",
"185 34 OFFCURVE",
"250 32 CURVE SMOOTH",
"315 30 OFFCURVE",
"384 35 OFFCURVE",
"451 42 CURVE SMOOTH",
"515 47 OFFCURVE",
"578 53 OFFCURVE",
"636 51 CURVE SMOOTH",
"694 49 OFFCURVE",
"747 38 OFFCURVE",
"794 13 CURVE",
"797 17 OFFCURVE",
"800 23 OFFCURVE",
"804 30 CURVE SMOOTH",
"812 45 OFFCURVE",
"821 60 OFFCURVE",
"829 73 CURVE SMOOTH",
"838 88 LINE",
"827 100 OFFCURVE",
"804 130 OFFCURVE",
"777 167 CURVE SMOOTH",
"750 203 OFFCURVE",
"719 248 OFFCURVE",
"691 294 CURVE SMOOTH",
"663 340 OFFCURVE",
"638 384 OFFCURVE",
"625 423 CURVE",
"611 423 LINE",
"592 423 LINE SMOOTH",
"579 423 OFFCURVE",
"566 422 OFFCURVE",
"558 421 CURVE",
"549 362 OFFCURVE",
"545 273 OFFCURVE",
"582 150 CURVE",
"517 206 OFFCURVE",
"487 264 OFFCURVE",
"475 322 CURVE SMOOTH",
"462 380 OFFCURVE",
"464 439 OFFCURVE",
"464 496 CURVE SMOOTH",
"464 552 OFFCURVE",
"460 608 OFFCURVE",
"433 660 CURVE"
);
}
);
width = 862;
}
);
unicode = 006C;
},
{
glyphname = m;
layers = (
{
layerId = "7B23AAD7-CE87-48AA-B0FE-511DC5B49C39";
name = Regular;
paths = (
{
closed = 1;
nodes = (
"995 725 LINE",
"995 560 LINE",
"991 561 OFFCURVE",
"985 564 OFFCURVE",
"978 567 CURVE",
"962 573 OFFCURVE",
"942 577 OFFCURVE",
"922 581 CURVE SMOOTH",
"911 583 OFFCURVE",
"901 584 OFFCURVE",
"891 583 CURVE",
"895 550 OFFCURVE",
"921 483 OFFCURVE",
"961 408 CURVE SMOOTH",
"1001 332 OFFCURVE",
"1056 249 OFFCURVE",
"1120 184 CURVE",
"1059 168 OFFCURVE",
"976 134 OFFCURVE",
"894 95 CURVE SMOOTH",
"812 55 OFFCURVE",
"732 14 OFFCURVE",
"677 -17 CURVE",
"622 113 LINE",
"650 143 LINE SMOOTH",
"665 158 OFFCURVE",
"679 175 OFFCURVE",
"682 179 CURVE",
"682 182 OFFCURVE",
"681 189 OFFCURVE",
"678 202 CURVE SMOOTH",
"675 214 OFFCURVE",
"672 228 OFFCURVE",
"669 244 CURVE",
"661 276 OFFCURVE",
"653 314 OFFCURVE",
"649 338 CURVE",
"646 331 OFFCURVE",
"643 323 OFFCURVE",
"638 312 CURVE SMOOTH",
"633 301 OFFCURVE",
"627 290 OFFCURVE",
"621 277 CURVE SMOOTH",
"582 193 LINE SMOOTH",
"567 160 OFFCURVE",
"550 125 OFFCURVE",
"533 88 CURVE",
"446 112 LINE",
"447 137 OFFCURVE",
"447 160 OFFCURVE",
"448 183 CURVE SMOOTH",
"449 222 OFFCURVE",
"451 269 OFFCURVE",
"451 298 CURVE",
"444 286 OFFCURVE",
"437 273 OFFCURVE",
"429 260 CURVE SMOOTH",
"412 233 OFFCURVE",
"397 206 OFFCURVE",
"388 183 CURVE SMOOTH",
"383 171 OFFCURVE",
"381 161 OFFCURVE",
"381 152 CURVE SMOOTH",
"381 132 OFFCURVE",
"396 117 OFFCURVE",
"413 106 CURVE SMOOTH",
"429 95 OFFCURVE",
"449 89 OFFCURVE",
"457 86 CURVE",
"387 -46 LINE",
"384 -44 OFFCURVE",
"376 -37 OFFCURVE",
"363 -24 CURVE",
"335 1 OFFCURVE",
"290 39 OFFCURVE",
"237 84 CURVE SMOOTH",
"184 128 OFFCURVE",
"127 171 OFFCURVE",
"73 207 CURVE SMOOTH",
"46 225 OFFCURVE",
"21 239 OFFCURVE",
"-1 248 CURVE",
"5 251 OFFCURVE",
"20 261 OFFCURVE",
"44 277 CURVE SMOOTH",
"91 308 OFFCURVE",
"152 359 OFFCURVE",
"208 427 CURVE SMOOTH",
"235 461 OFFCURVE",
"256 498 OFFCURVE",
"270 539 CURVE",
"263 544 OFFCURVE",
"246 551 OFFCURVE",
"230 558 CURVE SMOOTH",
"221 562 OFFCURVE",
"210 566 OFFCURVE",
"199 571 CURVE",
"211 641 LINE",
"213 642 OFFCURVE",
"221 643 OFFCURVE",
"234 645 CURVE SMOOTH",
"261 649 OFFCURVE",
"301 657 OFFCURVE",
"350 666 CURVE SMOOTH",
"398 675 OFFCURVE",
"447 686 OFFCURVE",
"491 696 CURVE SMOOTH",
"512 701 OFFCURVE",
"530 705 OFFCURVE",
"545 710 CURVE",
"548 646 OFFCURVE",
"551 593 OFFCURVE",
"556 538 CURVE SMOOTH",
"558 511 OFFCURVE",
"560 488 OFFCURVE",
"562 470 CURVE",
"580 521 LINE SMOOTH",
"592 557 OFFCURVE",
"606 594 OFFCURVE",
"619 629 CURVE SMOOTH",
"625 646 OFFCURVE",
"631 661 OFFCURVE",
"636 673 CURVE"
);
},
{
closed = 1;
nodes = (
"967 692 LINE",
"963 691 OFFCURVE",
"953 690 OFFCURVE",
"936 688 CURVE",
"919 685 OFFCURVE",
"900 682 OFFCURVE",
"878 679 CURVE SMOOTH",
"855 676 OFFCURVE",
"832 672 OFFCURVE",
"807 669 CURVE SMOOTH",
"782 666 OFFCURVE",
"758 662 OFFCURVE",
"736 659 CURVE SMOOTH",
"681 651 LINE SMOOTH",
"666 649 OFFCURVE",
"657 648 OFFCURVE",
"654 647 CURVE",
"646 631 OFFCURVE",
"636 604 OFFCURVE",
"625 573 CURVE SMOOTH",
"613 541 OFFCURVE",
"601 506 OFFCURVE",
"590 473 CURVE SMOOTH",
"577 434 OFFCURVE",
"564 393 OFFCURVE",
"550 350 CURVE",
"534 494 LINE",
"523 600 LINE SMOOTH",
"521 615 OFFCURVE",
"519 627 OFFCURVE",
"518 638 CURVE SMOOTH",
"517 649 OFFCURVE",
"516 656 OFFCURVE",
"515 659 CURVE",
"478 648 OFFCURVE",
"420 639 OFFCURVE",
"367 631 CURVE SMOOTH",
"294 621 LINE",
"246 615 LINE",
"245 610 OFFCURVE",
"244 606 OFFCURVE",
"244 602 CURVE",
"241 588 LINE",
"277 568 LINE",
"285 563 OFFCURVE",
"294 559 OFFCURVE",
"303 554 CURVE",
"279 474 OFFCURVE",
"235 408 OFFCURVE",
"191 357 CURVE SMOOTH",
"146 305 OFFCURVE",
"100 269 OFFCURVE",
"75 249 CURVE",
"126 222 OFFCURVE",
"192 173 OFFCURVE",
"250 125 CURVE SMOOTH",
"279 101 OFFCURVE",
"305 78 OFFCURVE",
"329 57 CURVE SMOOTH",
"381 10 LINE",
"392 27 OFFCURVE",
"408 54 OFFCURVE",
"416 71 CURVE",
"405 76 OFFCURVE",
"390 86 OFFCURVE",
"378 99 CURVE",
"365 112 OFFCURVE",
"355 129 OFFCURVE",
"355 150 CURVE SMOOTH",
"355 170 OFFCURVE",
"366 200 OFFCURVE",
"382 235 CURVE SMOOTH",
"398 270 OFFCURVE",
"418 308 OFFCURVE",
"438 341 CURVE SMOOTH",
"457 374 OFFCURVE",
"475 403 OFFCURVE",
"484 418 CURVE",
"475 150 LINE",
"523 130 LINE",
"657 437 LINE",
"711 170 LINE",
"692 150 OFFCURVE",
"679 135 OFFCURVE",
"667 122 CURVE",
"661 115 OFFCURVE",
"657 111 OFFCURVE",
"654 108 CURVE",
"655 105 OFFCURVE",
"658 100 OFFCURVE",
"661 93 CURVE SMOOTH",
"670 72 LINE",
"673 64 OFFCURVE",
"677 57 OFFCURVE",
"680 50 CURVE SMOOTH",
"683 43 OFFCURVE",
"686 37 OFFCURVE",
"687 33 CURVE",
"746 64 OFFCURVE",
"812 99 OFFCURVE",
"876 129 CURVE SMOOTH",
"939 159 OFFCURVE",
"999 185 OFFCURVE",
"1046 198 CURVE",
"990 261 OFFCURVE",
"945 346 OFFCURVE",
"913 423 CURVE SMOOTH",
"881 500 OFFCURVE",
"864 571 OFFCURVE",
"864 607 CURVE",
"908 615 OFFCURVE",
"947 606 OFFCURVE",
"967 598 CURVE"
);
}
);
width = 1074;
}
);
unicode = 006D;
},
{
glyphname = n;
layers = (
{
layerId = "7B23AAD7-CE87-48AA-B0FE-511DC5B49C39";
name = Regular;
paths = (
{
closed = 1;
nodes = (
"139 -20 LINE",
"-7 563 LINE",
"164 616 LINE SMOOTH",
"211 631 OFFCURVE",
"261 647 OFFCURVE",
"306 663 CURVE SMOOTH",
"351 679 OFFCURVE",
"392 695 OFFCURVE",
"420 707 CURVE",
"477 444 LINE",
"477 675 LINE",
"506 677 LINE SMOOTH",
"537 680 OFFCURVE",
"583 682 OFFCURVE",
"638 682 CURVE SMOOTH",
"693 681 OFFCURVE",
"750 678 OFFCURVE",
"802 668 CURVE SMOOTH",
"828 663 OFFCURVE",
"851 655 OFFCURVE",
"870 646 CURVE",
"855 559 LINE",
"840 548 OFFCURVE",
"829 540 OFFCURVE",
"818 533 CURVE",
"812 530 OFFCURVE",
"808 527 OFFCURVE",
"805 526 CURVE",
"803 505 LINE",
"791 407 LINE SMOOTH",
"788 388 OFFCURVE",
"786 370 OFFCURVE",
"784 353 CURVE SMOOTH",
"782 336 OFFCURVE",
"780 321 OFFCURVE",
"779 309 CURVE",
"777 296 OFFCURVE",
"776 289 OFFCURVE",
"775 286 CURVE",
"778 285 OFFCURVE",
"782 282 OFFCURVE",
"788 278 CURVE SMOOTH",
"800 270 OFFCURVE",
"814 262 OFFCURVE",
"831 251 CURVE",
"829 232 OFFCURVE",
"828 214 OFFCURVE",
"828 195 CURVE SMOOTH",
"828 157 OFFCURVE",
"833 117 OFFCURVE",
"848 70 CURVE SMOOTH",
"855 46 OFFCURVE",
"866 20 OFFCURVE",
"879 -8 CURVE",
"872 -7 OFFCURVE",
"859 -5 OFFCURVE",
"839 -3 CURVE SMOOTH",
"798 1 OFFCURVE",
"740 4 OFFCURVE",
"672 7 CURVE SMOOTH",
"604 10 OFFCURVE",
"535 9 OFFCURVE",
"472 6 CURVE SMOOTH",
"440 4 OFFCURVE",
"412 1 OFFCURVE",
"389 -4 CURVE",
"382 43 OFFCURVE",
"376 82 OFFCURVE",
"368 126 CURVE SMOOTH",
"364 147 OFFCURVE",
"360 167 OFFCURVE",
"355 184 CURVE",
"350 137 OFFCURVE",
"343 75 OFFCURVE",
"343 -1 CURVE"
);
},
{
closed = 1;
nodes = (
"307 608 OFFCURVE",
"247 587 OFFCURVE",
"188 570 CURVE SMOOTH",
"128 553 OFFCURVE",
"71 540 OFFCURVE",
"30 536 CURVE",
"31 531 OFFCURVE",
"36 515 OFFCURVE",
"43 488 CURVE SMOOTH",
"58 434 OFFCURVE",
"79 356 OFFCURVE",
"103 270 CURVE SMOOTH",
"115 227 OFFCURVE",
"126 186 OFFCURVE",
"137 149 CURVE SMOOTH",
"148 112 OFFCURVE",
"157 80 OFFCURVE",
"164 55 CURVE SMOOTH",
"176 11 LINE",
"181 12 OFFCURVE",
"190 13 OFFCURVE",
"203 14 CURVE SMOOTH",
"216 15 OFFCURVE",
"230 16 OFFCURVE",
"245 18 CURVE",
"260 19 OFFCURVE",
"274 21 OFFCURVE",
"287 22 CURVE SMOOTH",
"300 23 OFFCURVE",
"310 23 OFFCURVE",
"315 24 CURVE",
"316 80 OFFCURVE",
"324 147 OFFCURVE",
"333 202 CURVE SMOOTH",
"337 229 OFFCURVE",
"341 252 OFFCURVE",
"344 271 CURVE SMOOTH",
"347 290 OFFCURVE",
"349 299 OFFCURVE",
"350 300 CURVE",
"363 253 OFFCURVE",
"376 210 OFFCURVE",
"387 172 CURVE SMOOTH",
"396 140 OFFCURVE",
"406 107 OFFCURVE",
"414 80 CURVE",
"417 67 OFFCURVE",
"420 55 OFFCURVE",
"423 46 CURVE SMOOTH",
"426 37 OFFCURVE",
"427 30 OFFCURVE",
"428 27 CURVE",
"485 36 OFFCURVE",
"565 37 OFFCURVE",
"641 36 CURVE SMOOTH",
"716 35 OFFCURVE",
"785 30 OFFCURVE",
"820 27 CURVE",
"803 72 OFFCURVE",
"793 110 OFFCURVE",
"789 144 CURVE",
"786 161 OFFCURVE",
"785 177 OFFCURVE",
"785 193 CURVE SMOOTH",
"785 209 OFFCURVE",
"786 225 OFFCURVE",
"787 242 CURVE",
"785 243 OFFCURVE",
"781 247 OFFCURVE",
"775 252 CURVE",
"727 288 LINE",
"780 540 LINE",
"787 545 OFFCURVE",
"793 550 OFFCURVE",
"800 554 CURVE SMOOTH",
"805 557 OFFCURVE",
"811 561 OFFCURVE",
"816 565 CURVE SMOOTH",
"821 569 OFFCURVE",
"825 572 OFFCURVE",
"827 573 CURVE",
"827 629 LINE",
"782 648 OFFCURVE",
"714 655 OFFCURVE",
"651 656 CURVE SMOOTH",
"587 656 OFFCURVE",
"530 653 OFFCURVE",
"505 649 CURVE",
"505 627 LINE",
"505 580 LINE",
"504 561 OFFCURVE",
"504 540 OFFCURVE",
"504 517 CURVE",
"503 494 OFFCURVE",
"503 470 OFFCURVE",
"502 446 CURVE SMOOTH",
"501 390 OFFCURVE",
"499 328 OFFCURVE",
"498 259 CURVE",
"481 326 OFFCURVE",
"466 388 OFFCURVE",
"453 443 CURVE SMOOTH",
"441 490 OFFCURVE",
"429 538 OFFCURVE",
"421 575 CURVE SMOOTH",
"409 623 LINE",
"403 647 LINE",
"398 646 OFFCURVE",
"393 644 OFFCURVE",
"388 642 CURVE",
"377 637 OFFCURVE",
"366 632 OFFCURVE",
"355 628 CURVE"
);
}
);
width = 854;
}
);
unicode = 006E;
},
{
glyphname = o;
layers = (
{
layerId = "7B23AAD7-CE87-48AA-B0FE-511DC5B49C39";
name = Regular;
paths = (
{
closed = 1;
nodes = (
"454 695 OFFCURVE",
"558 671 OFFCURVE",
"638 620 CURVE SMOOTH",
"717 569 OFFCURVE",
"773 493 OFFCURVE",
"786 401 CURVE SMOOTH",
"798 312 OFFCURVE",
"767 221 OFFCURVE",
"706 148 CURVE SMOOTH",
"645 75 OFFCURVE",
"554 18 OFFCURVE",
"449 -5 CURVE SMOOTH",
"342 -28 OFFCURVE",
"234 -8 OFFCURVE",
"150 48 CURVE SMOOTH",
"74 100 OFFCURVE",
"25 178 OFFCURVE",
"10 269 CURVE SMOOTH",
"-6 361 OFFCURVE",
"16 452 OFFCURVE",
"75 528 CURVE SMOOTH",
"136 612 OFFCURVE",
"234 667 OFFCURVE",
"345 682 CURVE SMOOTH"
);
},
{
closed = 1;
nodes = (
"220 57 OFFCURVE",
"311 26 OFFCURVE",
"411 33 CURVE SMOOTH",
"507 41 OFFCURVE",
"592 81 OFFCURVE",
"656 139 CURVE SMOOTH",
"719 197 OFFCURVE",
"759 273 OFFCURVE",
"760 357 CURVE",
"759 441 OFFCURVE",
"718 517 OFFCURVE",
"654 573 CURVE SMOOTH",
"589 628 OFFCURVE",
"501 664 OFFCURVE",
"402 665 CURVE SMOOTH",
"302 665 OFFCURVE",
"208 625 OFFCURVE",
"144 557 CURVE SMOOTH",
"83 496 OFFCURVE",
"52 416 OFFCURVE",
"55 332 CURVE SMOOTH",
"56 249 OFFCURVE",
"91 174 OFFCURVE",
"152 118 CURVE SMOOTH"
);
},
{
closed = 1;
nodes = (
"275 542 OFFCURVE",
"292 567 OFFCURVE",
"318 584 CURVE SMOOTH",
"344 600 OFFCURVE",
"378 609 OFFCURVE",
"417 606 CURVE SMOOTH",
"450 603 OFFCURVE",
"483 589 OFFCURVE",
"507 569 CURVE",
"530 548 OFFCURVE",
"544 519 OFFCURVE",
"543 484 CURVE",
"538 451 OFFCURVE",
"518 426 OFFCURVE",
"491 411 CURVE SMOOTH",
"463 395 OFFCURVE",
"430 388 OFFCURVE",
"395 392 CURVE SMOOTH",
"359 396 OFFCURVE",
"326 411 OFFCURVE",
"303 432 CURVE SMOOTH",
"280 453 OFFCURVE",
"268 482 OFFCURVE",
"272 511 CURVE"
);
},
{
closed = 1;
nodes = (
"435 410 OFFCURVE",
"460 420 OFFCURVE",
"480 436 CURVE SMOOTH",
"499 452 OFFCURVE",
"510 475 OFFCURVE",
"510 502 CURVE",
"509 529 OFFCURVE",
"495 550 OFFCURVE",
"476 566 CURVE",
"456 581 OFFCURVE",
"431 589 OFFCURVE",
"404 588 CURVE",
"375 588 OFFCURVE",
"350 577 OFFCURVE",
"331 560 CURVE SMOOTH",
"312 543 OFFCURVE",
"302 520 OFFCURVE",
"303 496 CURVE",
"303 471 OFFCURVE",
"314 449 OFFCURVE",
"333 434 CURVE SMOOTH",
"352 418 OFFCURVE",
"378 409 OFFCURVE",
"407 410 CURVE SMOOTH"
);
}
);
width = 770;
}
);
unicode = 006F;
},
{
glyphname = p;
layers = (
{
layerId = "7B23AAD7-CE87-48AA-B0FE-511DC5B49C39";
name = Regular;
paths = (
{
closed = 1;
nodes = (
"105 198 LINE",
"91 260 OFFCURVE",
"77 319 OFFCURVE",
"63 375 CURVE SMOOTH",
"51 423 OFFCURVE",
"38 473 OFFCURVE",
"26 518 CURVE SMOOTH",
"13 563 OFFCURVE",
"1 602 OFFCURVE",
"-10 627 CURVE",
"35 651 OFFCURVE",
"115 680 OFFCURVE",
"206 699 CURVE SMOOTH",
"297 718 OFFCURVE",
"398 726 OFFCURVE",
"486 709 CURVE SMOOTH",
"574 692 OFFCURVE",
"649 650 OFFCURVE",
"686 567 CURVE SMOOTH",
"715 503 OFFCURVE",
"716 442 OFFCURVE",
"702 386 CURVE SMOOTH",
"688 329 OFFCURVE",
"659 280 OFFCURVE",
"629 238 CURVE SMOOTH",
"599 196 OFFCURVE",
"566 164 OFFCURVE",
"546 144 CURVE",
"546 141 OFFCURVE",
"548 132 OFFCURVE",
"551 116 CURVE SMOOTH",
"557 84 OFFCURVE",
"564 44 OFFCURVE",
"573 -8 CURVE",
"570 -8 OFFCURVE",
"562 -7 OFFCURVE",
"547 -5 CURVE SMOOTH",
"518 -2 OFFCURVE",
"473 1 OFFCURVE",
"420 2 CURVE SMOOTH",
"367 3 OFFCURVE",
"312 1 OFFCURVE",
"261 -7 CURVE SMOOTH",
"236 -11 OFFCURVE",
"213 -17 OFFCURVE",
"194 -25 CURVE",
"193 -6 OFFCURVE",
"193 16 OFFCURVE",
"196 41 CURVE SMOOTH",
"201 91 OFFCURVE",
"208 142 OFFCURVE",
"209 190 CURVE SMOOTH",
"210 213 OFFCURVE",
"208 233 OFFCURVE",
"203 248 CURVE",
"195 245 OFFCURVE",
"171 233 OFFCURVE",
"148 221 CURVE SMOOTH"
);
},
{
closed = 1;
nodes = (
"620 618 OFFCURVE",
"565 656 OFFCURVE",
"501 674 CURVE SMOOTH",
"436 692 OFFCURVE",
"363 692 OFFCURVE",
"294 684 CURVE SMOOTH",
"213 675 OFFCURVE",
"127 654 OFFCURVE",
"36 621 CURVE",
"52 568 OFFCURVE",
"73 487 OFFCURVE",
"90 412 CURVE SMOOTH",
"98 374 OFFCURVE",
"106 340 OFFCURVE",
"113 309 CURVE SMOOTH",
"120 278 OFFCURVE",
"124 255 OFFCURVE",
"127 242 CURVE",
"132 243 OFFCURVE",
"140 246 OFFCURVE",
"150 251 CURVE",
"223 281 LINE",
"235 244 OFFCURVE",
"236 192 OFFCURVE",
"236 142 CURVE",
"233 71 LINE SMOOTH",
"232 48 OFFCURVE",
"231 29 OFFCURVE",
"231 14 CURVE",
"278 29 OFFCURVE",
"342 34 OFFCURVE",
"400 35 CURVE SMOOTH",
"458 35 OFFCURVE",
"510 32 OFFCURVE",
"534 31 CURVE",
"534 36 OFFCURVE",
"533 46 OFFCURVE",
"532 59 CURVE SMOOTH",
"522 152 LINE",
"542 173 OFFCURVE",
"572 210 OFFCURVE",
"598 255 CURVE SMOOTH",
"624 299 OFFCURVE",
"648 351 OFFCURVE",
"661 404 CURVE SMOOTH",
"674 456 OFFCURVE",
"675 509 OFFCURVE",
"655 554 CURVE"
);
},
{
closed = 1;
nodes = (
"490 366 LINE",
"533 362 OFFCURVE",
"551 350 OFFCURVE",
"560 331 CURVE SMOOTH",
"563 325 OFFCURVE",
"565 318 OFFCURVE",
"565 310 CURVE SMOOTH",
"565 294 OFFCURVE",
"559 272 OFFCURVE",
"544 241 CURVE",
"537 225 OFFCURVE",
"527 206 OFFCURVE",
"515 185 CURVE"
);
},
{
closed = 1;
nodes = (
"514 329 OFFCURVE",
"518 290 OFFCURVE",
"525 243 CURVE",
"536 272 OFFCURVE",
"542 294 OFFCURVE",
"542 309 CURVE SMOOTH",
"542 332 OFFCURVE",
"532 343 OFFCURVE",
"511 354 CURVE"
);
}
);
width = 699;
}
);
unicode = 0070;
},
{
glyphname = q;
layers = (
{
layerId = "7B23AAD7-CE87-48AA-B0FE-511DC5B49C39";
name = Regular;
paths = (
{
closed = 1;
nodes = (
"299 693 OFFCURVE",
"355 704 OFFCURVE",
"408 704 CURVE SMOOTH",
"514 704 OFFCURVE",
"602 669 OFFCURVE",
"664 609 CURVE SMOOTH",
"695 578 OFFCURVE",
"717 543 OFFCURVE",
"731 504 CURVE SMOOTH",
"742 476 OFFCURVE",
"746 449 OFFCURVE",
"746 418 CURVE SMOOTH",
"746 354 OFFCURVE",
"721 288 OFFCURVE",
"674 227 CURVE",
"700 199 LINE",
"749 239 LINE",
"752 234 OFFCURVE",
"758 222 OFFCURVE",
"770 210 CURVE",
"782 197 OFFCURVE",
"799 182 OFFCURVE",
"826 170 CURVE",
"750 131 OFFCURVE",
"692 92 OFFCURVE",
"633 52 CURVE SMOOTH",
"616 41 OFFCURVE",
"599 29 OFFCURVE",
"582 16 CURVE SMOOTH",
"548 -10 OFFCURVE",
"513 -35 OFFCURVE",
"478 -57 CURVE SMOOTH",
"461 -68 OFFCURVE",
"443 -78 OFFCURVE",
"425 -86 CURVE",
"425 -43 OFFCURVE",
"421 13 OFFCURVE",
"410 64 CURVE",
"319 43 OFFCURVE",
"233 48 OFFCURVE",
"163 77 CURVE SMOOTH",
"93 106 OFFCURVE",
"40 159 OFFCURVE",
"13 231 CURVE SMOOTH",
"-14 306 OFFCURVE",
"-15 402 OFFCURVE",
"20 477 CURVE SMOOTH",
"60 566 OFFCURVE",
"139 633 OFFCURVE",
"242 672 CURVE SMOOTH"
);
},
{
closed = 1;
nodes = (
"67 170 OFFCURVE",
"117 122 OFFCURVE",
"184 96 CURVE SMOOTH",
"251 70 OFFCURVE",
"333 67 OFFCURVE",
"425 92 CURVE",
"440 33 OFFCURVE",
"445 -5 OFFCURVE",
"449 -33 CURVE",
"474 -21 OFFCURVE",
"501 -6 OFFCURVE",
"530 13 CURVE SMOOTH",
"587 50 OFFCURVE",
"648 90 OFFCURVE",
"701 123 CURVE SMOOTH",
"727 140 OFFCURVE",
"753 155 OFFCURVE",
"780 170 CURVE",
"760 182 OFFCURVE",
"749 197 OFFCURVE",
"742 206 CURVE",
"730 197 LINE",
"715 185 LINE",
"697 170 LINE",
"645 227 LINE",
"720 318 OFFCURVE",
"743 411 OFFCURVE",
"712 495 CURVE SMOOTH",
"685 570 OFFCURVE",
"622 622 OFFCURVE",
"541 647 CURVE SMOOTH",
"460 672 OFFCURVE",
"361 670 OFFCURVE",
"265 635 CURVE SMOOTH",
"166 600 OFFCURVE",
"93 536 OFFCURVE",
"54 452 CURVE SMOOTH",
"22 381 OFFCURVE",
"18 306 OFFCURVE",
"43 238 CURVE SMOOTH"
);
},
{
closed = 1;
nodes = (
"584 395 OFFCURVE",
"585 376 OFFCURVE",
"581 360 CURVE",
"576 344 OFFCURVE",
"567 330 OFFCURVE",
"555 322 CURVE",
"518 359 LINE",
"361 283 LINE",
"382 239 LINE",
"369 238 OFFCURVE",
"357 236 OFFCURVE",
"344 235 CURVE",
"319 231 OFFCURVE",
"294 233 OFFCURVE",
"274 242 CURVE",
"264 247 OFFCURVE",
"256 254 OFFCURVE",
"249 265 CURVE",
"238 288 OFFCURVE",
"241 316 OFFCURVE",
"259 345 CURVE SMOOTH",
"277 373 OFFCURVE",
"310 402 OFFCURVE",
"361 422 CURVE SMOOTH",
"412 443 OFFCURVE",
"460 452 OFFCURVE",
"497 450 CURVE SMOOTH",
"534 448 OFFCURVE",
"563 435 OFFCURVE",
"575 412 CURVE SMOOTH"
);
},
{
closed = 1;
nodes = (
"276 249 OFFCURVE",
"294 245 OFFCURVE",
"311 246 CURVE SMOOTH",
"327 247 OFFCURVE",
"345 254 OFFCURVE",
"350 258 CURVE",
"330 292 LINE",
"524 387 LINE",
"528 382 OFFCURVE",
"532 378 OFFCURVE",
"536 374 CURVE SMOOTH",
"555 355 LINE",
"563 362 OFFCURVE",
"568 370 OFFCURVE",
"568 383 CURVE SMOOTH",
"568 389 OFFCURVE",
"566 396 OFFCURVE",
"561 403 CURVE",
"552 418 OFFCURVE",
"531 424 OFFCURVE",
"499 423 CURVE SMOOTH",
"466 422 OFFCURVE",
"428 412 OFFCURVE",
"384 395 CURVE SMOOTH",
"339 378 OFFCURVE",
"307 354 OFFCURVE",
"287 330 CURVE SMOOTH",
"267 306 OFFCURVE",
"261 283 OFFCURVE",
"268 266 CURVE"
);
}
);
width = 800;
}
);
unicode = 0071;
},
{
glyphname = r;
layers = (
{
layerId = "7B23AAD7-CE87-48AA-B0FE-511DC5B49C39";
name = Regular;
paths = (
{
closed = 1;
nodes = (
"706 642 OFFCURVE",
"719 596 OFFCURVE",
"718 541 CURVE SMOOTH",
"717 485 OFFCURVE",
"701 421 OFFCURVE",
"674 361 CURVE",
"685 360 OFFCURVE",
"697 360 OFFCURVE",
"711 360 CURVE SMOOTH",
"739 360 OFFCURVE",
"770 361 OFFCURVE",
"799 365 CURVE SMOOTH",
"814 367 OFFCURVE",
"827 370 OFFCURVE",
"839 374 CURVE",
"820 306 OFFCURVE",
"787 236 OFFCURVE",
"756 169 CURVE SMOOTH",
"725 101 OFFCURVE",
"696 36 OFFCURVE",
"685 -27 CURVE",
"652 0 OFFCURVE",
"620 25 OFFCURVE",
"591 49 CURVE SMOOTH",
"566 69 OFFCURVE",
"540 91 OFFCURVE",
"518 111 CURVE SMOOTH",
"496 131 OFFCURVE",
"477 149 OFFCURVE",
"466 161 CURVE",
"469 118 OFFCURVE",
"473 54 OFFCURVE",
"480 6 CURVE",
"465 11 OFFCURVE",
"430 18 OFFCURVE",
"385 26 CURVE SMOOTH",
"232 49 LINE SMOOTH",
"170 58 OFFCURVE",
"102 67 OFFCURVE",
"27 76 CURVE",
"45 179 LINE",
"68 179 LINE SMOOTH",
"81 179 OFFCURVE",
"95 178 OFFCURVE",
"102 177 CURVE",
"102 202 OFFCURVE",
"102 251 OFFCURVE",
"91 291 CURVE",
"57 289 LINE SMOOTH",
"41 288 OFFCURVE",
"24 286 OFFCURVE",
"11 283 CURVE",
"19 299 OFFCURVE",
"18 328 OFFCURVE",
"12 364 CURVE SMOOTH",
"6 399 OFFCURVE",
"-4 438 OFFCURVE",
"-16 477 CURVE SMOOTH",
"-29 522 OFFCURVE",
"-46 571 OFFCURVE",
"-66 623 CURVE",
"21 628 OFFCURVE",
"94 635 OFFCURVE",
"168 645 CURVE SMOOTH",
"205 650 OFFCURVE",
"235 655 OFFCURVE",
"260 662 CURVE SMOOTH",
"327 681 OFFCURVE",
"409 699 OFFCURVE",
"485 705 CURVE SMOOTH",
"561 711 OFFCURVE",
"631 704 OFFCURVE",
"674 669 CURVE SMOOTH"
);
},
{
closed = 1;
nodes = (
"167 621 OFFCURVE",
"69 601 OFFCURVE",
"-14 596 CURVE",
"-13 573 OFFCURVE",
"-1 539 OFFCURVE",
"11 502 CURVE",
"31 450 OFFCURVE",
"50 382 OFFCURVE",
"53 314 CURVE",
"61 314 OFFCURVE",
"78 315 OFFCURVE",
"93 316 CURVE",
"100 316 OFFCURVE",
"107 316 OFFCURVE",
"113 317 CURVE",
"119 317 OFFCURVE",
"122 317 OFFCURVE",
"122 318 CURVE",
"130 298 OFFCURVE",
"132 259 OFFCURVE",
"132 223 CURVE SMOOTH",
"132 174 LINE",
"131 159 OFFCURVE",
"131 149 OFFCURVE",
"131 145 CURVE",
"110 148 LINE",
"93 151 LINE",
"87 151 OFFCURVE",
"82 151 OFFCURVE",
"78 152 CURVE",
"77 147 OFFCURVE",
"77 141 OFFCURVE",
"77 136 CURVE SMOOTH",
"77 130 OFFCURVE",
"76 124 OFFCURVE",
"75 118 CURVE",
"99 117 OFFCURVE",
"141 109 OFFCURVE",
"189 100 CURVE SMOOTH",
"237 91 OFFCURVE",
"291 79 OFFCURVE",
"339 68 CURVE SMOOTH",
"387 57 OFFCURVE",
"429 47 OFFCURVE",
"453 40 CURVE",
"452 53 OFFCURVE",
"450 70 OFFCURVE",
"449 90 CURVE SMOOTH",
"446 130 OFFCURVE",
"444 170 OFFCURVE",
"442 198 CURVE SMOOTH",
"440 221 LINE",
"455 208 LINE",
"489 178 LINE SMOOTH",
"502 166 OFFCURVE",
"517 153 OFFCURVE",
"534 138 CURVE SMOOTH",
"567 109 OFFCURVE",
"601 81 OFFCURVE",
"631 59 CURVE SMOOTH",
"646 48 OFFCURVE",
"658 39 OFFCURVE",
"667 34 CURVE",
"677 56 OFFCURVE",
"688 80 OFFCURVE",
"700 105 CURVE SMOOTH",
"723 155 OFFCURVE",
"747 207 OFFCURVE",
"768 259 CURVE SMOOTH",
"778 284 OFFCURVE",
"786 309 OFFCURVE",
"793 332 CURVE",
"766 329 OFFCURVE",
"728 330 OFFCURVE",
"697 333 CURVE SMOOTH",
"679 335 OFFCURVE",
"660 337 OFFCURVE",
"641 340 CURVE",
"656 372 OFFCURVE",
"671 412 OFFCURVE",
"680 453 CURVE SMOOTH",
"689 493 OFFCURVE",
"694 536 OFFCURVE",
"686 573 CURVE",
"677 624 OFFCURVE",
"643 651 OFFCURVE",
"598 664 CURVE SMOOTH",
"575 671 OFFCURVE",
"550 674 OFFCURVE",
"522 674 CURVE SMOOTH",
"465 674 OFFCURVE",
"404 667 OFFCURVE",
"345 656 CURVE SMOOTH",
"316 651 OFFCURVE",
"288 645 OFFCURVE",
"263 640 CURVE SMOOTH"
);
},
{
closed = 1;
nodes = (
"418 485 LINE",
"433 477 OFFCURVE",
"459 464 OFFCURVE",
"480 445 CURVE SMOOTH",
"501 426 OFFCURVE",
"517 404 OFFCURVE",
"513 379 CURVE SMOOTH",
"510 355 OFFCURVE",
"503 338 OFFCURVE",
"491 322 CURVE SMOOTH",
"478 305 OFFCURVE",
"461 288 OFFCURVE",
"437 267 CURVE"
);
},
{
closed = 1;
nodes = (
"448 402 OFFCURVE",
"450 382 OFFCURVE",
"451 363 CURVE SMOOTH",
"452 343 OFFCURVE",
"454 324 OFFCURVE",
"455 309 CURVE",
"471 324 OFFCURVE",
"481 337 OFFCURVE",
"484 364 CURVE",
"484 384 OFFCURVE",
"466 400 OFFCURVE",
"447 415 CURVE"
);
}
);
width = 837;
}
);
unicode = 0072;
},
{
glyphname = s;
layers = (
{
layerId = "7B23AAD7-CE87-48AA-B0FE-511DC5B49C39";
name = Regular;
paths = (
{
closed = 1;
nodes = (
"191 739 LINE",
"583 712 LINE",
"597 468 LINE",
"388 396 LINE",
"347 421 OFFCURVE",
"300 444 OFFCURVE",
"261 457 CURVE SMOOTH",
"222 470 OFFCURVE",
"191 475 OFFCURVE",
"179 466 CURVE SMOOTH",
"172 461 OFFCURVE",
"172 455 OFFCURVE",
"177 449 CURVE",
"188 437 OFFCURVE",
"215 426 OFFCURVE",
"254 415 CURVE SMOOTH",
"293 403 OFFCURVE",
"334 394 OFFCURVE",
"374 387 CURVE SMOOTH",
"394 384 OFFCURVE",
"411 381 OFFCURVE",
"426 380 CURVE SMOOTH",
"505 372 OFFCURVE",
"564 365 OFFCURVE",
"608 346 CURVE SMOOTH",
"652 327 OFFCURVE",
"678 297 OFFCURVE",
"689 238 CURVE",
"697 173 OFFCURVE",
"673 95 OFFCURVE",
"601 43 CURVE SMOOTH",
"549 6 OFFCURVE",
"489 -7 OFFCURVE",
"429 -6 CURVE SMOOTH",
"369 -5 OFFCURVE",
"309 10 OFFCURVE",
"260 27 CURVE SMOOTH",
"211 44 OFFCURVE",
"171 65 OFFCURVE",
"151 77 CURVE",
"150 77 LINE",
"139 74 OFFCURVE",
"109 65 OFFCURVE",
"92 58 CURVE",
"85 57 LINE",
"34 304 LINE",
"54 308 OFFCURVE",
"75 312 OFFCURVE",
"96 317 CURVE SMOOTH",
"154 330 LINE SMOOTH",
"175 334 OFFCURVE",
"195 338 OFFCURVE",
"214 343 CURVE",
"157 358 OFFCURVE",
"105 376 OFFCURVE",
"66 403 CURVE SMOOTH",
"27 430 OFFCURVE",
"3 466 OFFCURVE",
"3 517 CURVE SMOOTH",
"3 572 OFFCURVE",
"28 609 OFFCURVE",
"66 633 CURVE SMOOTH",
"104 657 OFFCURVE",
"152 667 OFFCURVE",
"200 667 CURVE"
);
},
{
closed = 1;
nodes = (
"67 299 LINE",
"70 282 LINE SMOOTH",
"72 271 OFFCURVE",
"75 259 OFFCURVE",
"78 245 CURVE SMOOTH",
"87 198 LINE SMOOTH",
"94 165 OFFCURVE",
"100 135 OFFCURVE",
"105 114 CURVE",
"107 103 OFFCURVE",
"108 97 OFFCURVE",
"108 95 CURVE",
"133 104 OFFCURVE",
"149 110 OFFCURVE",
"154 111 CURVE",
"162 113 LINE",
"164 113 LINE",
"164 112 OFFCURVE",
"165 111 OFFCURVE",
"168 109 CURVE",
"187 98 OFFCURVE",
"223 79 OFFCURVE",
"267 63 CURVE SMOOTH",
"311 46 OFFCURVE",
"365 32 OFFCURVE",
"418 30 CURVE SMOOTH",
"471 28 OFFCURVE",
"525 38 OFFCURVE",
"572 73 CURVE",
"636 117 OFFCURVE",
"666 185 OFFCURVE",
"657 245 CURVE",
"652 297 OFFCURVE",
"621 323 OFFCURVE",
"578 339 CURVE SMOOTH",
"535 355 OFFCURVE",
"479 359 OFFCURVE",
"424 366 CURVE SMOOTH",
"332 378 OFFCURVE",
"256 392 OFFCURVE",
"208 412 CURVE SMOOTH",
"159 431 OFFCURVE",
"139 454 OFFCURVE",
"160 482 CURVE SMOOTH",
"175 502 OFFCURVE",
"214 498 OFFCURVE",
"259 485 CURVE SMOOTH",
"303 472 OFFCURVE",
"354 448 OFFCURVE",
"391 425 CURVE",
"569 480 LINE",
"560 681 LINE",
"532 683 LINE SMOOTH",
"515 684 OFFCURVE",
"494 686 OFFCURVE",
"469 688 CURVE",
"444 689 OFFCURVE",
"417 691 OFFCURVE",
"388 693 CURVE SMOOTH",
"330 697 OFFCURVE",
"277 701 OFFCURVE",
"242 703 CURVE SMOOTH",
"225 704 OFFCURVE",
"215 704 OFFCURVE",
"212 704 CURVE",
"213 702 OFFCURVE",
"213 698 OFFCURVE",
"214 691 CURVE",
"215 678 OFFCURVE",
"218 662 OFFCURVE",
"222 641 CURVE",
"175 641 OFFCURVE",
"128 633 OFFCURVE",
"92 613 CURVE SMOOTH",
"56 592 OFFCURVE",
"33 559 OFFCURVE",
"33 508 CURVE SMOOTH",
"33 461 OFFCURVE",
"60 426 OFFCURVE",
"100 401 CURVE SMOOTH",
"140 376 OFFCURVE",
"194 359 OFFCURVE",
"247 351 CURVE",
"256 352 OFFCURVE",
"272 355 OFFCURVE",
"285 358 CURVE SMOOTH",
"309 364 LINE",
"312 351 OFFCURVE",
"315 342 OFFCURVE",
"319 333 CURVE",
"342 328 OFFCURVE",
"364 324 OFFCURVE",
"386 320 CURVE SMOOTH",
"430 311 OFFCURVE",
"466 301 OFFCURVE",
"487 285 CURVE SMOOTH",
"498 277 OFFCURVE",
"503 266 OFFCURVE",
"503 253 CURVE SMOOTH",
"503 221 OFFCURVE",
"479 203 OFFCURVE",
"443 206 CURVE SMOOTH",
"423 207 OFFCURVE",
"390 219 OFFCURVE",
"360 240 CURVE SMOOTH",
"330 261 OFFCURVE",
"303 293 OFFCURVE",
"292 336 CURVE"
);
},
{
closed = 1;
nodes = (
"448 226 OFFCURVE",
"460 226 OFFCURVE",
"471 231 CURVE",
"482 235 OFFCURVE",
"489 243 OFFCURVE",
"488 258 CURVE SMOOTH",
"487 271 OFFCURVE",
"467 283 OFFCURVE",
"437 293 CURVE SMOOTH",
"407 303 OFFCURVE",
"365 311 OFFCURVE",
"321 319 CURVE",
"337 290 OFFCURVE",
"359 266 OFFCURVE",
"383 251 CURVE",
"406 235 OFFCURVE",
"428 227 OFFCURVE",
"441 226 CURVE"
);
}
);
width = 648;
}
);
unicode = 0073;
},
{
glyphname = t;
lastChange = "2017-04-03 13:22:15 +0000";
layers = (
{
layerId = "7B23AAD7-CE87-48AA-B0FE-511DC5B49C39";
name = Regular;
paths = (
{
closed = 1;
nodes = (
"209 178 OFFCURVE",
"211 187 OFFCURVE",
"214 194 CURVE",
"220 214 LINE",
"221 220 OFFCURVE",
"223 224 OFFCURVE",
"224 225 CURVE",
"226 225 OFFCURVE",
"230 226 OFFCURVE",
"235 228 CURVE SMOOTH",
"273 242 LINE",
"280 244 OFFCURVE",
"285 246 OFFCURVE",
"290 248 CURVE",
"305 160 OFFCURVE",
"325 47 OFFCURVE",
"358 -61 CURVE",
"379 -40 OFFCURVE",
"405 -18 OFFCURVE",
"434 3 CURVE SMOOTH",
"492 45 OFFCURVE",
"555 85 OFFCURVE",
"616 118 CURVE SMOOTH",
"676 151 OFFCURVE",
"727 176 OFFCURVE",
"759 192 CURVE SMOOTH",
"785 204 LINE",
"774 289 LINE",
"739 288 OFFCURVE",
"715 286 OFFCURVE",
"693 285 CURVE",
"682 284 OFFCURVE",
"674 284 OFFCURVE",
"671 284 CURVE",
"669 286 OFFCURVE",
"667 290 OFFCURVE",
"664 296 CURVE SMOOTH",
"661 302 OFFCURVE",
"657 309 OFFCURVE",
"654 316 CURVE",
"650 323 OFFCURVE",
"646 330 OFFCURVE",
"643 337 CURVE SMOOTH",
"640 344 OFFCURVE",
"637 349 OFFCURVE",
"634 353 CURVE",
"709 382 LINE SMOOTH",
"727 389 OFFCURVE",
"747 397 OFFCURVE",
"769 405 CURVE",
"739 711 LINE",
"-3 582 LINE",
"109 157 LINE",
"206 169 LINE"
);
},
{
closed = 1;
nodes = (
"694 673 OFFCURVE",
"695 664 OFFCURVE",
"697 651 CURVE SMOOTH",
"705 604 LINE SMOOTH",
"711 568 OFFCURVE",
"718 524 OFFCURVE",
"723 488 CURVE SMOOTH",
"730 442 LINE SMOOTH",
"732 429 OFFCURVE",
"733 421 OFFCURVE",
"733 418 CURVE",
"703 407 LINE SMOOTH",
"669 394 OFFCURVE",
"629 379 OFFCURVE",
"576 358 CURVE",
"619 267 LINE",
"640 266 OFFCURVE",
"659 266 OFFCURVE",
"676 265 CURVE SMOOTH",
"744 263 LINE",
"747 251 OFFCURVE",
"750 230 OFFCURVE",
"750 219 CURVE",
"656 176 LINE SMOOTH",
"611 155 OFFCURVE",
"557 128 OFFCURVE",
"505 97 CURVE SMOOTH",
"453 66 OFFCURVE",
"403 33 OFFCURVE",
"367 -2 CURVE",
"361 21 OFFCURVE",
"355 50 OFFCURVE",
"350 83 CURVE SMOOTH",
"339 149 OFFCURVE",
"333 213 OFFCURVE",
"326 289 CURVE",
"211 243 LINE",
"209 237 OFFCURVE",
"207 231 OFFCURVE",
"204 226 CURVE",
"202 221 OFFCURVE",
"200 217 OFFCURVE",
"199 212 CURVE SMOOTH",
"198 207 OFFCURVE",
"196 204 OFFCURVE",
"195 201 CURVE",
"193 200 OFFCURVE",
"188 200 OFFCURVE",
"181 200 CURVE",
"174 199 OFFCURVE",
"166 199 OFFCURVE",
"159 198 CURVE SMOOTH",
"150 197 OFFCURVE",
"141 197 OFFCURVE",
"130 196 CURVE",
"113 260 OFFCURVE",
"98 318 OFFCURVE",
"85 370 CURVE SMOOTH",
"79 392 OFFCURVE",
"73 414 OFFCURVE",
"68 436 CURVE SMOOTH",
"63 457 OFFCURVE",
"58 477 OFFCURVE",
"53 495 CURVE SMOOTH",
"48 512 OFFCURVE",
"45 527 OFFCURVE",
"42 539 CURVE SMOOTH",
"36 561 LINE",
"39 562 OFFCURVE",
"50 564 OFFCURVE",
"70 568 CURVE SMOOTH",
"110 575 OFFCURVE",
"172 586 OFFCURVE",
"249 599 CURVE SMOOTH",
"366 620 LINE SMOOTH",
"445 634 OFFCURVE",
"524 648 OFFCURVE",
"585 658 CURVE SMOOTH",
"660 670 LINE SMOOTH",
"679 673 OFFCURVE",
"690 675 OFFCURVE",
"693 676 CURVE"
);
}
);
width = 769;
}
);
unicode = 0074;
},
{
glyphname = u;
layers = (
{
layerId = "7B23AAD7-CE87-48AA-B0FE-511DC5B49C39";
name = Regular;
paths = (
{
closed = 1;
nodes = (
"7 553 OFFCURVE",
"25 619 OFFCURVE",
"44 664 CURVE SMOOTH",
"55 691 OFFCURVE",
"67 714 OFFCURVE",
"80 733 CURVE",
"155 701 OFFCURVE",
"224 680 OFFCURVE",
"296 669 CURVE SMOOTH",
"368 657 OFFCURVE",
"443 656 OFFCURVE",
"524 661 CURVE",
"524 577 LINE",
"512 570 OFFCURVE",
"501 563 OFFCURVE",
"490 556 CURVE",
"481 551 OFFCURVE",
"472 545 OFFCURVE",
"464 540 CURVE",
"455 535 OFFCURVE",
"449 531 OFFCURVE",
"446 529 CURVE",
"450 505 OFFCURVE",
"458 482 OFFCURVE",
"472 467 CURVE SMOOTH",
"486 451 OFFCURVE",
"507 443 OFFCURVE",
"538 447 CURVE SMOOTH",
"570 451 OFFCURVE",
"588 477 OFFCURVE",
"596 509 CURVE SMOOTH",
"604 541 OFFCURVE",
"602 579 OFFCURVE",
"597 604 CURVE",
"812 654 LINE",
"837 586 OFFCURVE",
"846 528 OFFCURVE",
"846 468 CURVE SMOOTH",
"846 336 OFFCURVE",
"799 218 OFFCURVE",
"723 131 CURVE SMOOTH",
"647 44 OFFCURVE",
"543 -9 OFFCURVE",
"427 -9 CURVE SMOOTH",
"311 -9 OFFCURVE",
"206 44 OFFCURVE",
"130 131 CURVE SMOOTH",
"54 218 OFFCURVE",
"7 336 OFFCURVE",
"7 468 CURVE SMOOTH"
);
},
{
closed = 1;
nodes = (
"28 346 OFFCURVE",
"73 242 OFFCURVE",
"145 167 CURVE SMOOTH",
"217 91 OFFCURVE",
"318 45 OFFCURVE",
"427 45 CURVE SMOOTH",
"536 45 OFFCURVE",
"636 91 OFFCURVE",
"708 167 CURVE SMOOTH",
"780 242 OFFCURVE",
"825 346 OFFCURVE",
"825 461 CURVE SMOOTH",
"825 508 OFFCURVE",
"818 556 OFFCURVE",
"801 604 CURVE",
"784 600 LINE SMOOTH",
"775 598 OFFCURVE",
"764 596 OFFCURVE",
"752 593 CURVE SMOOTH",
"728 587 OFFCURVE",
"700 580 OFFCURVE",
"676 575 CURVE",
"664 572 OFFCURVE",
"653 570 OFFCURVE",
"644 569 CURVE",
"635 567 OFFCURVE",
"628 566 OFFCURVE",
"625 565 CURVE",
"629 534 OFFCURVE",
"627 498 OFFCURVE",
"614 469 CURVE SMOOTH",
"601 440 OFFCURVE",
"577 417 OFFCURVE",
"541 413 CURVE SMOOTH",
"506 408 OFFCURVE",
"477 419 OFFCURVE",
"455 441 CURVE SMOOTH",
"433 463 OFFCURVE",
"420 496 OFFCURVE",
"420 533 CURVE",
"445 548 OFFCURVE",
"466 559 OFFCURVE",
"483 570 CURVE",
"492 575 OFFCURVE",
"497 579 OFFCURVE",
"500 580 CURVE",
"500 610 LINE",
"361 601 OFFCURVE",
"217 623 OFFCURVE",
"85 674 CURVE",
"49 609 OFFCURVE",
"28 533 OFFCURVE",
"28 461 CURVE SMOOTH"
);
}
);
width = 849;
}
);
unicode = 0075;
},
{
glyphname = v;
layers = (
{
layerId = "7B23AAD7-CE87-48AA-B0FE-511DC5B49C39";
name = Regular;
paths = (
{
closed = 1;
nodes = (
"223 249 LINE",
"-2 565 LINE",
"357 722 LINE",
"426 561 LINE SMOOTH",
"435 540 OFFCURVE",
"445 519 OFFCURVE",
"454 498 CURVE SMOOTH",
"472 455 OFFCURVE",
"488 417 OFFCURVE",
"501 389 CURVE",
"515 355 LINE",
"523 394 OFFCURVE",
"536 455 OFFCURVE",
"546 520 CURVE SMOOTH",
"556 585 OFFCURVE",
"563 654 OFFCURVE",
"562 710 CURVE",
"942 690 LINE",
"942 684 OFFCURVE",
"941 668 OFFCURVE",
"939 641 CURVE SMOOTH",
"934 588 OFFCURVE",
"926 516 OFFCURVE",
"918 445 CURVE SMOOTH",
"913 410 OFFCURVE",
"908 381 OFFCURVE",
"903 358 CURVE",
"894 356 OFFCURVE",
"885 354 OFFCURVE",
"877 351 CURVE",
"862 347 OFFCURVE",
"850 344 OFFCURVE",
"843 341 CURVE",
"840 333 OFFCURVE",
"836 320 OFFCURVE",
"831 301 CURVE",
"786 161 LINE SMOOTH",
"769 108 OFFCURVE",
"752 58 OFFCURVE",
"737 21 CURVE SMOOTH",
"730 2 OFFCURVE",
"724 -11 OFFCURVE",
"719 -20 CURVE",
"692 -20 LINE SMOOTH",
"662 -21 OFFCURVE",
"615 -22 OFFCURVE",
"562 -22 CURVE SMOOTH",
"509 -22 OFFCURVE",
"456 -22 OFFCURVE",
"412 -19 CURVE SMOOTH",
"389 -18 OFFCURVE",
"371 -16 OFFCURVE",
"358 -13 CURVE",
"359 7 OFFCURVE",
"344 61 OFFCURVE",
"325 117 CURVE SMOOTH",
"305 173 OFFCURVE",
"280 230 OFFCURVE",
"261 257 CURVE",
"259 256 OFFCURVE",
"256 256 OFFCURVE",
"252 255 CURVE SMOOTH",
"239 252 LINE"
);
},
{
closed = 1;
nodes = (
"340 666 OFFCURVE",
"331 662 OFFCURVE",
"317 655 CURVE",
"288 642 OFFCURVE",
"247 623 OFFCURVE",
"202 603 CURVE SMOOTH",
"179 592 OFFCURVE",
"158 583 OFFCURVE",
"138 574 CURVE SMOOTH",
"86 550 LINE",
"57 537 LINE",
"60 533 OFFCURVE",
"66 524 OFFCURVE",
"76 511 CURVE",
"109 464 LINE SMOOTH",
"122 446 OFFCURVE",
"135 427 OFFCURVE",
"150 407 CURVE",
"164 386 OFFCURVE",
"177 367 OFFCURVE",
"189 350 CURVE SMOOTH",
"201 332 OFFCURVE",
"211 317 OFFCURVE",
"220 305 CURVE",
"229 292 OFFCURVE",
"234 285 OFFCURVE",
"235 283 CURVE",
"248 286 OFFCURVE",
"265 289 OFFCURVE",
"277 292 CURVE",
"300 260 OFFCURVE",
"323 209 OFFCURVE",
"343 161 CURVE SMOOTH",
"363 112 OFFCURVE",
"379 63 OFFCURVE",
"387 32 CURVE",
"410 28 OFFCURVE",
"449 26 OFFCURVE",
"491 25 CURVE SMOOTH",
"512 24 OFFCURVE",
"533 24 OFFCURVE",
"555 24 CURVE SMOOTH",
"618 24 LINE SMOOTH",
"637 24 OFFCURVE",
"655 24 OFFCURVE",
"670 25 CURVE",
"704 25 LINE",
"715 49 OFFCURVE",
"735 107 OFFCURVE",
"758 172 CURVE SMOOTH",
"769 205 OFFCURVE",
"781 238 OFFCURVE",
"792 272 CURVE SMOOTH",
"803 306 OFFCURVE",
"814 336 OFFCURVE",
"823 362 CURVE",
"832 364 OFFCURVE",
"840 366 OFFCURVE",
"847 369 CURVE",
"866 375 LINE",
"880 379 LINE",
"888 412 OFFCURVE",
"896 469 OFFCURVE",
"902 522 CURVE SMOOTH",
"905 548 OFFCURVE",
"907 573 OFFCURVE",
"910 596 CURVE SMOOTH",
"915 647 LINE",
"911 648 OFFCURVE",
"901 648 OFFCURVE",
"884 649 CURVE SMOOTH",
"851 650 OFFCURVE",
"804 652 OFFCURVE",
"753 655 CURVE SMOOTH",
"727 656 OFFCURVE",
"703 658 OFFCURVE",
"680 659 CURVE SMOOTH",
"621 662 LINE SMOOTH",
"604 663 OFFCURVE",
"594 663 OFFCURVE",
"589 663 CURVE",
"589 660 LINE SMOOTH",
"589 621 OFFCURVE",
"583 571 OFFCURVE",
"575 519 CURVE SMOOTH",
"566 467 OFFCURVE",
"555 414 OFFCURVE",
"545 370 CURVE SMOOTH",
"540 348 OFFCURVE",
"535 329 OFFCURVE",
"532 312 CURVE",
"523 275 LINE",
"492 344 OFFCURVE",
"463 407 OFFCURVE",
"437 463 CURVE SMOOTH",
"426 487 OFFCURVE",
"416 511 OFFCURVE",
"405 534 CURVE SMOOTH",
"394 557 OFFCURVE",
"385 578 OFFCURVE",
"376 597 CURVE SMOOTH",
"354 644 LINE SMOOTH",
"348 657 OFFCURVE",
"344 664 OFFCURVE",
"343 667 CURVE"
);
}
);
width = 938;
}
);
unicode = 0076;
},
{
glyphname = w;
layers = (
{
layerId = "7B23AAD7-CE87-48AA-B0FE-511DC5B49C39";
name = Regular;
paths = (
{
closed = 1;
nodes = (
"566 636 LINE",
"623 465 LINE",
"662 730 LINE",
"1132 605 LINE",
"1129 580 OFFCURVE",
"1123 529 OFFCURVE",
"1115 481 CURVE SMOOTH",
"1107 432 OFFCURVE",
"1097 382 OFFCURVE",
"1089 358 CURVE",
"1039 348 LINE",
"1023 344 LINE",
"1020 323 OFFCURVE",
"1013 261 OFFCURVE",
"999 186 CURVE SMOOTH",
"985 111 OFFCURVE",
"964 26 OFFCURVE",
"936 -45 CURVE",
"613 14 LINE",
"599 65 OFFCURVE",
"586 111 OFFCURVE",
"574 152 CURVE SMOOTH",
"559 206 LINE",
"545 255 LINE",
"540 270 OFFCURVE",
"536 284 OFFCURVE",
"533 296 CURVE SMOOTH",
"530 307 OFFCURVE",
"527 315 OFFCURVE",
"526 320 CURVE",
"523 315 OFFCURVE",
"519 308 OFFCURVE",
"514 297 CURVE",
"493 260 LINE",
"440 162 LINE SMOOTH",
"418 122 OFFCURVE",
"394 78 OFFCURVE",
"369 31 CURVE",
"245 54 LINE",
"245 54 OFFCURVE",
"244 60 OFFCURVE",
"241 72 CURVE SMOOTH",
"235 96 OFFCURVE",
"223 135 OFFCURVE",
"209 181 CURVE SMOOTH",
"195 227 OFFCURVE",
"178 272 OFFCURVE",
"162 311 CURVE",
"153 330 OFFCURVE",
"145 346 OFFCURVE",
"137 357 CURVE",
"135 356 OFFCURVE",
"132 356 OFFCURVE",
"129 356 CURVE",
"117 353 LINE",
"103 350 LINE",
"-20 483 LINE",
"-17 484 OFFCURVE",
"-9 488 OFFCURVE",
"4 495 CURVE SMOOTH",
"30 508 OFFCURVE",
"69 530 OFFCURVE",
"116 556 CURVE SMOOTH",
"163 582 OFFCURVE",
"212 609 OFFCURVE",
"257 637 CURVE",
"280 650 OFFCURVE",
"300 663 OFFCURVE",
"317 674 CURVE",
"336 649 OFFCURVE",
"355 608 OFFCURVE",
"372 564 CURVE SMOOTH",
"388 519 OFFCURVE",
"403 469 OFFCURVE",
"412 425 CURVE",
"424 454 OFFCURVE",
"436 494 OFFCURVE",
"447 531 CURVE SMOOTH",
"458 568 OFFCURVE",
"466 605 OFFCURVE",
"469 626 CURVE"
);
},
{
closed = 1;
nodes = (
"677 672 LINE",
"628 372 LINE",
"592 475 LINE SMOOTH",
"587 488 OFFCURVE",
"583 502 OFFCURVE",
"578 515 CURVE SMOOTH",
"569 541 OFFCURVE",
"561 563 OFFCURVE",
"557 577 CURVE",
"552 590 LINE",
"549 590 OFFCURVE",
"545 590 OFFCURVE",
"539 589 CURVE SMOOTH",
"520 586 LINE SMOOTH",
"513 585 OFFCURVE",
"507 585 OFFCURVE",
"502 584 CURVE SMOOTH",
"496 583 OFFCURVE",
"491 583 OFFCURVE",
"488 583 CURVE",
"484 562 OFFCURVE",
"474 521 OFFCURVE",
"459 478 CURVE SMOOTH",
"443 435 OFFCURVE",
"425 390 OFFCURVE",
"405 361 CURVE",
"397 412 OFFCURVE",
"383 466 OFFCURVE",
"367 512 CURVE SMOOTH",
"351 558 OFFCURVE",
"333 596 OFFCURVE",
"317 619 CURVE",
"274 595 OFFCURVE",
"213 561 OFFCURVE",
"157 532 CURVE SMOOTH",
"129 517 OFFCURVE",
"103 504 OFFCURVE",
"80 492 CURVE SMOOTH",
"56 480 OFFCURVE",
"38 471 OFFCURVE",
"27 465 CURVE",
"76 416 LINE",
"86 405 OFFCURVE",
"95 396 OFFCURVE",
"104 387 CURVE",
"112 378 OFFCURVE",
"117 373 OFFCURVE",
"119 372 CURVE",
"121 373 OFFCURVE",
"124 373 OFFCURVE",
"128 374 CURVE",
"136 374 OFFCURVE",
"145 375 OFFCURVE",
"154 378 CURVE",
"179 349 OFFCURVE",
"206 286 OFFCURVE",
"227 226 CURVE SMOOTH",
"248 166 OFFCURVE",
"265 109 OFFCURVE",
"270 89 CURVE",
"277 89 OFFCURVE",
"296 87 OFFCURVE",
"316 84 CURVE",
"345 81 LINE SMOOTH",
"354 80 OFFCURVE",
"359 79 OFFCURVE",
"362 78 CURVE",
"363 79 OFFCURVE",
"367 85 OFFCURVE",
"372 94 CURVE SMOOTH",
"392 129 LINE",
"449 230 LINE SMOOTH",
"473 272 OFFCURVE",
"500 320 OFFCURVE",
"531 373 CURVE",
"548 316 OFFCURVE",
"564 265 OFFCURVE",
"578 220 CURVE SMOOTH",
"596 163 LINE",
"601 144 OFFCURVE",
"606 128 OFFCURVE",
"611 113 CURVE SMOOTH",
"623 76 LINE SMOOTH",
"626 66 OFFCURVE",
"627 60 OFFCURVE",
"628 59 CURVE",
"653 56 LINE",
"667 53 OFFCURVE",
"684 50 OFFCURVE",
"705 47 CURVE",
"725 43 OFFCURVE",
"747 39 OFFCURVE",
"771 35 CURVE SMOOTH",
"890 14 LINE SMOOTH",
"905 11 OFFCURVE",
"913 10 OFFCURVE",
"915 9 CURVE",
"942 76 OFFCURVE",
"962 162 OFFCURVE",
"975 232 CURVE SMOOTH",
"982 267 OFFCURVE",
"987 296 OFFCURVE",
"991 321 CURVE SMOOTH",
"996 361 LINE",
"1025 367 LINE",
"1047 371 LINE",
"1054 372 OFFCURVE",
"1059 373 OFFCURVE",
"1061 374 CURVE",
"1066 394 OFFCURVE",
"1074 434 OFFCURVE",
"1082 473 CURVE SMOOTH",
"1089 512 OFFCURVE",
"1095 550 OFFCURVE",
"1098 567 CURVE",
"1095 568 OFFCURVE",
"1084 571 OFFCURVE",
"1063 576 CURVE SMOOTH",
"1042 581 OFFCURVE",
"1016 588 OFFCURVE",
"986 595 CURVE SMOOTH",
"955 602 OFFCURVE",
"923 611 OFFCURVE",
"888 620 CURVE SMOOTH",
"853 629 OFFCURVE",
"821 637 OFFCURVE",
"791 644 CURVE SMOOTH",
"760 651 OFFCURVE",
"735 658 OFFCURVE",
"714 663 CURVE SMOOTH"
);
}
);
width = 1137;
}
);
unicode = 0077;
},
{
glyphname = x;
layers = (
{
layerId = "7B23AAD7-CE87-48AA-B0FE-511DC5B49C39";
name = Regular;
paths = (
{
closed = 1;
nodes = (
"226 684 LINE",
"285 648 OFFCURVE",
"348 605 OFFCURVE",
"424 549 CURVE",
"444 569 OFFCURVE",
"481 600 OFFCURVE",
"519 631 CURVE SMOOTH",
"557 662 OFFCURVE",
"594 694 OFFCURVE",
"614 711 CURVE",
"781 561 LINE",
"772 552 OFFCURVE",
"760 541 OFFCURVE",
"744 528 CURVE",
"646 442 LINE SMOOTH",
"631 428 OFFCURVE",
"619 417 OFFCURVE",
"612 408 CURVE",
"629 396 LINE",
"636 390 OFFCURVE",
"644 384 OFFCURVE",
"653 378 CURVE",
"669 365 OFFCURVE",
"686 352 OFFCURVE",
"691 347 CURVE",
"730 384 LINE",
"759 412 LINE",
"868 217 LINE",
"565 -42 LINE",
"520 29 OFFCURVE",
"471 91 OFFCURVE",
"416 155 CURVE",
"369 87 OFFCURVE",
"340 34 OFFCURVE",
"321 -26 CURVE",
"300 -2 LINE",
"276 23 OFFCURVE",
"240 62 OFFCURVE",
"197 107 CURVE SMOOTH",
"153 151 OFFCURVE",
"108 198 OFFCURVE",
"65 239 CURVE SMOOTH",
"44 259 OFFCURVE",
"24 276 OFFCURVE",
"7 291 CURVE",
"82 288 LINE SMOOTH",
"101 287 OFFCURVE",
"119 286 OFFCURVE",
"136 286 CURVE",
"152 285 OFFCURVE",
"161 285 OFFCURVE",
"164 285 CURVE",
"171 293 OFFCURVE",
"180 303 OFFCURVE",
"191 314 CURVE",
"201 325 OFFCURVE",
"213 337 OFFCURVE",
"226 352 CURVE",
"175 397 OFFCURVE",
"131 433 OFFCURVE",
"84 461 CURVE"
);
},
{
closed = 1;
nodes = (
"226 621 LINE",
"205 589 LINE SMOOTH",
"197 576 OFFCURVE",
"189 563 OFFCURVE",
"180 550 CURVE SMOOTH",
"162 523 OFFCURVE",
"145 498 OFFCURVE",
"134 480 CURVE",
"122 462 LINE",
"161 439 OFFCURVE",
"204 403 OFFCURVE",
"264 352 CURVE",
"244 332 OFFCURVE",
"227 315 OFFCURVE",
"214 301 CURVE SMOOTH",
"201 287 OFFCURVE",
"189 275 OFFCURVE",
"179 265 CURVE",
"93 261 LINE",
"129 229 OFFCURVE",
"173 189 OFFCURVE",
"211 152 CURVE SMOOTH",
"249 115 OFFCURVE",
"282 80 OFFCURVE",
"302 59 CURVE",
"306 71 OFFCURVE",
"323 93 OFFCURVE",
"344 120 CURVE SMOOTH",
"364 147 OFFCURVE",
"391 176 OFFCURVE",
"416 203 CURVE",
"449 166 OFFCURVE",
"479 132 OFFCURVE",
"508 103 CURVE SMOOTH",
"537 74 OFFCURVE",
"561 45 OFFCURVE",
"582 17 CURVE",
"606 38 LINE",
"633 60 OFFCURVE",
"670 90 OFFCURVE",
"711 125 CURVE SMOOTH",
"768 173 LINE",
"814 211 LINE SMOOTH",
"827 222 OFFCURVE",
"834 228 OFFCURVE",
"836 229 CURVE",
"832 236 OFFCURVE",
"816 263 OFFCURVE",
"800 292 CURVE",
"783 320 OFFCURVE",
"766 349 OFFCURVE",
"761 360 CURVE",
"753 353 OFFCURVE",
"735 338 OFFCURVE",
"716 325 CURVE SMOOTH",
"705 318 OFFCURVE",
"694 309 OFFCURVE",
"683 300 CURVE",
"580 403 LINE",
"597 423 OFFCURVE",
"633 455 OFFCURVE",
"668 484 CURVE SMOOTH",
"685 498 OFFCURVE",
"702 511 OFFCURVE",
"717 524 CURVE SMOOTH",
"732 537 OFFCURVE",
"743 546 OFFCURVE",
"749 552 CURVE",
"746 555 OFFCURVE",
"738 563 OFFCURVE",
"725 574 CURVE SMOOTH",
"712 585 OFFCURVE",
"699 596 OFFCURVE",
"685 609 CURVE SMOOTH",
"657 634 OFFCURVE",
"628 659 OFFCURVE",
"621 664 CURVE",
"584 636 LINE SMOOTH",
"550 611 OFFCURVE",
"510 580 OFFCURVE",
"474 550 CURVE SMOOTH",
"455 535 OFFCURVE",
"440 521 OFFCURVE",
"428 510 CURVE",
"345 569 OFFCURVE",
"286 607 OFFCURVE",
"238 638 CURVE"
);
}
);
width = 868;
}
);
unicode = 0078;
},
{
glyphname = y;
layers = (
{
layerId = "7B23AAD7-CE87-48AA-B0FE-511DC5B49C39";
name = Regular;
paths = (
{
closed = 1;
nodes = (
"55 613 LINE",
"70 614 OFFCURVE",
"104 618 OFFCURVE",
"144 625 CURVE SMOOTH",
"164 628 OFFCURVE",
"185 632 OFFCURVE",
"208 637 CURVE SMOOTH",
"274 649 LINE SMOOTH",
"316 657 OFFCURVE",
"352 665 OFFCURVE",
"371 670 CURVE",
"382 610 LINE",
"371 593 OFFCURVE",
"363 579 OFFCURVE",
"355 567 CURVE SMOOTH",
"351 561 OFFCURVE",
"348 557 OFFCURVE",
"346 555 CURVE",
"351 539 OFFCURVE",
"364 508 OFFCURVE",
"377 476 CURVE SMOOTH",
"384 460 OFFCURVE",
"390 445 OFFCURVE",
"397 430 CURVE SMOOTH",
"404 415 OFFCURVE",
"409 402 OFFCURVE",
"413 393 CURVE",
"420 400 OFFCURVE",
"429 410 OFFCURVE",
"440 423 CURVE SMOOTH",
"450 435 OFFCURVE",
"461 448 OFFCURVE",
"473 461 CURVE",
"484 474 OFFCURVE",
"496 488 OFFCURVE",
"507 502 CURVE",
"518 515 OFFCURVE",
"528 527 OFFCURVE",
"537 537 CURVE",
"532 538 OFFCURVE",
"526 540 OFFCURVE",
"520 542 CURVE",
"480 551 LINE",
"483 629 LINE",
"530 632 OFFCURVE",
"578 637 OFFCURVE",
"626 644 CURVE SMOOTH",
"719 655 OFFCURVE",
"817 665 OFFCURVE",
"898 652 CURVE",
"850 604 OFFCURVE",
"798 521 OFFCURVE",
"743 429 CURVE SMOOTH",
"715 383 OFFCURVE",
"687 336 OFFCURVE",
"659 288 CURVE SMOOTH",
"602 191 OFFCURVE",
"545 105 OFFCURVE",
"490 43 CURVE SMOOTH",
"434 -19 OFFCURVE",
"378 -46 OFFCURVE",
"295 -45 CURVE SMOOTH",
"212 -45 OFFCURVE",
"129 -22 OFFCURVE",
"53 17 CURVE SMOOTH",
"15 36 OFFCURVE",
"-18 57 OFFCURVE",
"-46 78 CURVE",
"47 93 OFFCURVE",
"115 132 OFFCURVE",
"162 170 CURVE SMOOTH",
"185 189 OFFCURVE",
"204 206 OFFCURVE",
"217 223 CURVE SMOOTH",
"242 256 LINE",
"235 285 OFFCURVE",
"213 325 OFFCURVE",
"186 365 CURVE SMOOTH",
"159 404 OFFCURVE",
"128 444 OFFCURVE",
"104 474 CURVE",
"73 510 LINE",
"64 519 OFFCURVE",
"60 524 OFFCURVE",
"59 525 CURVE"
);
},
{
closed = 1;
nodes = (
"358 633 LINE",
"239 610 LINE SMOOTH",
"187 600 OFFCURVE",
"131 591 OFFCURVE",
"92 587 CURVE",
"88 530 LINE",
"138 477 LINE SMOOTH",
"180 433 OFFCURVE",
"224 380 OFFCURVE",
"257 327 CURVE SMOOTH",
"274 300 OFFCURVE",
"284 276 OFFCURVE",
"289 254 CURVE",
"288 251 OFFCURVE",
"282 242 OFFCURVE",
"272 227 CURVE SMOOTH",
"251 195 OFFCURVE",
"213 153 OFFCURVE",
"156 114 CURVE SMOOTH",
"127 95 OFFCURVE",
"94 80 OFFCURVE",
"56 70 CURVE",
"99 46 OFFCURVE",
"164 19 OFFCURVE",
"230 7 CURVE SMOOTH",
"296 -6 OFFCURVE",
"365 -5 OFFCURVE",
"418 27 CURVE SMOOTH",
"463 54 OFFCURVE",
"509 115 OFFCURVE",
"554 190 CURVE SMOOTH",
"577 227 OFFCURVE",
"599 267 OFFCURVE",
"622 309 CURVE SMOOTH",
"667 393 OFFCURVE",
"716 476 OFFCURVE",
"765 545 CURVE SMOOTH",
"790 580 OFFCURVE",
"815 608 OFFCURVE",
"842 631 CURVE",
"814 632 OFFCURVE",
"777 630 OFFCURVE",
"737 626 CURVE SMOOTH",
"675 620 LINE",
"654 617 OFFCURVE",
"635 615 OFFCURVE",
"616 613 CURVE",
"573 606 OFFCURVE",
"534 602 OFFCURVE",
"499 599 CURVE",
"498 588 OFFCURVE",
"497 568 OFFCURVE",
"497 561 CURVE",
"547 554 LINE",
"559 553 OFFCURVE",
"572 551 OFFCURVE",
"587 550 CURVE",
"584 547 OFFCURVE",
"579 540 OFFCURVE",
"571 531 CURVE",
"563 521 OFFCURVE",
"553 510 OFFCURVE",
"542 497 CURVE SMOOTH",
"531 484 OFFCURVE",
"519 471 OFFCURVE",
"506 456 CURVE SMOOTH",
"480 427 OFFCURVE",
"453 399 OFFCURVE",
"432 378 CURVE SMOOTH",
"421 367 OFFCURVE",
"413 360 OFFCURVE",
"407 355 CURVE",
"406 358 OFFCURVE",
"403 365 OFFCURVE",
"398 374 CURVE SMOOTH",
"380 407 LINE SMOOTH",
"373 420 OFFCURVE",
"366 433 OFFCURVE",
"359 448 CURVE",
"343 476 OFFCURVE",
"329 505 OFFCURVE",
"318 527 CURVE",
"313 538 OFFCURVE",
"309 546 OFFCURVE",
"308 552 CURVE",
"328 569 OFFCURVE",
"343 583 OFFCURVE",
"354 595 CURVE",
"364 605 LINE",
"363 608 OFFCURVE",
"363 612 OFFCURVE",
"362 617 CURVE"
);
}
);
width = 882;
}
);
unicode = 0079;
},
{
glyphname = z;
layers = (
{
layerId = "7B23AAD7-CE87-48AA-B0FE-511DC5B49C39";
name = Regular;
paths = (
{
closed = 1;
nodes = (
"499 741 LINE",
"499 670 LINE",
"522 670 OFFCURVE",
"567 671 OFFCURVE",
"619 674 CURVE SMOOTH",
"671 677 OFFCURVE",
"729 681 OFFCURVE",
"777 688 CURVE",
"768 636 LINE",
"756 579 OFFCURVE",
"714 482 OFFCURVE",
"624 353 CURVE SMOOTH",
"579 288 OFFCURVE",
"516 217 OFFCURVE",
"437 140 CURVE",
"450 141 OFFCURVE",
"462 142 OFFCURVE",
"475 142 CURVE SMOOTH",
"488 142 OFFCURVE",
"496 142 OFFCURVE",
"499 143 CURVE",
"501 145 OFFCURVE",
"507 151 OFFCURVE",
"517 160 CURVE",
"548 190 LINE SMOOTH",
"561 202 OFFCURVE",
"575 216 OFFCURVE",
"590 231 CURVE",
"737 194 LINE",
"738 -9 LINE",
"733 -10 OFFCURVE",
"720 -11 OFFCURVE",
"697 -12 CURVE",
"651 -16 OFFCURVE",
"582 -19 OFFCURVE",
"499 -22 CURVE SMOOTH",
"416 -25 OFFCURVE",
"330 -26 OFFCURVE",
"250 -22 CURVE SMOOTH",
"210 -21 OFFCURVE",
"174 -18 OFFCURVE",
"143 -13 CURVE",
"135 110 LINE",
"138 111 OFFCURVE",
"151 118 OFFCURVE",
"173 130 CURVE SMOOTH",
"216 154 OFFCURVE",
"275 196 OFFCURVE",
"330 255 CURVE SMOOTH",
"357 284 OFFCURVE",
"378 317 OFFCURVE",
"393 353 CURVE",
"383 350 OFFCURVE",
"371 348 OFFCURVE",
"358 345 CURVE SMOOTH",
"331 339 OFFCURVE",
"301 329 OFFCURVE",
"271 314 CURVE SMOOTH",
"256 307 OFFCURVE",
"242 298 OFFCURVE",
"229 288 CURVE",
"137 309 LINE",
"137 312 OFFCURVE",
"135 326 OFFCURVE",
"132 351 CURVE SMOOTH",
"125 401 OFFCURVE",
"111 473 OFFCURVE",
"86 549 CURVE SMOOTH",
"73 587 OFFCURVE",
"58 620 OFFCURVE",
"39 649 CURVE"
);
},
{
closed = 1;
nodes = (
"464 713 LINE",
"430 706 LINE",
"412 701 OFFCURVE",
"391 696 OFFCURVE",
"366 691 CURVE SMOOTH",
"341 686 OFFCURVE",
"314 680 OFFCURVE",
"286 673 CURVE SMOOTH",
"257 666 OFFCURVE",
"231 660 OFFCURVE",
"206 655 CURVE SMOOTH",
"181 650 OFFCURVE",
"159 645 OFFCURVE",
"141 641 CURVE SMOOTH",
"107 633 LINE",
"130 589 OFFCURVE",
"148 522 OFFCURVE",
"161 462 CURVE SMOOTH",
"173 401 OFFCURVE",
"181 347 OFFCURVE",
"184 328 CURVE",
"186 327 OFFCURVE",
"190 326 OFFCURVE",
"195 325 CURVE",
"200 323 OFFCURVE",
"205 321 OFFCURVE",
"211 320 CURVE",
"236 313 LINE",
"267 334 OFFCURVE",
"308 351 OFFCURVE",
"347 363 CURVE SMOOTH",
"366 369 OFFCURVE",
"384 374 OFFCURVE",
"399 378 CURVE",
"414 381 OFFCURVE",
"425 384 OFFCURVE",
"431 386 CURVE",
"408 302 OFFCURVE",
"355 235 OFFCURVE",
"303 187 CURVE SMOOTH",
"251 138 OFFCURVE",
"201 108 OFFCURVE",
"184 97 CURVE",
"184 95 OFFCURVE",
"184 90 OFFCURVE",
"185 82 CURVE SMOOTH",
"186 73 OFFCURVE",
"186 64 OFFCURVE",
"187 55 CURVE",
"187 45 OFFCURVE",
"187 36 OFFCURVE",
"188 27 CURVE SMOOTH",
"189 18 OFFCURVE",
"189 11 OFFCURVE",
"189 7 CURVE",
"237 0 OFFCURVE",
"302 -2 OFFCURVE",
"369 -2 CURVE SMOOTH",
"436 -2 OFFCURVE",
"505 1 OFFCURVE",
"563 4 CURVE SMOOTH",
"592 5 OFFCURVE",
"617 7 OFFCURVE",
"639 9 CURVE",
"661 10 OFFCURVE",
"677 11 OFFCURVE",
"687 12 CURVE",
"687 44 LINE",
"686 60 OFFCURVE",
"686 78 OFFCURVE",
"686 97 CURVE SMOOTH",
"686 149 LINE",
"685 165 OFFCURVE",
"685 175 OFFCURVE",
"685 178 CURVE",
"666 184 LINE",
"656 186 OFFCURVE",
"646 189 OFFCURVE",
"635 192 CURVE SMOOTH",
"614 198 OFFCURVE",
"592 204 OFFCURVE",
"585 205 CURVE",
"568 188 LINE SMOOTH",
"559 179 OFFCURVE",
"549 169 OFFCURVE",
"540 159 CURVE SMOOTH",
"529 147 OFFCURVE",
"517 134 OFFCURVE",
"504 121 CURVE",
"376 116 LINE",
"516 260 OFFCURVE",
"599 383 OFFCURVE",
"649 476 CURVE SMOOTH",
"674 523 OFFCURVE",
"691 562 OFFCURVE",
"701 593 CURVE SMOOTH",
"711 624 OFFCURVE",
"718 647 OFFCURVE",
"721 661 CURVE",
"676 656 OFFCURVE",
"616 653 OFFCURVE",
"566 651 CURVE SMOOTH",
"541 650 OFFCURVE",
"519 649 OFFCURVE",
"500 649 CURVE SMOOTH",
"463 649 LINE",
"464 658 OFFCURVE",
"464 666 OFFCURVE",
"464 674 CURVE SMOOTH"
);
}
);
width = 825;
}
);
unicode = 007A;
},
{
glyphname = zero;
layers = (
{
layerId = "7B23AAD7-CE87-48AA-B0FE-511DC5B49C39";
name = Regular;
paths = (
{
closed = 1;
nodes = (
"336 733 LINE",
"609 639 LINE",
"601 617 LINE",
"595 602 LINE SMOOTH",
"593 597 OFFCURVE",
"592 595 OFFCURVE",
"591 594 CURVE",
"752 506 OFFCURVE",
"842 376 OFFCURVE",
"842 248 CURVE SMOOTH",
"842 205 OFFCURVE",
"834 165 OFFCURVE",
"815 126 CURVE SMOOTH",
"782 59 OFFCURVE",
"731 23 OFFCURVE",
"673 5 CURVE SMOOTH",
"615 -13 OFFCURVE",
"552 -13 OFFCURVE",
"494 -4 CURVE SMOOTH",
"436 4 OFFCURVE",
"383 20 OFFCURVE",
"348 33 CURVE",
"347 32 OFFCURVE",
"346 28 OFFCURVE",
"344 22 CURVE",
"323 -27 LINE",
"201 33 LINE",
"206 49 OFFCURVE",
"213 72 OFFCURVE",
"221 101 CURVE",
"190 117 OFFCURVE",
"150 147 OFFCURVE",
"112 186 CURVE SMOOTH",
"74 225 OFFCURVE",
"38 272 OFFCURVE",
"18 324 CURVE SMOOTH",
"-3 375 OFFCURVE",
"-11 431 OFFCURVE",
"9 487 CURVE SMOOTH",
"38 575 OFFCURVE",
"91 623 OFFCURVE",
"150 648 CURVE SMOOTH",
"209 673 OFFCURVE",
"274 676 OFFCURVE",
"326 673 CURVE"
);
},
{
closed = 1;
nodes = (
"320 630 OFFCURVE",
"247 635 OFFCURVE",
"183 617 CURVE SMOOTH",
"118 599 OFFCURVE",
"61 559 OFFCURVE",
"32 475 CURVE SMOOTH",
"16 430 OFFCURVE",
"24 381 OFFCURVE",
"46 336 CURVE SMOOTH",
"68 291 OFFCURVE",
"102 246 OFFCURVE",
"138 210 CURVE SMOOTH",
"174 174 OFFCURVE",
"211 145 OFFCURVE",
"238 129 CURVE",
"229 88 LINE SMOOTH",
"226 73 OFFCURVE",
"224 61 OFFCURVE",
"221 52 CURVE",
"313 10 LINE",
"336 72 LINE",
"376 57 OFFCURVE",
"440 43 OFFCURVE",
"506 42 CURVE SMOOTH",
"572 41 OFFCURVE",
"641 52 OFFCURVE",
"694 85 CURVE SMOOTH",
"747 117 OFFCURVE",
"783 172 OFFCURVE",
"783 259 CURVE SMOOTH",
"783 316 OFFCURVE",
"756 375 OFFCURVE",
"712 430 CURVE SMOOTH",
"668 485 OFFCURVE",
"607 534 OFFCURVE",
"539 573 CURVE",
"541 580 OFFCURVE",
"543 587 OFFCURVE",
"546 593 CURVE",
"555 616 LINE",
"539 621 OFFCURVE",
"492 638 OFFCURVE",
"450 654 CURVE",
"429 661 OFFCURVE",
"411 668 OFFCURVE",
"397 673 CURVE SMOOTH",
"382 678 OFFCURVE",
"377 679 OFFCURVE",
"382 677 CURVE",
"382 668 LINE",
"381 658 OFFCURVE",
"380 644 OFFCURVE",
"377 625 CURVE"
);
},
{
closed = 1;
nodes = (
"247 175 LINE",
"230 195 OFFCURVE",
"213 218 OFFCURVE",
"204 242 CURVE SMOOTH",
"195 266 OFFCURVE",
"192 292 OFFCURVE",
"203 319 CURVE",
"222 352 OFFCURVE",
"246 375 OFFCURVE",
"283 382 CURVE"
);
},
{
closed = 1;
nodes = (
"209 253 OFFCURVE",
"223 235 OFFCURVE",
"238 220 CURVE",
"245 251 OFFCURVE",
"253 290 OFFCURVE",
"260 337 CURVE",
"233 330 OFFCURVE",
"209 302 OFFCURVE",
"209 273 CURVE SMOOTH"
);
},
{
closed = 1;
nodes = (
"456 299 LINE",
"459 296 LINE",
"516 245 OFFCURVE",
"530 187 OFFCURVE",
"495 140 CURVE SMOOTH",
"472 109 OFFCURVE",
"432 97 OFFCURVE",
"377 112 CURVE"
);
},
{
closed = 1;
nodes = (
"447 239 LINE SMOOTH",
"436 213 OFFCURVE",
"423 180 OFFCURVE",
"412 156 CURVE SMOOTH",
"406 143 OFFCURVE",
"403 136 OFFCURVE",
"402 135 CURVE",
"436 129 OFFCURVE",
"462 135 OFFCURVE",
"479 154 CURVE",
"502 193 OFFCURVE",
"491 226 OFFCURVE",
"456 261 CURVE"
);
}
);
width = 845;
}
);
unicode = 0030;
},
{
glyphname = one;
layers = (
{
layerId = "7B23AAD7-CE87-48AA-B0FE-511DC5B49C39";
name = Regular;
paths = (
{
closed = 1;
nodes = (
"476 733 LINE",
"491 605 OFFCURVE",
"491 485 OFFCURVE",
"488 393 CURVE SMOOTH",
"487 346 OFFCURVE",
"485 308 OFFCURVE",
"482 277 CURVE SMOOTH",
"476 218 LINE",
"507 215 OFFCURVE",
"555 211 OFFCURVE",
"588 202 CURVE",
"572 167 OFFCURVE",
"553 122 OFFCURVE",
"534 75 CURVE SMOOTH",
"515 28 OFFCURVE",
"498 -18 OFFCURVE",
"486 -57 CURVE",
"439 -32 OFFCURVE",
"372 -4 OFFCURVE",
"301 21 CURVE SMOOTH",
"229 45 OFFCURVE",
"156 67 OFFCURVE",
"97 83 CURVE SMOOTH",
"68 91 OFFCURVE",
"43 97 OFFCURVE",
"24 102 CURVE SMOOTH",
"4 107 OFFCURVE",
"-8 109 OFFCURVE",
"-12 109 CURVE",
"37 229 LINE",
"49 229 OFFCURVE",
"60 229 OFFCURVE",
"70 228 CURVE SMOOTH",
"79 227 OFFCURVE",
"87 227 OFFCURVE",
"95 227 CURVE SMOOTH",
"109 227 LINE",
"116 246 OFFCURVE",
"124 273 OFFCURVE",
"132 300 CURVE SMOOTH",
"139 327 OFFCURVE",
"146 351 OFFCURVE",
"151 366 CURVE",
"141 365 OFFCURVE",
"129 365 OFFCURVE",
"114 365 CURVE SMOOTH",
"84 365 OFFCURVE",
"50 365 OFFCURVE",
"19 368 CURVE SMOOTH",
"3 369 OFFCURVE",
"-10 371 OFFCURVE",
"-21 373 CURVE",
"106 492 OFFCURVE",
"183 616 OFFCURVE",
"202 719 CURVE"
);
},
{
closed = 1;
nodes = (
"440 701 OFFCURVE",
"423 701 OFFCURVE",
"402 700 CURVE SMOOTH",
"381 699 OFFCURVE",
"359 699 OFFCURVE",
"337 698 CURVE SMOOTH",
"292 697 OFFCURVE",
"251 694 OFFCURVE",
"235 693 CURVE",
"216 601 OFFCURVE",
"150 494 OFFCURVE",
"42 390 CURVE",
"53 389 OFFCURVE",
"93 390 OFFCURVE",
"130 393 CURVE",
"152 394 OFFCURVE",
"176 396 OFFCURVE",
"202 398 CURVE",
"133 192 LINE",
"60 200 LINE",
"24 133 LINE",
"43 129 OFFCURVE",
"89 119 OFFCURVE",
"145 104 CURVE SMOOTH",
"201 89 OFFCURVE",
"266 71 OFFCURVE",
"326 51 CURVE SMOOTH",
"385 31 OFFCURVE",
"438 10 OFFCURVE",
"467 -10 CURVE",
"531 185 LINE",
"431 194 LINE",
"439 227 OFFCURVE",
"450 307 OFFCURVE",
"456 402 CURVE SMOOTH",
"462 497 OFFCURVE",
"464 608 OFFCURVE",
"453 701 CURVE"
);
}
);
width = 586;
}
);
unicode = 0031;
},
{
glyphname = two;
layers = (
{
layerId = "7B23AAD7-CE87-48AA-B0FE-511DC5B49C39";
name = Regular;
paths = (
{
closed = 1;
nodes = (
"385 741 OFFCURVE",
"489 746 OFFCURVE",
"577 687 CURVE SMOOTH",
"620 659 OFFCURVE",
"648 618 OFFCURVE",
"652 562 CURVE",
"653 478 OFFCURVE",
"627 392 OFFCURVE",
"593 317 CURVE SMOOTH",
"559 242 OFFCURVE",
"515 179 OFFCURVE",
"482 142 CURVE",
"512 154 LINE SMOOTH",
"536 163 OFFCURVE",
"561 173 OFFCURVE",
"581 181 CURVE",
"590 185 OFFCURVE",
"596 187 OFFCURVE",
"597 188 CURVE",
"597 189 OFFCURVE",
"597 193 OFFCURVE",
"598 198 CURVE",
"598 236 LINE",
"696 287 LINE",
"697 286 OFFCURVE",
"699 279 OFFCURVE",
"702 268 CURVE SMOOTH",
"708 245 OFFCURVE",
"719 209 OFFCURVE",
"733 168 CURVE SMOOTH",
"747 127 OFFCURVE",
"763 84 OFFCURVE",
"780 49 CURVE SMOOTH",
"789 31 OFFCURVE",
"797 16 OFFCURVE",
"806 5 CURVE",
"766 7 OFFCURVE",
"724 7 OFFCURVE",
"679 6 CURVE SMOOTH",
"415 -3 LINE SMOOTH",
"333 -7 OFFCURVE",
"260 -4 OFFCURVE",
"204 5 CURVE SMOOTH",
"176 9 OFFCURVE",
"154 16 OFFCURVE",
"139 26 CURVE",
"172 124 LINE",
"195 126 LINE SMOOTH",
"221 128 OFFCURVE",
"258 135 OFFCURVE",
"298 152 CURVE SMOOTH",
"337 169 OFFCURVE",
"382 212 OFFCURVE",
"393 251 CURVE SMOOTH",
"404 290 OFFCURVE",
"405 317 OFFCURVE",
"381 341 CURVE SMOOTH",
"369 353 OFFCURVE",
"352 355 OFFCURVE",
"330 347 CURVE",
"317 340 OFFCURVE",
"300 327 OFFCURVE",
"288 307 CURVE",
"275 287 OFFCURVE",
"264 259 OFFCURVE",
"263 223 CURVE",
"2 443 LINE",
"37 491 OFFCURVE",
"80 538 OFFCURVE",
"126 579 CURVE SMOOTH",
"172 619 OFFCURVE",
"221 656 OFFCURVE",
"266 681 CURVE"
);
},
{
closed = 1;
nodes = (
"200 603 OFFCURVE",
"116 524 OFFCURVE",
"51 435 CURVE",
"67 422 LINE",
"149 352 LINE",
"195 312 LINE SMOOTH",
"209 299 OFFCURVE",
"221 289 OFFCURVE",
"232 280 CURVE",
"242 271 OFFCURVE",
"248 265 OFFCURVE",
"250 263 CURVE",
"255 290 OFFCURVE",
"275 322 OFFCURVE",
"302 345 CURVE SMOOTH",
"329 368 OFFCURVE",
"360 380 OFFCURVE",
"387 368 CURVE SMOOTH",
"414 357 OFFCURVE",
"426 328 OFFCURVE",
"423 292 CURVE SMOOTH",
"419 256 OFFCURVE",
"400 215 OFFCURVE",
"362 180 CURVE SMOOTH",
"324 145 OFFCURVE",
"267 118 OFFCURVE",
"188 109 CURVE",
"188 105 OFFCURVE",
"184 94 OFFCURVE",
"180 83 CURVE SMOOTH",
"176 72 OFFCURVE",
"172 61 OFFCURVE",
"172 57 CURVE",
"199 41 OFFCURVE",
"250 35 OFFCURVE",
"314 34 CURVE SMOOTH",
"377 33 OFFCURVE",
"454 36 OFFCURVE",
"527 39 CURVE SMOOTH",
"612 43 OFFCURVE",
"694 48 OFFCURVE",
"754 43 CURVE",
"737 72 OFFCURVE",
"721 115 OFFCURVE",
"710 155 CURVE",
"704 174 OFFCURVE",
"699 192 OFFCURVE",
"696 209 CURVE",
"687 245 LINE",
"683 241 OFFCURVE",
"667 234 OFFCURVE",
"652 227 CURVE",
"644 224 OFFCURVE",
"637 221 OFFCURVE",
"631 218 CURVE SMOOTH",
"625 215 OFFCURVE",
"621 214 OFFCURVE",
"620 214 CURVE",
"620 205 LINE SMOOTH",
"620 200 OFFCURVE",
"620 195 OFFCURVE",
"619 190 CURVE",
"618 183 OFFCURVE",
"618 176 OFFCURVE",
"618 169 CURVE",
"448 121 LINE",
"488 158 OFFCURVE",
"533 230 OFFCURVE",
"569 310 CURVE SMOOTH",
"604 389 OFFCURVE",
"627 477 OFFCURVE",
"620 545 CURVE SMOOTH",
"615 593 OFFCURVE",
"597 629 OFFCURVE",
"561 654 CURVE SMOOTH",
"512 686 OFFCURVE",
"460 693 OFFCURVE",
"412 688 CURVE SMOOTH",
"364 683 OFFCURVE",
"319 667 OFFCURVE",
"284 648 CURVE SMOOTH"
);
}
);
width = 789;
}
);
unicode = 0032;
},
{
glyphname = three;
layers = (
{
layerId = "7B23AAD7-CE87-48AA-B0FE-511DC5B49C39";
name = Regular;
paths = (
{
closed = 1;
nodes = (
"273 766 LINE",
"276 746 OFFCURVE",
"278 729 OFFCURVE",
"281 714 CURVE",
"284 695 LINE",
"300 703 OFFCURVE",
"332 715 OFFCURVE",
"369 721 CURVE SMOOTH",
"406 727 OFFCURVE",
"450 728 OFFCURVE",
"490 719 CURVE SMOOTH",
"542 708 OFFCURVE",
"579 679 OFFCURVE",
"598 635 CURVE SMOOTH",
"609 611 OFFCURVE",
"613 592 OFFCURVE",
"613 569 CURVE SMOOTH",
"613 517 OFFCURVE",
"589 470 OFFCURVE",
"561 434 CURVE SMOOTH",
"533 397 OFFCURVE",
"502 370 OFFCURVE",
"487 358 CURVE",
"506 346 OFFCURVE",
"536 321 OFFCURVE",
"563 287 CURVE SMOOTH",
"590 253 OFFCURVE",
"611 211 OFFCURVE",
"611 168 CURVE SMOOTH",
"611 113 OFFCURVE",
"590 76 OFFCURVE",
"560 51 CURVE SMOOTH",
"530 26 OFFCURVE",
"490 12 OFFCURVE",
"455 5 CURVE SMOOTH",
"419 -2 OFFCURVE",
"386 -2 OFFCURVE",
"369 1 CURVE",
"301 9 OFFCURVE",
"245 30 OFFCURVE",
"193 54 CURVE",
"166 65 OFFCURVE",
"140 77 OFFCURVE",
"115 90 CURVE SMOOTH",
"90 102 OFFCURVE",
"63 113 OFFCURVE",
"36 123 CURVE",
"229 294 LINE",
"244 265 OFFCURVE",
"264 244 OFFCURVE",
"288 231 CURVE SMOOTH",
"311 218 OFFCURVE",
"335 214 OFFCURVE",
"355 215 CURVE SMOOTH",
"371 216 OFFCURVE",
"385 227 OFFCURVE",
"393 240 CURVE",
"400 253 OFFCURVE",
"400 271 OFFCURVE",
"384 284 CURVE",
"369 299 OFFCURVE",
"344 304 OFFCURVE",
"321 305 CURVE",
"309 306 OFFCURVE",
"298 306 OFFCURVE",
"289 305 CURVE SMOOTH",
"280 304 OFFCURVE",
"274 304 OFFCURVE",
"271 305 CURVE",
"279 355 LINE",
"281 355 LINE",
"302 359 OFFCURVE",
"330 369 OFFCURVE",
"354 382 CURVE SMOOTH",
"377 395 OFFCURVE",
"395 413 OFFCURVE",
"399 429 CURVE",
"406 453 OFFCURVE",
"392 455 OFFCURVE",
"377 455 CURVE SMOOTH",
"357 455 OFFCURVE",
"328 441 OFFCURVE",
"301 422 CURVE SMOOTH",
"274 403 OFFCURVE",
"249 382 OFFCURVE",
"237 366 CURVE",
"155 361 LINE",
"151 396 OFFCURVE",
"125 451 OFFCURVE",
"93 506 CURVE SMOOTH",
"61 561 OFFCURVE",
"21 614 OFFCURVE",
"-12 643 CURVE"
);
},
{
closed = 1;
nodes = (
"266 731 OFFCURVE",
"259 729 OFFCURVE",
"247 724 CURVE SMOOTH",
"204 706 LINE SMOOTH",
"187 699 OFFCURVE",
"169 691 OFFCURVE",
"150 684 CURVE SMOOTH",
"96 662 LINE",
"52 644 LINE",
"28 635 LINE",
"57 607 OFFCURVE",
"91 559 OFFCURVE",
"120 511 CURVE SMOOTH",
"148 462 OFFCURVE",
"171 413 OFFCURVE",
"178 381 CURVE",
"210 383 LINE",
"217 384 OFFCURVE",
"223 384 OFFCURVE",
"228 385 CURVE",
"237 385 LINE",
"250 401 OFFCURVE",
"284 436 OFFCURVE",
"321 461 CURVE SMOOTH",
"357 485 OFFCURVE",
"396 498 OFFCURVE",
"420 467 CURVE SMOOTH",
"439 442 OFFCURVE",
"423 413 OFFCURVE",
"394 390 CURVE SMOOTH",
"365 367 OFFCURVE",
"323 350 OFFCURVE",
"291 347 CURVE",
"289 323 LINE",
"353 322 OFFCURVE",
"386 307 OFFCURVE",
"403 289 CURVE SMOOTH",
"420 271 OFFCURVE",
"422 251 OFFCURVE",
"421 242 CURVE SMOOTH",
"418 218 OFFCURVE",
"400 190 OFFCURVE",
"373 187 CURVE",
"354 183 OFFCURVE",
"326 183 OFFCURVE",
"298 194 CURVE SMOOTH",
"270 205 OFFCURVE",
"242 227 OFFCURVE",
"223 267 CURVE",
"91 144 LINE",
"113 134 OFFCURVE",
"135 123 OFFCURVE",
"157 112 CURVE",
"200 88 OFFCURVE",
"245 66 OFFCURVE",
"296 51 CURVE SMOOTH",
"321 43 OFFCURVE",
"348 37 OFFCURVE",
"377 34 CURVE",
"397 33 OFFCURVE",
"440 29 OFFCURVE",
"484 42 CURVE SMOOTH",
"527 55 OFFCURVE",
"570 84 OFFCURVE",
"590 144 CURVE SMOOTH",
"602 183 OFFCURVE",
"593 218 OFFCURVE",
"576 250 CURVE SMOOTH",
"559 281 OFFCURVE",
"534 308 OFFCURVE",
"510 328 CURVE SMOOTH",
"486 348 OFFCURVE",
"465 360 OFFCURVE",
"456 363 CURVE",
"465 368 OFFCURVE",
"488 385 OFFCURVE",
"513 409 CURVE SMOOTH",
"537 433 OFFCURVE",
"563 464 OFFCURVE",
"579 501 CURVE SMOOTH",
"594 537 OFFCURVE",
"599 578 OFFCURVE",
"579 621 CURVE",
"564 662 OFFCURVE",
"532 688 OFFCURVE",
"485 697 CURVE",
"445 708 OFFCURVE",
"400 704 OFFCURVE",
"362 696 CURVE SMOOTH",
"324 688 OFFCURVE",
"292 676 OFFCURVE",
"279 665 CURVE",
"278 676 OFFCURVE",
"276 685 OFFCURVE",
"275 694 CURVE SMOOTH",
"272 716 LINE SMOOTH",
"271 723 OFFCURVE",
"269 729 OFFCURVE",
"268 732 CURVE"
);
}
);
width = 627;
}
);
unicode = 0033;
},
{
glyphname = four;
layers = (
{
layerId = "7B23AAD7-CE87-48AA-B0FE-511DC5B49C39";
name = Regular;
paths = (
{
closed = 1;
nodes = (
"525 718 LINE",
"528 721 LINE",
"542 663 OFFCURVE",
"555 611 OFFCURVE",
"566 564 CURVE SMOOTH",
"571 544 OFFCURVE",
"575 525 OFFCURVE",
"580 506 CURVE SMOOTH",
"585 487 OFFCURVE",
"589 471 OFFCURVE",
"592 456 CURVE SMOOTH",
"595 441 OFFCURVE",
"598 428 OFFCURVE",
"601 419 CURVE",
"604 404 LINE",
"633 408 OFFCURVE",
"645 420 OFFCURVE",
"650 436 CURVE",
"654 451 OFFCURVE",
"651 470 OFFCURVE",
"648 491 CURVE",
"718 498 LINE",
"721 485 OFFCURVE",
"726 466 OFFCURVE",
"733 441 CURVE SMOOTH",
"740 415 OFFCURVE",
"747 387 OFFCURVE",
"755 358 CURVE SMOOTH",
"779 271 LINE",
"798 203 LINE",
"668 181 LINE",
"676 141 OFFCURVE",
"687 99 OFFCURVE",
"698 64 CURVE SMOOTH",
"709 29 OFFCURVE",
"718 1 OFFCURVE",
"723 -12 CURVE",
"684 -16 OFFCURVE",
"621 -16 OFFCURVE",
"554 -9 CURVE SMOOTH",
"487 -2 OFFCURVE",
"419 8 OFFCURVE",
"368 24 CURVE",
"364 104 LINE",
"378 105 OFFCURVE",
"391 107 OFFCURVE",
"402 109 CURVE SMOOTH",
"417 112 LINE",
"422 112 OFFCURVE",
"426 112 OFFCURVE",
"429 113 CURVE",
"433 114 OFFCURVE",
"437 114 OFFCURVE",
"441 114 CURVE",
"428 184 LINE",
"364 183 OFFCURVE",
"280 187 OFFCURVE",
"202 199 CURVE SMOOTH",
"124 211 OFFCURVE",
"51 229 OFFCURVE",
"11 257 CURVE",
"78 309 OFFCURVE",
"146 391 OFFCURVE",
"205 475 CURVE SMOOTH",
"264 559 OFFCURVE",
"311 643 OFFCURVE",
"331 699 CURVE"
);
},
{
closed = 1;
nodes = (
"518 685 OFFCURVE",
"514 685 OFFCURVE",
"505 684 CURVE SMOOTH",
"496 683 OFFCURVE",
"486 681 OFFCURVE",
"473 680 CURVE",
"460 678 OFFCURVE",
"447 676 OFFCURVE",
"433 675 CURVE",
"418 673 OFFCURVE",
"405 671 OFFCURVE",
"392 670 CURVE",
"379 668 OFFCURVE",
"369 667 OFFCURVE",
"361 666 CURVE SMOOTH",
"347 664 LINE",
"330 615 OFFCURVE",
"288 539 OFFCURVE",
"236 464 CURVE SMOOTH",
"184 388 OFFCURVE",
"121 314 OFFCURVE",
"61 267 CURVE",
"106 244 OFFCURVE",
"170 228 OFFCURVE",
"238 217 CURVE SMOOTH",
"305 206 OFFCURVE",
"377 202 OFFCURVE",
"434 203 CURVE",
"458 100 LINE",
"424 97 LINE",
"401 94 LINE",
"387 93 OFFCURVE",
"388 92 OFFCURVE",
"389 84 CURVE",
"389 75 OFFCURVE",
"391 63 OFFCURVE",
"392 55 CURVE",
"393 50 OFFCURVE",
"393 48 OFFCURVE",
"394 47 CURVE",
"438 34 OFFCURVE",
"494 26 OFFCURVE",
"549 23 CURVE SMOOTH",
"604 19 OFFCURVE",
"655 20 OFFCURVE",
"688 24 CURVE",
"687 28 OFFCURVE",
"684 36 OFFCURVE",
"681 49 CURVE",
"674 73 OFFCURVE",
"667 107 OFFCURVE",
"659 144 CURVE SMOOTH",
"655 163 OFFCURVE",
"651 180 OFFCURVE",
"648 197 CURVE",
"662 200 LINE",
"670 201 OFFCURVE",
"680 203 OFFCURVE",
"692 206 CURVE",
"716 210 OFFCURVE",
"744 216 OFFCURVE",
"768 221 CURVE",
"763 237 OFFCURVE",
"756 260 OFFCURVE",
"749 287 CURVE",
"745 300 OFFCURVE",
"741 314 OFFCURVE",
"738 329 CURVE",
"726 371 LINE",
"698 475 LINE",
"668 467 LINE",
"671 414 OFFCURVE",
"645 379 OFFCURVE",
"592 374 CURVE",
"579 431 OFFCURVE",
"568 483 OFFCURVE",
"557 528 CURVE SMOOTH",
"532 635 LINE SMOOTH",
"529 650 OFFCURVE",
"526 662 OFFCURVE",
"524 671 CURVE",
"521 680 OFFCURVE",
"520 684 OFFCURVE",
"519 685 CURVE"
);
},
{
closed = 1;
nodes = (
"315 416 OFFCURVE",
"349 467 OFFCURVE",
"385 527 CURVE",
"392 499 OFFCURVE",
"398 470 OFFCURVE",
"405 440 CURVE SMOOTH",
"412 409 OFFCURVE",
"419 382 OFFCURVE",
"426 358 CURVE",
"411 357 OFFCURVE",
"385 355 OFFCURVE",
"355 356 CURVE SMOOTH",
"325 356 OFFCURVE",
"292 359 OFFCURVE",
"264 363 CURVE"
);
},
{
closed = 1;
nodes = (
"374 472 OFFCURVE",
"361 454 OFFCURVE",
"349 435 CURVE",
"342 426 OFFCURVE",
"336 417 OFFCURVE",
"329 409 CURVE SMOOTH",
"322 401 OFFCURVE",
"317 394 OFFCURVE",
"312 388 CURVE",
"355 384 OFFCURVE",
"382 385 OFFCURVE",
"401 388 CURVE",
"400 395 OFFCURVE",
"395 415 OFFCURVE",
"391 436 CURVE",
"386 456 OFFCURVE",
"381 477 OFFCURVE",
"381 488 CURVE"
);
}
);
width = 785;
}
);
unicode = 0034;
},
{
glyphname = five;
layers = (
{
layerId = "7B23AAD7-CE87-48AA-B0FE-511DC5B49C39";
name = Regular;
paths = (
{
closed = 1;
nodes = (
"430 717 LINE",
"631 693 LINE",
"630 658 OFFCURVE",
"629 626 OFFCURVE",
"627 596 CURVE SMOOTH",
"626 571 OFFCURVE",
"624 545 OFFCURVE",
"623 523 CURVE SMOOTH",
"622 501 OFFCURVE",
"620 483 OFFCURVE",
"619 475 CURVE",
"648 466 OFFCURVE",
"672 454 OFFCURVE",
"691 435 CURVE SMOOTH",
"726 402 OFFCURVE",
"744 358 OFFCURVE",
"744 304 CURVE SMOOTH",
"744 219 OFFCURVE",
"697 147 OFFCURVE",
"630 96 CURVE SMOOTH",
"562 45 OFFCURVE",
"474 15 OFFCURVE",
"393 12 CURVE SMOOTH",
"320 8 OFFCURVE",
"246 27 OFFCURVE",
"182 63 CURVE SMOOTH",
"117 98 OFFCURVE",
"59 151 OFFCURVE",
"19 216 CURVE",
"110 269 LINE",
"127 278 OFFCURVE",
"143 288 OFFCURVE",
"160 297 CURVE",
"148 326 OFFCURVE",
"132 362 OFFCURVE",
"113 399 CURVE SMOOTH",
"94 436 OFFCURVE",
"75 475 OFFCURVE",
"56 510 CURVE SMOOTH",
"-12 636 LINE",
"67 643 OFFCURVE",
"137 649 OFFCURVE",
"200 654 CURVE SMOOTH",
"227 656 OFFCURVE",
"253 658 OFFCURVE",
"279 661 CURVE",
"304 663 OFFCURVE",
"327 665 OFFCURVE",
"348 666 CURVE SMOOTH",
"369 667 OFFCURVE",
"386 669 OFFCURVE",
"399 670 CURVE SMOOTH",
"412 671 OFFCURVE",
"419 671 OFFCURVE",
"420 671 CURVE"
);
},
{
closed = 1;
nodes = (
"629 453 OFFCURVE",
"571 457 OFFCURVE",
"523 453 CURVE SMOOTH",
"495 450 OFFCURVE",
"466 445 OFFCURVE",
"437 438 CURVE",
"401 426 OFFCURVE",
"369 409 OFFCURVE",
"346 394 CURVE SMOOTH",
"333 386 OFFCURVE",
"320 378 OFFCURVE",
"309 369 CURVE",
"255 463 LINE",
"433 454 LINE",
"481 473 OFFCURVE",
"549 485 OFFCURVE",
"601 478 CURVE",
"602 487 OFFCURVE",
"603 500 OFFCURVE",
"604 518 CURVE",
"604 536 OFFCURVE",
"604 554 OFFCURVE",
"605 573 CURVE SMOOTH",
"606 595 OFFCURVE",
"606 618 OFFCURVE",
"606 643 CURVE",
"437 665 LINE",
"430 640 LINE",
"237 623 LINE",
"164 617 LINE",
"140 614 OFFCURVE",
"118 612 OFFCURVE",
"99 611 CURVE SMOOTH",
"50 608 LINE",
"25 606 LINE",
"46 567 LINE SMOOTH",
"66 527 OFFCURVE",
"93 470 OFFCURVE",
"122 410 CURVE SMOOTH",
"136 379 OFFCURVE",
"149 351 OFFCURVE",
"161 326 CURVE SMOOTH",
"173 300 OFFCURVE",
"183 278 OFFCURVE",
"192 261 CURVE",
"200 243 OFFCURVE",
"205 233 OFFCURVE",
"206 232 CURVE",
"239 271 OFFCURVE",
"289 310 OFFCURVE",
"339 339 CURVE SMOOTH",
"389 368 OFFCURVE",
"442 390 OFFCURVE",
"485 395 CURVE SMOOTH",
"528 399 OFFCURVE",
"561 387 OFFCURVE",
"572 351 CURVE SMOOTH",
"583 312 OFFCURVE",
"565 285 OFFCURVE",
"537 267 CURVE SMOOTH",
"509 249 OFFCURVE",
"472 239 OFFCURVE",
"445 238 CURVE",
"385 238 OFFCURVE",
"342 273 OFFCURVE",
"309 304 CURVE",
"293 292 OFFCURVE",
"266 264 OFFCURVE",
"242 239 CURVE SMOOTH",
"228 224 OFFCURVE",
"214 209 OFFCURVE",
"199 192 CURVE",
"195 203 OFFCURVE",
"191 215 OFFCURVE",
"186 226 CURVE SMOOTH",
"182 235 OFFCURVE",
"178 246 OFFCURVE",
"174 257 CURVE",
"169 268 OFFCURVE",
"165 279 OFFCURVE",
"160 288 CURVE",
"60 219 LINE",
"132 111 OFFCURVE",
"249 42 OFFCURVE",
"386 45 CURVE",
"426 48 OFFCURVE",
"485 63 OFFCURVE",
"541 91 CURVE SMOOTH",
"597 118 OFFCURVE",
"650 156 OFFCURVE",
"682 201 CURVE SMOOTH",
"709 240 OFFCURVE",
"717 284 OFFCURVE",
"713 324 CURVE SMOOTH",
"709 363 OFFCURVE",
"693 399 OFFCURVE",
"666 420 CURVE"
);
},
{
closed = 1;
nodes = (
"375 443 OFFCURVE",
"352 442 OFFCURVE",
"334 442 CURVE SMOOTH",
"311 442 LINE",
"299 442 LINE",
"306 427 OFFCURVE",
"314 407 OFFCURVE",
"321 398 CURVE",
"334 407 OFFCURVE",
"357 425 OFFCURVE",
"396 444 CURVE"
);
},
{
closed = 1;
nodes = (
"464 373 OFFCURVE",
"399 357 OFFCURVE",
"327 310 CURVE",
"358 279 OFFCURVE",
"397 257 OFFCURVE",
"452 257 CURVE SMOOTH",
"476 257 OFFCURVE",
"508 265 OFFCURVE",
"531 280 CURVE SMOOTH",
"554 295 OFFCURVE",
"568 316 OFFCURVE",
"555 341 CURVE",
"544 354 OFFCURVE",
"531 363 OFFCURVE",
"504 366 CURVE"
);
}
);
width = 740;
}
);
unicode = 0035;
},
{
glyphname = six;
layers = (
{
layerId = "7B23AAD7-CE87-48AA-B0FE-511DC5B49C39";
name = Regular;
paths = (
{
closed = 1;
nodes = (
"263 690 LINE",
"413 759 LINE",
"572 454 LINE",
"535 454 OFFCURVE",
"490 446 OFFCURVE",
"450 432 CURVE SMOOTH",
"410 418 OFFCURVE",
"373 398 OFFCURVE",
"350 374 CURVE",
"389 398 OFFCURVE",
"442 413 OFFCURVE",
"492 412 CURVE SMOOTH",
"542 411 OFFCURVE",
"589 392 OFFCURVE",
"616 345 CURVE SMOOTH",
"649 288 OFFCURVE",
"640 222 OFFCURVE",
"607 165 CURVE SMOOTH",
"574 108 OFFCURVE",
"518 57 OFFCURVE",
"455 29 CURVE SMOOTH",
"403 5 OFFCURVE",
"334 -6 OFFCURVE",
"267 2 CURVE SMOOTH",
"199 10 OFFCURVE",
"133 35 OFFCURVE",
"83 80 CURVE SMOOTH",
"33 124 OFFCURVE",
"0 189 OFFCURVE",
"0 277 CURVE SMOOTH",
"0 354 OFFCURVE",
"27 418 OFFCURVE",
"74 474 CURVE SMOOTH",
"121 529 OFFCURVE",
"187 575 OFFCURVE",
"267 615 CURVE"
);
},
{
closed = 1;
nodes = (
"284 661 LINE",
"289 592 LINE",
"217 548 OFFCURVE",
"155 507 OFFCURVE",
"109 459 CURVE SMOOTH",
"63 410 OFFCURVE",
"35 353 OFFCURVE",
"35 280 CURVE SMOOTH",
"35 203 OFFCURVE",
"66 146 OFFCURVE",
"111 106 CURVE SMOOTH",
"156 65 OFFCURVE",
"218 43 OFFCURVE",
"279 36 CURVE SMOOTH",
"339 28 OFFCURVE",
"401 36 OFFCURVE",
"446 57 CURVE",
"503 81 OFFCURVE",
"555 127 OFFCURVE",
"585 179 CURVE SMOOTH",
"615 231 OFFCURVE",
"623 292 OFFCURVE",
"594 345 CURVE",
"565 390 OFFCURVE",
"507 401 OFFCURVE",
"450 394 CURVE SMOOTH",
"393 386 OFFCURVE",
"336 361 OFFCURVE",
"308 337 CURVE",
"320 374 OFFCURVE",
"352 404 OFFCURVE",
"392 426 CURVE SMOOTH",
"432 448 OFFCURVE",
"480 461 OFFCURVE",
"527 465 CURVE",
"503 510 OFFCURVE",
"470 570 OFFCURVE",
"442 621 CURVE SMOOTH",
"425 650 OFFCURVE",
"409 680 OFFCURVE",
"392 709 CURVE"
);
},
{
closed = 1;
nodes = (
"309 297 OFFCURVE",
"315 304 OFFCURVE",
"327 309 CURVE SMOOTH",
"332 311 OFFCURVE",
"339 313 OFFCURVE",
"346 314 CURVE SMOOTH",
"379 319 OFFCURVE",
"402 310 OFFCURVE",
"413 301 CURVE SMOOTH",
"432 286 OFFCURVE",
"443 259 OFFCURVE",
"434 235 CURVE",
"427 210 OFFCURVE",
"380 203 OFFCURVE",
"345 220 CURVE SMOOTH",
"310 236 OFFCURVE",
"285 262 OFFCURVE",
"302 289 CURVE"
);
},
{
closed = 1;
nodes = (
"342 239 OFFCURVE",
"369 226 OFFCURVE",
"396 226 CURVE SMOOTH",
"412 226 OFFCURVE",
"418 243 OFFCURVE",
"413 262 CURVE SMOOTH",
"408 281 OFFCURVE",
"391 294 OFFCURVE",
"377 298 CURVE",
"363 301 OFFCURVE",
"348 299 OFFCURVE",
"337 294 CURVE SMOOTH",
"325 289 OFFCURVE",
"317 278 OFFCURVE",
"321 270 CURVE",
"322 266 OFFCURVE",
"324 262 OFFCURVE",
"327 259 CURVE"
);
}
);
width = 632;
}
);
unicode = 0036;
},
{
glyphname = seven;
layers = (
{
layerId = "7B23AAD7-CE87-48AA-B0FE-511DC5B49C39";
name = Regular;
paths = (
{
closed = 1;
nodes = (
"-6 684 LINE",
"764 713 LINE",
"764 458 LINE",
"704 414 OFFCURVE",
"653 345 OFFCURVE",
"618 263 CURVE SMOOTH",
"583 181 OFFCURVE",
"564 86 OFFCURVE",
"565 -11 CURVE",
"135 -15 LINE",
"135 -11 LINE",
"139 56 OFFCURVE",
"163 113 OFFCURVE",
"196 164 CURVE SMOOTH",
"228 215 OFFCURVE",
"270 259 OFFCURVE",
"307 302 CURVE",
"334 331 OFFCURVE",
"358 358 OFFCURVE",
"378 383 CURVE",
"359 383 LINE",
"349 382 OFFCURVE",
"338 382 OFFCURVE",
"327 382 CURVE SMOOTH",
"296 382 LINE",
"287 381 OFFCURVE",
"281 381 OFFCURVE",
"279 381 CURVE",
"279 380 OFFCURVE",
"279 376 OFFCURVE",
"278 371 CURVE",
"277 359 OFFCURVE",
"274 344 OFFCURVE",
"270 324 CURVE",
"118 324 LINE"
);
},
{
closed = 1;
nodes = (
"734 681 LINE",
"733 681 OFFCURVE",
"723 681 OFFCURVE",
"702 680 CURVE SMOOTH",
"622 677 LINE SMOOTH",
"589 676 OFFCURVE",
"551 674 OFFCURVE",
"509 673 CURVE SMOOTH",
"467 672 OFFCURVE",
"424 670 OFFCURVE",
"381 669 CURVE SMOOTH",
"337 667 OFFCURVE",
"294 665 OFFCURVE",
"252 664 CURVE SMOOTH",
"210 663 OFFCURVE",
"173 661 OFFCURVE",
"140 660 CURVE SMOOTH",
"60 657 LINE SMOOTH",
"39 656 OFFCURVE",
"28 656 OFFCURVE",
"27 656 CURVE",
"28 655 OFFCURVE",
"30 650 OFFCURVE",
"33 641 CURVE SMOOTH",
"36 632 OFFCURVE",
"41 620 OFFCURVE",
"46 605 CURVE SMOOTH",
"51 590 OFFCURVE",
"56 574 OFFCURVE",
"63 556 CURVE SMOOTH",
"70 538 OFFCURVE",
"76 520 OFFCURVE",
"83 501 CURVE SMOOTH",
"99 457 OFFCURVE",
"116 407 OFFCURVE",
"135 352 CURVE",
"253 348 LINE",
"263 397 LINE",
"428 402 LINE",
"379 351 OFFCURVE",
"335 302 OFFCURVE",
"296 255 CURVE SMOOTH",
"263 215 OFFCURVE",
"230 171 OFFCURVE",
"204 129 CURVE SMOOTH",
"178 87 OFFCURVE",
"160 48 OFFCURVE",
"159 17 CURVE",
"160 17 OFFCURVE",
"166 17 OFFCURVE",
"177 18 CURVE",
"188 18 OFFCURVE",
"202 18 OFFCURVE",
"220 19 CURVE",
"238 19 OFFCURVE",
"258 19 OFFCURVE",
"281 20 CURVE SMOOTH",
"304 21 OFFCURVE",
"327 21 OFFCURVE",
"351 22 CURVE SMOOTH",
"407 24 OFFCURVE",
"470 26 OFFCURVE",
"541 27 CURVE",
"542 112 OFFCURVE",
"562 203 OFFCURVE",
"595 283 CURVE SMOOTH",
"628 363 OFFCURVE",
"675 434 OFFCURVE",
"731 475 CURVE",
"732 512 OFFCURVE",
"732 545 OFFCURVE",
"733 575 CURVE SMOOTH",
"733 588 OFFCURVE",
"733 600 OFFCURVE",
"734 613 CURVE",
"734 646 LINE",
"734 671 LINE"
);
}
);
width = 776;
}
);
unicode = 0037;
},
{
glyphname = eight;
layers = (
{
layerId = "7B23AAD7-CE87-48AA-B0FE-511DC5B49C39";
name = Regular;
paths = (
{
closed = 1;
nodes = (
"42 593 OFFCURVE",
"71 647 OFFCURVE",
"119 685 CURVE SMOOTH",
"167 723 OFFCURVE",
"234 747 OFFCURVE",
"307 747 CURVE SMOOTH",
"382 747 OFFCURVE",
"448 723 OFFCURVE",
"496 685 CURVE SMOOTH",
"544 647 OFFCURVE",
"574 593 OFFCURVE",
"574 536 CURVE SMOOTH",
"574 499 OFFCURVE",
"564 463 OFFCURVE",
"543 430 CURVE",
"586 398 OFFCURVE",
"614 357 OFFCURVE",
"625 308 CURVE SMOOTH",
"628 296 OFFCURVE",
"628 283 OFFCURVE",
"628 268 CURVE SMOOTH",
"628 229 OFFCURVE",
"614 187 OFFCURVE",
"590 150 CURVE SMOOTH",
"541 74 OFFCURVE",
"458 23 OFFCURVE",
"357 4 CURVE SMOOTH",
"256 -17 OFFCURVE",
"158 -1 OFFCURVE",
"86 46 CURVE SMOOTH",
"35 79 OFFCURVE",
"2 126 OFFCURVE",
"-9 179 CURVE SMOOTH",
"-12 192 OFFCURVE",
"-12 204 OFFCURVE",
"-12 217 CURVE SMOOTH",
"-12 286 OFFCURVE",
"25 356 OFFCURVE",
"92 407 CURVE",
"57 446 OFFCURVE",
"42 489 OFFCURVE",
"42 536 CURVE SMOOTH"
);
},
{
closed = 1;
nodes = (
"172 30 OFFCURVE",
"262 17 OFFCURVE",
"351 36 CURVE SMOOTH",
"443 55 OFFCURVE",
"517 101 OFFCURVE",
"564 168 CURVE",
"593 217 OFFCURVE",
"603 265 OFFCURVE",
"593 312 CURVE SMOOTH",
"585 357 OFFCURVE",
"558 397 OFFCURVE",
"518 426 CURVE",
"516 426 LINE",
"518 428 LINE",
"538 456 OFFCURVE",
"548 489 OFFCURVE",
"548 521 CURVE SMOOTH",
"548 573 OFFCURVE",
"522 620 OFFCURVE",
"479 656 CURVE SMOOTH",
"435 691 OFFCURVE",
"375 712 OFFCURVE",
"307 712 CURVE SMOOTH",
"240 712 OFFCURVE",
"180 691 OFFCURVE",
"136 656 CURVE SMOOTH",
"92 620 OFFCURVE",
"65 573 OFFCURVE",
"65 521 CURVE SMOOTH",
"65 478 OFFCURVE",
"81 440 OFFCURVE",
"113 407 CURVE SMOOTH",
"115 405 LINE",
"113 405 LINE",
"41 345 OFFCURVE",
"4 268 OFFCURVE",
"20 195 CURVE SMOOTH",
"31 147 OFFCURVE",
"60 106 OFFCURVE",
"105 75 CURVE SMOOTH"
);
},
{
closed = 1;
nodes = (
"205 502 OFFCURVE",
"224 529 OFFCURVE",
"248 543 CURVE SMOOTH",
"272 557 OFFCURVE",
"300 558 OFFCURVE",
"307 558 CURVE SMOOTH",
"335 558 OFFCURVE",
"361 550 OFFCURVE",
"379 535 CURVE SMOOTH",
"397 519 OFFCURVE",
"408 496 OFFCURVE",
"405 468 CURVE",
"342 479 OFFCURVE",
"275 470 OFFCURVE",
"214 453 CURVE"
);
},
{
closed = 1;
nodes = (
"284 543 OFFCURVE",
"269 533 OFFCURVE",
"260 521 CURVE",
"251 508 OFFCURVE",
"246 492 OFFCURVE",
"249 481 CURVE",
"288 492 OFFCURVE",
"333 497 OFFCURVE",
"372 488 CURVE",
"367 525 OFFCURVE",
"340 543 OFFCURVE",
"303 543 CURVE SMOOTH"
);
},
{
closed = 1;
nodes = (
"233 285 OFFCURVE",
"245 299 OFFCURVE",
"261 307 CURVE SMOOTH",
"277 315 OFFCURVE",
"299 317 OFFCURVE",
"320 312 CURVE SMOOTH",
"357 304 OFFCURVE",
"388 283 OFFCURVE",
"387 248 CURVE SMOOTH",
"387 227 OFFCURVE",
"374 211 OFFCURVE",
"356 202 CURVE SMOOTH",
"338 193 OFFCURVE",
"315 191 OFFCURVE",
"296 195 CURVE SMOOTH",
"279 199 OFFCURVE",
"259 208 OFFCURVE",
"246 220 CURVE SMOOTH",
"233 232 OFFCURVE",
"225 248 OFFCURVE",
"229 268 CURVE SMOOTH"
);
},
{
closed = 1;
nodes = (
"322 217 OFFCURVE",
"353 221 OFFCURVE",
"357 248 CURVE",
"362 268 OFFCURVE",
"345 289 OFFCURVE",
"314 296 CURVE SMOOTH",
"289 301 OFFCURVE",
"259 295 OFFCURVE",
"256 268 CURVE SMOOTH",
"253 245 OFFCURVE",
"272 227 OFFCURVE",
"299 222 CURVE SMOOTH"
);
}
);
width = 625;
}
);
unicode = 0038;
},
{
glyphname = nine;
layers = (
{
layerId = "7B23AAD7-CE87-48AA-B0FE-511DC5B49C39";
name = Regular;
paths = (
{
closed = 1;
nodes = (
"-33 511 OFFCURVE",
"-6 591 OFFCURVE",
"55 647 CURVE SMOOTH",
"116 702 OFFCURVE",
"213 733 OFFCURVE",
"346 733 CURVE SMOOTH",
"481 733 OFFCURVE",
"578 682 OFFCURVE",
"635 600 CURVE SMOOTH",
"692 518 OFFCURVE",
"709 404 OFFCURVE",
"682 279 CURVE SMOOTH",
"662 190 OFFCURVE",
"615 127 OFFCURVE",
"556 84 CURVE SMOOTH",
"496 40 OFFCURVE",
"426 15 OFFCURVE",
"361 3 CURVE SMOOTH",
"296 -10 OFFCURVE",
"235 -12 OFFCURVE",
"195 -11 CURVE",
"202 29 OFFCURVE",
"205 63 OFFCURVE",
"206 98 CURVE SMOOTH",
"206 133 OFFCURVE",
"204 168 OFFCURVE",
"200 208 CURVE",
"175 209 OFFCURVE",
"151 213 OFFCURVE",
"127 218 CURVE SMOOTH",
"114 221 OFFCURVE",
"103 224 OFFCURVE",
"92 228 CURVE",
"16 259 OFFCURVE",
"-24 323 OFFCURVE",
"-28 415 CURVE SMOOTH"
);
},
{
closed = 1;
nodes = (
"162 221 OFFCURVE",
"219 219 OFFCURVE",
"274 228 CURVE SMOOTH",
"329 237 OFFCURVE",
"381 260 OFFCURVE",
"424 289 CURVE",
"419 240 OFFCURVE",
"393 208 OFFCURVE",
"365 188 CURVE SMOOTH",
"336 167 OFFCURVE",
"303 158 OFFCURVE",
"283 154 CURVE",
"275 167 OFFCURVE",
"268 177 OFFCURVE",
"263 185 CURVE",
"260 188 OFFCURVE",
"258 191 OFFCURVE",
"257 192 CURVE",
"249 189 OFFCURVE",
"230 188 OFFCURVE",
"222 188 CURVE",
"223 177 OFFCURVE",
"225 162 OFFCURVE",
"226 145 CURVE SMOOTH",
"227 127 OFFCURVE",
"229 110 OFFCURVE",
"230 94 CURVE SMOOTH",
"231 75 OFFCURVE",
"233 56 OFFCURVE",
"234 35 CURVE",
"261 38 OFFCURVE",
"310 42 OFFCURVE",
"365 55 CURVE SMOOTH",
"420 67 OFFCURVE",
"481 88 OFFCURVE",
"533 127 CURVE SMOOTH",
"585 166 OFFCURVE",
"629 221 OFFCURVE",
"646 301 CURVE SMOOTH",
"667 409 OFFCURVE",
"657 511 OFFCURVE",
"609 585 CURVE SMOOTH",
"561 659 OFFCURVE",
"475 705 OFFCURVE",
"346 705 CURVE SMOOTH",
"229 705 OFFCURVE",
"129 673 OFFCURVE",
"66 610 CURVE",
"17 557 OFFCURVE",
"-6 491 OFFCURVE",
"-4 412 CURVE",
"3 328 OFFCURVE",
"39 275 OFFCURVE",
"107 244 CURVE SMOOTH"
);
},
{
closed = 1;
nodes = (
"399 420 OFFCURVE",
"429 397 OFFCURVE",
"429 366 CURVE SMOOTH",
"429 335 OFFCURVE",
"399 312 OFFCURVE",
"363 312 CURVE SMOOTH",
"327 312 OFFCURVE",
"299 335 OFFCURVE",
"299 366 CURVE SMOOTH",
"299 397 OFFCURVE",
"327 420 OFFCURVE",
"363 420 CURVE SMOOTH"
);
},
{
closed = 1;
nodes = (
"381 335 OFFCURVE",
"401 350 OFFCURVE",
"401 370 CURVE SMOOTH",
"401 390 OFFCURVE",
"381 407 OFFCURVE",
"354 407 CURVE SMOOTH",
"327 407 OFFCURVE",
"308 390 OFFCURVE",
"308 370 CURVE SMOOTH",
"308 350 OFFCURVE",
"327 335 OFFCURVE",
"354 335 CURVE SMOOTH"
);
},
{
closed = 1;
nodes = (
"363 228 OFFCURVE",
"319 213 OFFCURVE",
"264 208 CURVE",
"278 189 LINE",
"281 181 LINE",
"341 192 OFFCURVE",
"376 208 OFFCURVE",
"396 244 CURVE"
);
}
);
width = 684;
}
);
unicode = 0039;
},
{
glyphname = asterisk;
layers = (
{
layerId = "7B23AAD7-CE87-48AA-B0FE-511DC5B49C39";
name = Regular;
paths = (
{
closed = 1;
nodes = (
"241 556 OFFCURVE",
"285 560 OFFCURVE",
"313 560 CURVE",
"327 547 OFFCURVE",
"337 531 OFFCURVE",
"344 514 CURVE",
"350 496 OFFCURVE",
"357 476 OFFCURVE",
"366 454 CURVE",
"399 467 OFFCURVE",
"439 471 OFFCURVE",
"462 467 CURVE",
"481 460 OFFCURVE",
"501 442 OFFCURVE",
"517 417 CURVE",
"510 405 OFFCURVE",
"494 389 OFFCURVE",
"474 372 CURVE SMOOTH",
"454 355 OFFCURVE",
"431 337 OFFCURVE",
"411 322 CURVE",
"436 299 OFFCURVE",
"457 261 OFFCURVE",
"466 236 CURVE",
"451 189 OFFCURVE",
"412 149 OFFCURVE",
"349 121 CURVE",
"334 129 OFFCURVE",
"313 147 OFFCURVE",
"293 167 CURVE",
"272 186 OFFCURVE",
"254 207 OFFCURVE",
"243 222 CURVE",
"236 216 OFFCURVE",
"228 209 OFFCURVE",
"219 200 CURVE SMOOTH",
"201 182 OFFCURVE",
"180 162 OFFCURVE",
"159 146 CURVE SMOOTH",
"148 137 OFFCURVE",
"138 130 OFFCURVE",
"128 125 CURVE",
"99 132 OFFCURVE",
"55 150 OFFCURVE",
"30 191 CURVE",
"34 207 OFFCURVE",
"47 230 OFFCURVE",
"62 251 CURVE",
"69 262 OFFCURVE",
"77 272 OFFCURVE",
"85 282 CURVE",
"104 308 LINE",
"75 327 OFFCURVE",
"31 357 OFFCURVE",
"0 381 CURVE",
"23 410 OFFCURVE",
"43 427 OFFCURVE",
"60 439 CURVE",
"68 442 OFFCURVE",
"87 440 OFFCURVE",
"109 437 CURVE SMOOTH",
"131 434 OFFCURVE",
"158 431 OFFCURVE",
"183 427 CURVE",
"186 474 OFFCURVE",
"199 516 OFFCURVE",
"214 540 CURVE"
);
},
{
closed = 1;
nodes = (
"201 410 LINE",
"181 411 OFFCURVE",
"162 413 OFFCURVE",
"143 416 CURVE",
"124 418 OFFCURVE",
"111 418 OFFCURVE",
"106 417 CURVE",
"91 408 OFFCURVE",
"71 391 OFFCURVE",
"54 372 CURVE",
"70 347 OFFCURVE",
"107 326 OFFCURVE",
"130 311 CURVE",
"122 300 OFFCURVE",
"108 282 OFFCURVE",
"96 263 CURVE SMOOTH",
"83 243 OFFCURVE",
"71 223 OFFCURVE",
"67 210 CURVE",
"90 178 OFFCURVE",
"119 163 OFFCURVE",
"144 159 CURVE",
"159 167 OFFCURVE",
"178 183 OFFCURVE",
"197 199 CURVE SMOOTH",
"224 223 LINE",
"245 241 LINE",
"252 229 OFFCURVE",
"269 213 OFFCURVE",
"286 198 CURVE SMOOTH",
"303 183 OFFCURVE",
"322 171 OFFCURVE",
"334 166 CURVE",
"429 249 LINE",
"385 320 LINE",
"401 331 OFFCURVE",
"420 348 OFFCURVE",
"439 365 CURVE SMOOTH",
"458 381 OFFCURVE",
"473 397 OFFCURVE",
"481 406 CURVE",
"466 425 OFFCURVE",
"433 441 OFFCURVE",
"418 446 CURVE",
"402 449 OFFCURVE",
"374 444 OFFCURVE",
"350 432 CURVE",
"335 469 OFFCURVE",
"327 496 OFFCURVE",
"308 517 CURVE",
"303 517 OFFCURVE",
"294 517 OFFCURVE",
"282 518 CURVE SMOOTH",
"270 519 OFFCURVE",
"255 518 OFFCURVE",
"238 517 CURVE"
);
}
);
width = 500;
}
);
unicode = 002A;
},
{
glyphname = backslash;
layers = (
{
layerId = "7B23AAD7-CE87-48AA-B0FE-511DC5B49C39";
name = Regular;
paths = (
{
closed = 1;
nodes = (
"322 16 OFFCURVE",
"275 69 OFFCURVE",
"230 127 CURVE SMOOTH",
"185 185 OFFCURVE",
"144 248 OFFCURVE",
"108 305 CURVE SMOOTH",
"67 373 OFFCURVE",
"27 444 OFFCURVE",
"-10 519 CURVE",
"14 546 OFFCURVE",
"38 567 OFFCURVE",
"66 592 CURVE SMOOTH",
"80 604 OFFCURVE",
"94 615 OFFCURVE",
"107 624 CURVE",
"135 563 OFFCURVE",
"175 498 OFFCURVE",
"223 436 CURVE SMOOTH",
"270 374 OFFCURVE",
"324 313 OFFCURVE",
"376 261 CURVE SMOOTH",
"428 209 OFFCURVE",
"480 165 OFFCURVE",
"523 134 CURVE",
"514 118 OFFCURVE",
"488 88 OFFCURVE",
"458 58 CURVE SMOOTH",
"428 28 OFFCURVE",
"394 -4 OFFCURVE",
"370 -21 CURVE"
);
},
{
closed = 1;
nodes = (
"25 483 OFFCURVE",
"53 431 OFFCURVE",
"90 369 CURVE SMOOTH",
"126 307 OFFCURVE",
"171 236 OFFCURVE",
"219 173 CURVE SMOOTH",
"266 109 OFFCURVE",
"316 55 OFFCURVE",
"360 27 CURVE",
"393 56 OFFCURVE",
"416 80 OFFCURVE",
"435 102 CURVE SMOOTH",
"444 113 OFFCURVE",
"449 121 OFFCURVE",
"450 126 CURVE",
"423 150 OFFCURVE",
"381 197 OFFCURVE",
"334 250 CURVE SMOOTH",
"287 303 OFFCURVE",
"235 365 OFFCURVE",
"191 422 CURVE SMOOTH",
"147 478 OFFCURVE",
"109 529 OFFCURVE",
"89 562 CURVE",
"56 543 OFFCURVE",
"32 523 OFFCURVE",
"13 508 CURVE"
);
}
);
width = 500;
}
);
unicode = 005C;
},
{
glyphname = colon;
layers = (
{
layerId = "7B23AAD7-CE87-48AA-B0FE-511DC5B49C39";
name = Regular;
paths = (
{
closed = 1;
nodes = (
"211 677 OFFCURVE",
"252 669 OFFCURVE",
"279 650 CURVE SMOOTH",
"310 627 OFFCURVE",
"328 595 OFFCURVE",
"333 555 CURVE",
"333 553 OFFCURVE",
"334 550 OFFCURVE",
"335 547 CURVE",
"336 543 OFFCURVE",
"337 540 OFFCURVE",
"337 537 CURVE SMOOTH",
"337 497 OFFCURVE",
"319 456 OFFCURVE",
"292 425 CURVE",
"261 384 OFFCURVE",
"211 357 OFFCURVE",
"166 353 CURVE",
"126 348 OFFCURVE",
"85 357 OFFCURVE",
"58 380 CURVE",
"27 403 OFFCURVE",
"9 434 OFFCURVE",
"4 470 CURVE",
"-5 515 OFFCURVE",
"13 564 OFFCURVE",
"45 605 CURVE",
"76 641 OFFCURVE",
"126 668 OFFCURVE",
"171 672 CURVE"
);
},
{
closed = 1;
nodes = (
"196 376 OFFCURVE",
"234 404 OFFCURVE",
"256 437 CURVE SMOOTH",
"278 469 OFFCURVE",
"288 508 OFFCURVE",
"281 547 CURVE SMOOTH",
"277 566 OFFCURVE",
"270 583 OFFCURVE",
"261 596 CURVE",
"246 623 OFFCURVE",
"225 636 OFFCURVE",
"198 645 CURVE",
"171 650 OFFCURVE",
"144 646 OFFCURVE",
"121 627 CURVE",
"90 608 OFFCURVE",
"67 578 OFFCURVE",
"58 537 CURVE SMOOTH",
"49 501 OFFCURVE",
"57 461 OFFCURVE",
"76 429 CURVE",
"91 406 OFFCURVE",
"112 389 OFFCURVE",
"139 384 CURVE"
);
},
{
closed = 1;
nodes = (
"211 327 OFFCURVE",
"252 319 OFFCURVE",
"279 300 CURVE SMOOTH",
"310 277 OFFCURVE",
"328 245 OFFCURVE",
"333 205 CURVE",
"333 203 OFFCURVE",
"334 200 OFFCURVE",
"335 197 CURVE",
"336 193 OFFCURVE",
"337 190 OFFCURVE",
"337 187 CURVE SMOOTH",
"337 147 OFFCURVE",
"319 106 OFFCURVE",
"292 75 CURVE",
"261 34 OFFCURVE",
"211 7 OFFCURVE",
"166 3 CURVE",
"126 -2 OFFCURVE",
"85 7 OFFCURVE",
"58 30 CURVE",
"27 53 OFFCURVE",
"9 84 OFFCURVE",
"4 120 CURVE",
"-5 165 OFFCURVE",
"13 214 OFFCURVE",
"45 255 CURVE",
"76 291 OFFCURVE",
"126 318 OFFCURVE",
"171 322 CURVE"
);
},
{
closed = 1;
nodes = (
"196 26 OFFCURVE",
"234 54 OFFCURVE",
"256 87 CURVE SMOOTH",
"278 119 OFFCURVE",
"288 158 OFFCURVE",
"281 197 CURVE SMOOTH",
"277 216 OFFCURVE",
"270 233 OFFCURVE",
"261 246 CURVE",
"246 273 OFFCURVE",
"225 286 OFFCURVE",
"198 295 CURVE",
"171 300 OFFCURVE",
"144 296 OFFCURVE",
"121 277 CURVE",
"90 258 OFFCURVE",
"67 228 OFFCURVE",
"58 187 CURVE SMOOTH",
"49 151 OFFCURVE",
"57 111 OFFCURVE",
"76 79 CURVE",
"91 56 OFFCURVE",
"112 39 OFFCURVE",
"139 34 CURVE"
);
}
);
width = 500;
}
);
unicode = 003A;
},
{
glyphname = comma;
layers = (
{
layerId = "7B23AAD7-CE87-48AA-B0FE-511DC5B49C39";
name = Regular;
paths = (
{
closed = 1;
nodes = (
"212 314 OFFCURVE",
"266 308 OFFCURVE",
"307 276 CURVE",
"354 245 OFFCURVE",
"381 186 OFFCURVE",
"390 94 CURVE SMOOTH",
"399 11 OFFCURVE",
"376 -52 OFFCURVE",
"331 -97 CURVE",
"296 -129 OFFCURVE",
"254 -145 OFFCURVE",
"215 -152 CURVE SMOOTH",
"175 -159 OFFCURVE",
"140 -156 OFFCURVE",
"117 -152 CURVE",
"142 -131 OFFCURVE",
"163 -111 OFFCURVE",
"177 -90 CURVE SMOOTH",
"191 -70 OFFCURVE",
"191 -50 OFFCURVE",
"191 -38 CURVE",
"190 -27 OFFCURVE",
"188 -21 OFFCURVE",
"185 -16 CURVE",
"183 -14 OFFCURVE",
"181 -12 OFFCURVE",
"180 -10 CURVE",
"164 -14 OFFCURVE",
"135 -19 OFFCURVE",
"106 -12 CURVE SMOOTH",
"77 -5 OFFCURVE",
"45 13 OFFCURVE",
"25 53 CURVE",
"16 69 OFFCURVE",
"5 92 OFFCURVE",
"1 118 CURVE SMOOTH",
"-3 144 OFFCURVE",
"-1 171 OFFCURVE",
"12 199 CURVE SMOOTH",
"35 250 OFFCURVE",
"80 282 OFFCURVE",
"148 295 CURVE"
);
},
{
closed = 1;
nodes = (
"88 33 OFFCURVE",
"108 18 OFFCURVE",
"129 14 CURVE",
"150 9 OFFCURVE",
"173 12 OFFCURVE",
"194 16 CURVE",
"198 16 LINE",
"203 12 LINE",
"215 -1 OFFCURVE",
"221 -17 OFFCURVE",
"221 -38 CURVE SMOOTH",
"221 -41 OFFCURVE",
"220 -44 OFFCURVE",
"219 -48 CURVE",
"217 -52 OFFCURVE",
"216 -56 OFFCURVE",
"216 -61 CURVE",
"212 -84 OFFCURVE",
"199 -105 OFFCURVE",
"176 -124 CURVE",
"216 -124 OFFCURVE",
"266 -111 OFFCURVE",
"307 -70 CURVE SMOOTH",
"340 -38 OFFCURVE",
"353 2 OFFCURVE",
"353 62 CURVE SMOOTH",
"353 94 LINE",
"336 245 OFFCURVE",
"266 298 OFFCURVE",
"167 267 CURVE SMOOTH",
"110 249 OFFCURVE",
"75 222 OFFCURVE",
"61 186 CURVE SMOOTH",
"52 163 OFFCURVE",
"52 140 OFFCURVE",
"56 118 CURVE SMOOTH",
"60 96 OFFCURVE",
"68 77 OFFCURVE",
"75 62 CURVE SMOOTH"
);
}
);
width = 396;
}
);
unicode = 002C;
},
{
glyphname = exclam;
layers = (
{
layerId = "7B23AAD7-CE87-48AA-B0FE-511DC5B49C39";
name = Regular;
paths = (
{
closed = 1;
nodes = (
"116 661 LINE",
"147 692 LINE SMOOTH",
"155 700 OFFCURVE",
"164 709 OFFCURVE",
"175 719 CURVE",
"311 712 LINE",
"307 704 LINE",
"304 683 LINE SMOOTH",
"302 670 OFFCURVE",
"299 652 OFFCURVE",
"296 630 CURVE SMOOTH",
"293 607 OFFCURVE",
"289 582 OFFCURVE",
"284 553 CURVE SMOOTH",
"279 524 OFFCURVE",
"275 493 OFFCURVE",
"270 462 CURVE SMOOTH",
"260 398 OFFCURVE",
"248 333 OFFCURVE",
"237 274 CURVE",
"233 266 LINE",
"144 250 LINE",
"-8 619 LINE",
"15 626 OFFCURVE",
"35 633 OFFCURVE",
"53 640 CURVE",
"68 645 OFFCURVE",
"82 650 OFFCURVE",
"95 655 CURVE"
);
},
{
closed = 1;
nodes = (
"131 626 LINE",
"98 614 OFFCURVE",
"73 606 OFFCURVE",
"50 599 CURVE SMOOTH",
"39 596 OFFCURVE",
"31 593 OFFCURVE",
"27 592 CURVE",
"28 589 OFFCURVE",
"32 581 OFFCURVE",
"39 566 CURVE SMOOTH",
"46 551 OFFCURVE",
"54 533 OFFCURVE",
"63 512 CURVE SMOOTH",
"72 491 OFFCURVE",
"82 468 OFFCURVE",
"93 445 CURVE SMOOTH",
"104 421 OFFCURVE",
"114 399 OFFCURVE",
"123 378 CURVE SMOOTH",
"132 357 OFFCURVE",
"139 340 OFFCURVE",
"146 326 CURVE",
"156 301 LINE",
"161 301 OFFCURVE",
"173 302 OFFCURVE",
"185 303 CURVE SMOOTH",
"196 304 OFFCURVE",
"209 307 OFFCURVE",
"214 308 CURVE",
"220 342 OFFCURVE",
"226 378 OFFCURVE",
"233 416 CURVE SMOOTH",
"246 491 OFFCURVE",
"259 561 OFFCURVE",
"268 614 CURVE SMOOTH",
"272 640 OFFCURVE",
"274 658 OFFCURVE",
"275 669 CURVE",
"267 669 OFFCURVE",
"246 670 OFFCURVE",
"226 671 CURVE",
"215 672 OFFCURVE",
"206 672 OFFCURVE",
"198 673 CURVE",
"181 673 OFFCURVE",
"182 674 OFFCURVE",
"171 664 CURVE",
"166 659 OFFCURVE",
"160 653 OFFCURVE",
"154 648 CURVE"
);
},
{
closed = 1;
nodes = (
"307 2 OFFCURVE",
"277 -11 OFFCURVE",
"245 -11 CURVE SMOOTH",
"212 -12 OFFCURVE",
"177 -2 OFFCURVE",
"146 22 CURVE",
"87 73 OFFCURVE",
"69 145 OFFCURVE",
"108 196 CURVE SMOOTH",
"127 221 OFFCURVE",
"155 234 OFFCURVE",
"188 234 CURVE SMOOTH",
"220 234 OFFCURVE",
"255 223 OFFCURVE",
"286 200 CURVE",
"315 176 OFFCURVE",
"335 146 OFFCURVE",
"342 114 CURVE SMOOTH",
"349 82 OFFCURVE",
"344 50 OFFCURVE",
"324 25 CURVE"
);
},
{
closed = 1;
nodes = (
"247 185 OFFCURVE",
"220 192 OFFCURVE",
"195 192 CURVE SMOOTH",
"170 192 OFFCURVE",
"147 185 OFFCURVE",
"131 169 CURVE",
"100 134 OFFCURVE",
"114 84 OFFCURVE",
"161 53 CURVE SMOOTH",
"185 37 OFFCURVE",
"213 30 OFFCURVE",
"239 30 CURVE SMOOTH",
"265 30 OFFCURVE",
"288 37 OFFCURVE",
"301 53 CURVE",
"317 70 OFFCURVE",
"320 91 OFFCURVE",
"315 112 CURVE SMOOTH",
"310 133 OFFCURVE",
"294 153 OFFCURVE",
"271 169 CURVE SMOOTH"
);
}
);
width = 349;
}
);
unicode = 0021;
},
{
glyphname = numbersign;
layers = (
{
layerId = "7B23AAD7-CE87-48AA-B0FE-511DC5B49C39";
name = Regular;
paths = (
{
closed = 1;
nodes = (
"772 170 OFFCURVE",
"737 165 OFFCURVE",
"690 162 CURVE SMOOTH",
"643 158 OFFCURVE",
"587 155 OFFCURVE",
"527 152 CURVE",
"530 131 OFFCURVE",
"535 110 OFFCURVE",
"541 91 CURVE SMOOTH",
"559 31 LINE",
"554 29 OFFCURVE",
"548 26 OFFCURVE",
"539 23 CURVE",
"522 15 OFFCURVE",
"502 7 OFFCURVE",
"486 -1 CURVE",
"465 -10 LINE",
"438 29 OFFCURVE",
"414 84 OFFCURVE",
"391 149 CURVE",
"323 149 LINE",
"336 108 OFFCURVE",
"353 67 OFFCURVE",
"374 28 CURVE",
"365 23 OFFCURVE",
"352 18 OFFCURVE",
"337 12 CURVE",
"322 5 OFFCURVE",
"307 -3 OFFCURVE",
"294 -13 CURVE",
"267 28 OFFCURVE",
"236 84 OFFCURVE",
"203 152 CURVE",
"132 155 OFFCURVE",
"74 161 OFFCURVE",
"42 172 CURVE",
"35 181 OFFCURVE",
"27 197 OFFCURVE",
"20 216 CURVE",
"12 235 OFFCURVE",
"6 255 OFFCURVE",
"3 275 CURVE",
"35 272 OFFCURVE",
"91 269 OFFCURVE",
"159 269 CURVE",
"148 293 OFFCURVE",
"140 323 OFFCURVE",
"133 352 CURVE",
"77 355 OFFCURVE",
"29 362 OFFCURVE",
"-6 369 CURVE",
"-17 449 LINE",
"-8 449 OFFCURVE",
"7 449 OFFCURVE",
"30 450 CURVE",
"53 450 OFFCURVE",
"80 451 OFFCURVE",
"112 452 CURVE",
"109 495 OFFCURVE",
"109 537 OFFCURVE",
"112 578 CURVE",
"268 637 LINE",
"267 616 OFFCURVE",
"266 590 OFFCURVE",
"266 561 CURVE SMOOTH",
"266 532 OFFCURVE",
"267 500 OFFCURVE",
"268 466 CURVE",
"279 466 OFFCURVE",
"290 467 OFFCURVE",
"301 468 CURVE SMOOTH",
"311 469 OFFCURVE",
"322 471 OFFCURVE",
"333 472 CURVE",
"333 511 OFFCURVE",
"333 552 OFFCURVE",
"336 595 CURVE",
"507 657 LINE",
"504 614 OFFCURVE",
"501 558 OFFCURVE",
"501 487 CURVE",
"592 502 OFFCURVE",
"675 517 OFFCURVE",
"730 537 CURVE",
"733 530 OFFCURVE",
"736 504 OFFCURVE",
"740 476 CURVE",
"743 447 OFFCURVE",
"747 415 OFFCURVE",
"750 398 CURVE",
"687 381 OFFCURVE",
"601 366 OFFCURVE",
"504 358 CURVE",
"504 333 OFFCURVE",
"504 307 OFFCURVE",
"507 284 CURVE",
"595 291 OFFCURVE",
"675 304 OFFCURVE",
"735 316 CURVE",
"739 299 OFFCURVE",
"749 272 OFFCURVE",
"760 246 CURVE SMOOTH",
"771 220 OFFCURVE",
"783 192 OFFCURVE",
"792 175 CURVE"
);
},
{
closed = 1;
nodes = (
"504 155 OFFCURVE",
"504 159 OFFCURVE",
"503 162 CURVE SMOOTH",
"502 165 OFFCURVE",
"501 168 OFFCURVE",
"501 172 CURVE",
"524 172 LINE SMOOTH",
"575 173 OFFCURVE",
"621 175 OFFCURVE",
"660 178 CURVE SMOOTH",
"699 181 OFFCURVE",
"730 184 OFFCURVE",
"747 187 CURVE",
"730 227 OFFCURVE",
"721 260 OFFCURVE",
"721 287 CURVE",
"665 278 OFFCURVE",
"591 269 OFFCURVE",
"511 261 CURVE",
"506 261 OFFCURVE",
"501 261 OFFCURVE",
"498 260 CURVE",
"494 259 OFFCURVE",
"490 258 OFFCURVE",
"485 258 CURVE",
"482 266 OFFCURVE",
"482 274 OFFCURVE",
"482 281 CURVE",
"481 294 OFFCURVE",
"479 307 OFFCURVE",
"477 319 CURVE",
"474 330 OFFCURVE",
"472 342 OFFCURVE",
"471 355 CURVE",
"471 366 LINE",
"482 366 OFFCURVE",
"490 366 OFFCURVE",
"501 369 CURVE",
"585 376 OFFCURVE",
"659 387 OFFCURVE",
"712 404 CURVE",
"708 420 OFFCURVE",
"705 443 OFFCURVE",
"702 463 CURVE SMOOTH",
"695 507 LINE",
"650 492 OFFCURVE",
"580 478 OFFCURVE",
"497 469 CURVE",
"488 466 OFFCURVE",
"480 466 OFFCURVE",
"465 466 CURVE",
"465 484 LINE SMOOTH",
"465 531 OFFCURVE",
"465 569 OFFCURVE",
"468 601 CURVE",
"362 560 LINE",
"359 529 OFFCURVE",
"359 501 OFFCURVE",
"359 472 CURVE SMOOTH",
"359 452 LINE",
"333 452 LINE",
"302 449 LINE",
"268 446 LINE",
"253 446 LINE",
"253 463 LINE",
"250 486 OFFCURVE",
"249 509 OFFCURVE",
"249 532 CURVE SMOOTH",
"249 554 OFFCURVE",
"250 573 OFFCURVE",
"253 589 CURVE",
"139 546 LINE",
"136 514 OFFCURVE",
"136 484 OFFCURVE",
"139 455 CURVE",
"139 440 LINE",
"116 440 LINE",
"65 437 OFFCURVE",
"30 437 OFFCURVE",
"15 437 CURVE",
"15 375 LINE",
"48 368 OFFCURVE",
"86 363 OFFCURVE",
"129 358 CURVE",
"151 358 LINE",
"151 357 OFFCURVE",
"152 355 OFFCURVE",
"154 354 CURVE",
"155 352 OFFCURVE",
"156 350 OFFCURVE",
"156 349 CURVE",
"159 336 OFFCURVE",
"163 322 OFFCURVE",
"166 308 CURVE SMOOTH",
"169 294 OFFCURVE",
"172 281 OFFCURVE",
"177 269 CURVE",
"180 259 LINE",
"183 249 LINE",
"165 249 LINE SMOOTH",
"109 249 OFFCURVE",
"63 252 OFFCURVE",
"32 255 CURVE",
"44 215 LINE SMOOTH",
"47 205 OFFCURVE",
"52 196 OFFCURVE",
"59 187 CURVE",
"72 184 OFFCURVE",
"91 181 OFFCURVE",
"115 180 CURVE",
"138 178 OFFCURVE",
"165 175 OFFCURVE",
"194 172 CURVE",
"216 172 LINE",
"226 152 LINE",
"249 99 OFFCURVE",
"274 59 OFFCURVE",
"294 28 CURVE",
"350 55 LINE",
"333 84 OFFCURVE",
"320 116 OFFCURVE",
"307 149 CURVE",
"305 152 OFFCURVE",
"304 156 OFFCURVE",
"303 160 CURVE",
"300 169 LINE",
"404 169 LINE",
"407 159 LINE",
"410 149 LINE SMOOTH",
"427 98 OFFCURVE",
"446 62 OFFCURVE",
"465 31 CURVE",
"530 58 LINE",
"525 74 OFFCURVE",
"521 90 OFFCURVE",
"516 105 CURVE SMOOTH",
"511 120 OFFCURVE",
"507 135 OFFCURVE",
"504 152 CURVE"
);
},
{
closed = 1;
nodes = (
"365 349 LINE",
"366 336 OFFCURVE",
"368 323 OFFCURVE",
"371 311 CURVE SMOOTH",
"374 298 OFFCURVE",
"376 286 OFFCURVE",
"377 275 CURVE",
"382 268 OFFCURVE",
"382 259 OFFCURVE",
"382 252 CURVE",
"362 252 LINE SMOOTH",
"351 252 OFFCURVE",
"340 252 OFFCURVE",
"329 251 CURVE SMOOTH",
"318 250 OFFCURVE",
"307 249 OFFCURVE",
"297 249 CURVE SMOOTH",
"277 249 LINE",
"277 252 OFFCURVE",
"277 256 OFFCURVE",
"276 259 CURVE SMOOTH",
"275 262 OFFCURVE",
"274 265 OFFCURVE",
"274 269 CURVE",
"267 293 OFFCURVE",
"265 323 OFFCURVE",
"262 346 CURVE",
"262 350 OFFCURVE",
"261 353 OFFCURVE",
"259 355 CURVE",
"342 355 LINE",
"350 358 OFFCURVE",
"358 358 OFFCURVE",
"365 358 CURVE"
);
},
{
closed = 1;
nodes = (
"314 272 OFFCURVE",
"336 272 OFFCURVE",
"359 272 CURVE",
"356 285 OFFCURVE",
"353 298 OFFCURVE",
"352 311 CURVE",
"350 323 OFFCURVE",
"348 336 OFFCURVE",
"345 349 CURVE",
"334 349 OFFCURVE",
"322 349 OFFCURVE",
"311 348 CURVE SMOOTH",
"300 347 OFFCURVE",
"288 346 OFFCURVE",
"277 346 CURVE",
"278 335 OFFCURVE",
"281 322 OFFCURVE",
"284 308 CURVE SMOOTH",
"287 294 OFFCURVE",
"290 281 OFFCURVE",
"291 269 CURVE"
);
}
);
width = 800;
}
);
unicode = 0023;
},
{
glyphname = period;
layers = (
{
layerId = "7B23AAD7-CE87-48AA-B0FE-511DC5B49C39";
name = Regular;
paths = (
{
closed = 1;
nodes = (
"211 324 OFFCURVE",
"252 316 OFFCURVE",
"279 297 CURVE SMOOTH",
"310 274 OFFCURVE",
"328 242 OFFCURVE",
"333 202 CURVE",
"333 200 OFFCURVE",
"334 197 OFFCURVE",
"335 194 CURVE",
"336 190 OFFCURVE",
"337 187 OFFCURVE",
"337 184 CURVE SMOOTH",
"337 144 OFFCURVE",
"319 103 OFFCURVE",
"292 72 CURVE",
"261 31 OFFCURVE",
"211 4 OFFCURVE",
"166 0 CURVE",
"126 -5 OFFCURVE",
"85 4 OFFCURVE",
"58 27 CURVE",
"27 50 OFFCURVE",
"9 81 OFFCURVE",
"4 117 CURVE",
"-5 162 OFFCURVE",
"13 211 OFFCURVE",
"45 252 CURVE",
"76 288 OFFCURVE",
"126 315 OFFCURVE",
"171 319 CURVE"
);
},
{
closed = 1;
nodes = (
"196 23 OFFCURVE",
"234 51 OFFCURVE",
"256 84 CURVE SMOOTH",
"278 116 OFFCURVE",
"288 155 OFFCURVE",
"281 194 CURVE SMOOTH",
"277 213 OFFCURVE",
"270 230 OFFCURVE",
"261 243 CURVE",
"246 270 OFFCURVE",
"225 283 OFFCURVE",
"198 292 CURVE",
"171 297 OFFCURVE",
"144 293 OFFCURVE",
"121 274 CURVE",
"90 255 OFFCURVE",
"67 225 OFFCURVE",
"58 184 CURVE SMOOTH",
"49 148 OFFCURVE",
"57 108 OFFCURVE",
"76 76 CURVE",
"91 53 OFFCURVE",
"112 36 OFFCURVE",
"139 31 CURVE"
);
}
);
width = 339;
}
);
unicode = 002E;
},
{
glyphname = question;
layers = (
{
layerId = "7B23AAD7-CE87-48AA-B0FE-511DC5B49C39";
name = Regular;
paths = (
{
closed = 1;
nodes = (
"173 361 LINE",
"11 628 LINE",
"199 724 LINE",
"239 671 LINE",
"268 690 OFFCURVE",
"313 707 OFFCURVE",
"361 716 CURVE SMOOTH",
"409 725 OFFCURVE",
"462 724 OFFCURVE",
"506 704 CURVE SMOOTH",
"546 687 OFFCURVE",
"575 656 OFFCURVE",
"595 618 CURVE SMOOTH",
"614 580 OFFCURVE",
"622 534 OFFCURVE",
"622 489 CURVE SMOOTH",
"622 412 OFFCURVE",
"592 366 OFFCURVE",
"556 338 CURVE SMOOTH",
"520 310 OFFCURVE",
"478 300 OFFCURVE",
"457 295 CURVE",
"456 292 OFFCURVE",
"454 283 OFFCURVE",
"453 270 CURVE",
"451 257 OFFCURVE",
"449 242 OFFCURVE",
"446 227 CURVE SMOOTH",
"443 210 OFFCURVE",
"440 190 OFFCURVE",
"437 169 CURVE",
"397 184 OFFCURVE",
"356 196 OFFCURVE",
"322 204 CURVE SMOOTH",
"305 208 OFFCURVE",
"290 211 OFFCURVE",
"279 214 CURVE",
"268 216 OFFCURVE",
"261 217 OFFCURVE",
"258 218 CURVE",
"282 374 LINE",
"302 373 OFFCURVE",
"329 374 OFFCURVE",
"356 379 CURVE",
"383 383 OFFCURVE",
"407 394 OFFCURVE",
"420 410 CURVE",
"427 421 OFFCURVE",
"431 437 OFFCURVE",
"424 453 CURVE SMOOTH",
"413 476 OFFCURVE",
"391 476 OFFCURVE",
"368 473 CURVE",
"343 468 OFFCURVE",
"317 455 OFFCURVE",
"297 439 CURVE SMOOTH",
"277 422 OFFCURVE",
"264 403 OFFCURVE",
"265 384 CURVE"
);
},
{
closed = 1;
nodes = (
"448 694 OFFCURVE",
"393 697 OFFCURVE",
"329 681 CURVE SMOOTH",
"296 673 OFFCURVE",
"264 656 OFFCURVE",
"232 631 CURVE",
"226 639 OFFCURVE",
"220 647 OFFCURVE",
"214 654 CURVE SMOOTH",
"209 660 OFFCURVE",
"204 666 OFFCURVE",
"200 672 CURVE",
"195 677 OFFCURVE",
"192 681 OFFCURVE",
"189 684 CURVE",
"159 670 LINE",
"115 649 LINE SMOOTH",
"99 642 OFFCURVE",
"84 635 OFFCURVE",
"70 628 CURVE SMOOTH",
"55 621 OFFCURVE",
"44 616 OFFCURVE",
"37 612 CURVE",
"52 591 LINE",
"59 579 OFFCURVE",
"68 565 OFFCURVE",
"79 549 CURVE",
"99 517 OFFCURVE",
"124 479 OFFCURVE",
"144 448 CURVE SMOOTH",
"170 409 LINE SMOOTH",
"177 398 OFFCURVE",
"182 392 OFFCURVE",
"183 390 CURVE",
"188 390 OFFCURVE",
"199 392 OFFCURVE",
"211 396 CURVE",
"217 397 OFFCURVE",
"223 399 OFFCURVE",
"229 401 CURVE",
"242 404 LINE",
"245 428 OFFCURVE",
"270 453 OFFCURVE",
"302 471 CURVE SMOOTH",
"334 489 OFFCURVE",
"374 499 OFFCURVE",
"406 496 CURVE SMOOTH",
"438 492 OFFCURVE",
"461 475 OFFCURVE",
"461 435 CURVE SMOOTH",
"461 400 OFFCURVE",
"431 380 OFFCURVE",
"396 369 CURVE SMOOTH",
"360 357 OFFCURVE",
"320 354 OFFCURVE",
"301 354 CURVE",
"301 346 OFFCURVE",
"299 324 OFFCURVE",
"296 302 CURVE SMOOTH",
"293 280 OFFCURVE",
"291 256 OFFCURVE",
"288 248 CURVE",
"300 245 OFFCURVE",
"319 241 OFFCURVE",
"343 234 CURVE SMOOTH",
"367 227 OFFCURVE",
"395 220 OFFCURVE",
"420 209 CURVE",
"425 236 LINE",
"426 247 OFFCURVE",
"428 259 OFFCURVE",
"430 271 CURVE SMOOTH",
"432 283 OFFCURVE",
"434 294 OFFCURVE",
"435 304 CURVE SMOOTH",
"437 321 LINE",
"466 328 OFFCURVE",
"508 336 OFFCURVE",
"542 359 CURVE SMOOTH",
"576 382 OFFCURVE",
"602 421 OFFCURVE",
"602 486 CURVE SMOOTH",
"602 523 OFFCURVE",
"595 564 OFFCURVE",
"580 599 CURVE SMOOTH",
"564 634 OFFCURVE",
"539 662 OFFCURVE",
"503 674 CURVE SMOOTH"
);
},
{
closed = 1;
nodes = (
"454 70 OFFCURVE",
"443 45 OFFCURVE",
"424 25 CURVE SMOOTH",
"404 5 OFFCURVE",
"376 -9 OFFCURVE",
"344 -12 CURVE SMOOTH",
"277 -19 OFFCURVE",
"223 14 OFFCURVE",
"216 67 CURVE SMOOTH",
"212 94 OFFCURVE",
"222 119 OFFCURVE",
"241 139 CURVE SMOOTH",
"260 159 OFFCURVE",
"288 172 OFFCURVE",
"321 176 CURVE SMOOTH",
"354 179 OFFCURVE",
"384 173 OFFCURVE",
"408 159 CURVE SMOOTH",
"431 145 OFFCURVE",
"446 124 OFFCURVE",
"450 97 CURVE SMOOTH"
);
},
{
closed = 1;
nodes = (
"282 138 OFFCURVE",
"245 103 OFFCURVE",
"245 64 CURVE",
"249 27 OFFCURVE",
"288 5 OFFCURVE",
"335 14 CURVE SMOOTH",
"384 25 OFFCURVE",
"420 60 OFFCURVE",
"420 100 CURVE",
"417 136 OFFCURVE",
"378 160 OFFCURVE",
"331 149 CURVE SMOOTH"
);
}
);
width = 633;
}
);
unicode = 003F;
},
{
glyphname = quotedbl;
layers = (
{
layerId = "7B23AAD7-CE87-48AA-B0FE-511DC5B49C39";
name = Regular;
paths = (
{
closed = 1;
nodes = (
"45 730 OFFCURVE",
"97 737 OFFCURVE",
"145 737 CURVE SMOOTH",
"193 737 OFFCURVE",
"237 730 OFFCURVE",
"264 718 CURVE",
"265 701 OFFCURVE",
"266 685 OFFCURVE",
"266 670 CURVE SMOOTH",
"266 639 OFFCURVE",
"264 610 OFFCURVE",
"257 581 CURVE",
"254 566 OFFCURVE",
"249 551 OFFCURVE",
"244 534 CURVE",
"220 522 OFFCURVE",
"201 498 OFFCURVE",
"188 475 CURVE SMOOTH",
"175 451 OFFCURVE",
"167 427 OFFCURVE",
"164 412 CURVE",
"161 409 OFFCURVE",
"151 407 OFFCURVE",
"140 406 CURVE SMOOTH",
"128 405 OFFCURVE",
"118 405 OFFCURVE",
"114 408 CURVE",
"107 431 OFFCURVE",
"94 460 OFFCURVE",
"78 488 CURVE SMOOTH",
"62 515 OFFCURVE",
"43 538 OFFCURVE",
"27 549 CURVE",
"19 581 OFFCURVE",
"12 613 OFFCURVE",
"8 653 CURVE SMOOTH",
"6 673 OFFCURVE",
"5 694 OFFCURVE",
"5 715 CURVE"
);
},
{
closed = 1;
nodes = (
"324 730 OFFCURVE",
"376 737 OFFCURVE",
"424 737 CURVE SMOOTH",
"472 737 OFFCURVE",
"516 730 OFFCURVE",
"543 718 CURVE",
"544 701 OFFCURVE",
"544 685 OFFCURVE",
"544 670 CURVE SMOOTH",
"544 639 OFFCURVE",
"542 610 OFFCURVE",
"536 581 CURVE SMOOTH",
"533 566 OFFCURVE",
"528 551 OFFCURVE",
"522 534 CURVE",
"498 522 OFFCURVE",
"479 498 OFFCURVE",
"467 475 CURVE SMOOTH",
"454 451 OFFCURVE",
"446 427 OFFCURVE",
"443 412 CURVE",
"439 409 OFFCURVE",
"429 407 OFFCURVE",
"418 406 CURVE SMOOTH",
"406 405 OFFCURVE",
"396 405 OFFCURVE",
"392 408 CURVE",
"385 431 OFFCURVE",
"372 460 OFFCURVE",
"356 488 CURVE SMOOTH",
"340 515 OFFCURVE",
"322 538 OFFCURVE",
"305 549 CURVE",
"296 581 OFFCURVE",
"291 613 OFFCURVE",
"287 653 CURVE SMOOTH",
"285 673 OFFCURVE",
"284 694 OFFCURVE",
"284 715 CURVE"
);
},
{
closed = 1;
nodes = (
"72 551 OFFCURVE",
"87 528 OFFCURVE",
"99 504 CURVE SMOOTH",
"110 480 OFFCURVE",
"117 455 OFFCURVE",
"121 435 CURVE",
"132 428 OFFCURVE",
"145 434 OFFCURVE",
"156 442 CURVE",
"167 487 OFFCURVE",
"185 533 OFFCURVE",
"221 552 CURVE",
"226 576 OFFCURVE",
"228 598 OFFCURVE",
"228 618 CURVE SMOOTH",
"228 638 OFFCURVE",
"227 659 OFFCURVE",
"225 681 CURVE",
"202 693 OFFCURVE",
"178 703 OFFCURVE",
"150 708 CURVE",
"135 710 OFFCURVE",
"119 711 OFFCURVE",
"102 711 CURVE SMOOTH",
"84 711 OFFCURVE",
"64 710 OFFCURVE",
"41 707 CURVE",
"37 648 OFFCURVE",
"40 610 OFFCURVE",
"51 567 CURVE"
);
},
{
closed = 1;
nodes = (
"350 551 OFFCURVE",
"365 528 OFFCURVE",
"377 504 CURVE SMOOTH",
"388 480 OFFCURVE",
"395 455 OFFCURVE",
"399 435 CURVE",
"410 428 OFFCURVE",
"423 434 OFFCURVE",
"434 442 CURVE",
"445 487 OFFCURVE",
"463 533 OFFCURVE",
"499 552 CURVE",
"504 576 OFFCURVE",
"506 598 OFFCURVE",
"506 618 CURVE SMOOTH",
"506 638 OFFCURVE",
"505 659 OFFCURVE",
"504 681 CURVE",
"480 693 OFFCURVE",
"456 703 OFFCURVE",
"428 708 CURVE",
"413 710 OFFCURVE",
"397 711 OFFCURVE",
"380 711 CURVE SMOOTH",
"362 711 OFFCURVE",
"342 710 OFFCURVE",
"319 707 CURVE",
"315 648 OFFCURVE",
"318 610 OFFCURVE",
"329 567 CURVE"
);
}
);
width = 548;
}
);
unicode = 0022;
},
{
glyphname = quotesingle;
layers = (
{
layerId = "7B23AAD7-CE87-48AA-B0FE-511DC5B49C39";
name = Regular;
paths = (
{
closed = 1;
nodes = (
"51 715 OFFCURVE",
"106 722 OFFCURVE",
"158 722 CURVE SMOOTH",
"210 722 OFFCURVE",
"259 716 OFFCURVE",
"287 705 CURVE",
"291 644 OFFCURVE",
"289 598 OFFCURVE",
"265 538 CURVE",
"240 526 OFFCURVE",
"219 506 OFFCURVE",
"205 484 CURVE SMOOTH",
"191 462 OFFCURVE",
"182 440 OFFCURVE",
"179 427 CURVE",
"175 424 OFFCURVE",
"164 422 OFFCURVE",
"152 422 CURVE",
"146 421 OFFCURVE",
"141 421 OFFCURVE",
"136 421 CURVE SMOOTH",
"131 421 OFFCURVE",
"127 422 OFFCURVE",
"125 423 CURVE",
"117 444 OFFCURVE",
"103 471 OFFCURVE",
"86 495 CURVE SMOOTH",
"69 519 OFFCURVE",
"50 542 OFFCURVE",
"31 551 CURVE",
"22 580 OFFCURVE",
"15 610 OFFCURVE",
"11 646 CURVE SMOOTH",
"9 664 OFFCURVE",
"8 683 OFFCURVE",
"8 702 CURVE"
);
},
{
closed = 1;
nodes = (
"80 553 OFFCURVE",
"96 533 OFFCURVE",
"108 511 CURVE SMOOTH",
"120 489 OFFCURVE",
"128 465 OFFCURVE",
"132 448 CURVE",
"144 441 OFFCURVE",
"159 447 OFFCURVE",
"170 454 CURVE",
"181 495 OFFCURVE",
"201 538 OFFCURVE",
"240 554 CURVE",
"245 576 OFFCURVE",
"248 596 OFFCURVE",
"248 614 CURVE SMOOTH",
"248 632 OFFCURVE",
"247 651 OFFCURVE",
"245 671 CURVE",
"220 683 OFFCURVE",
"195 691 OFFCURVE",
"164 695 CURVE SMOOTH",
"148 697 OFFCURVE",
"130 698 OFFCURVE",
"111 698 CURVE SMOOTH",
"92 698 OFFCURVE",
"70 697 OFFCURVE",
"46 695 CURVE",
"42 642 OFFCURVE",
"45 607 OFFCURVE",
"57 568 CURVE"
);
}
);
width = 296;
}
);
unicode = 0027;
},
{
glyphname = semicolon;
layers = (
{
layerId = "7B23AAD7-CE87-48AA-B0FE-511DC5B49C39";
name = Regular;
paths = (
{
closed = 1;
nodes = (
"211 707 OFFCURVE",
"252 699 OFFCURVE",
"279 680 CURVE SMOOTH",
"310 657 OFFCURVE",
"328 625 OFFCURVE",
"333 585 CURVE",
"333 583 OFFCURVE",
"334 580 OFFCURVE",
"335 577 CURVE",
"336 573 OFFCURVE",
"337 570 OFFCURVE",
"337 567 CURVE SMOOTH",
"337 527 OFFCURVE",
"319 486 OFFCURVE",
"292 455 CURVE",
"261 414 OFFCURVE",
"211 387 OFFCURVE",
"166 383 CURVE",
"126 378 OFFCURVE",
"85 387 OFFCURVE",
"58 410 CURVE",
"27 433 OFFCURVE",
"9 464 OFFCURVE",
"4 500 CURVE",
"-5 545 OFFCURVE",
"13 594 OFFCURVE",
"45 635 CURVE",
"76 671 OFFCURVE",
"126 698 OFFCURVE",
"171 702 CURVE"
);
},
{
closed = 1;
nodes = (
"196 406 OFFCURVE",
"234 434 OFFCURVE",
"256 467 CURVE SMOOTH",
"278 499 OFFCURVE",
"288 538 OFFCURVE",
"281 577 CURVE SMOOTH",
"277 596 OFFCURVE",
"270 613 OFFCURVE",
"261 626 CURVE",
"246 653 OFFCURVE",
"225 666 OFFCURVE",
"198 675 CURVE",
"171 680 OFFCURVE",
"144 676 OFFCURVE",
"121 657 CURVE",
"90 638 OFFCURVE",
"67 608 OFFCURVE",
"58 567 CURVE SMOOTH",
"49 531 OFFCURVE",
"57 491 OFFCURVE",
"76 459 CURVE",
"91 436 OFFCURVE",
"112 419 OFFCURVE",
"139 414 CURVE"
);
},
{
closed = 1;
nodes = (
"229 333 OFFCURVE",
"269 314 OFFCURVE",
"293 281 CURVE",
"321 246 OFFCURVE",
"329 195 OFFCURVE",
"310 123 CURVE SMOOTH",
"294 60 OFFCURVE",
"259 18 OFFCURVE",
"212 -3 CURVE SMOOTH",
"176 -19 OFFCURVE",
"137 -20 OFFCURVE",
"104 -15 CURVE SMOOTH",
"71 -10 OFFCURVE",
"43 1 OFFCURVE",
"27 9 CURVE",
"52 20 OFFCURVE",
"73 29 OFFCURVE",
"91 41 CURVE SMOOTH",
"109 53 OFFCURVE",
"113 67 OFFCURVE",
"116 76 CURVE",
"117 80 OFFCURVE",
"118 84 OFFCURVE",
"118 87 CURVE SMOOTH",
"118 90 OFFCURVE",
"118 92 OFFCURVE",
"117 94 CURVE",
"116 95 OFFCURVE",
"115 97 OFFCURVE",
"115 99 CURVE",
"102 100 OFFCURVE",
"77 104 OFFCURVE",
"56 117 CURVE",
"35 129 OFFCURVE",
"15 150 OFFCURVE",
"10 186 CURVE",
"7 201 OFFCURVE",
"5 220 OFFCURVE",
"9 241 CURVE",
"12 261 OFFCURVE",
"22 282 OFFCURVE",
"39 298 CURVE",
"70 330 OFFCURVE",
"115 343 OFFCURVE",
"172 336 CURVE"
);
},
{
closed = 1;
nodes = (
"55 155 OFFCURVE",
"66 140 OFFCURVE",
"82 131 CURVE SMOOTH",
"97 122 OFFCURVE",
"116 119 OFFCURVE",
"133 116 CURVE",
"136 115 LINE",
"139 111 LINE",
"147 96 OFFCURVE",
"146 83 OFFCURVE",
"139 68 CURVE",
"135 62 LINE SMOOTH",
"133 59 OFFCURVE",
"131 55 OFFCURVE",
"130 52 CURVE",
"121 37 OFFCURVE",
"104 24 OFFCURVE",
"81 15 CURVE",
"113 4 OFFCURVE",
"156 3 OFFCURVE",
"199 23 CURVE SMOOTH",
"234 38 OFFCURVE",
"255 66 OFFCURVE",
"271 109 CURVE",
"274 116 OFFCURVE",
"276 124 OFFCURVE",
"279 133 CURVE",
"293 192 OFFCURVE",
"290 236 OFFCURVE",
"271 265 CURVE SMOOTH",
"254 293 OFFCURVE",
"224 308 OFFCURVE",
"180 310 CURVE",
"131 310 OFFCURVE",
"95 299 OFFCURVE",
"74 277 CURVE",
"47 246 OFFCURVE",
"48 205 OFFCURVE",
"52 180 CURVE"
);
}
);
width = 360;
}
);
unicode = 003B;
},
{
glyphname = slash;
layers = (
{
layerId = "7B23AAD7-CE87-48AA-B0FE-511DC5B49C39";
name = Regular;
paths = (
{
closed = 1;
nodes = (
"392 606 OFFCURVE",
"426 575 OFFCURVE",
"456 545 CURVE SMOOTH",
"486 515 OFFCURVE",
"512 484 OFFCURVE",
"521 468 CURVE",
"456 423 OFFCURVE",
"372 346 OFFCURVE",
"295 258 CURVE SMOOTH",
"218 170 OFFCURVE",
"146 70 OFFCURVE",
"105 -22 CURVE",
"78 -3 OFFCURVE",
"49 24 OFFCURVE",
"26 45 CURVE SMOOTH",
"13 57 OFFCURVE",
"0 70 OFFCURVE",
"-12 83 CURVE",
"25 158 OFFCURVE",
"65 229 OFFCURVE",
"106 297 CURVE SMOOTH",
"142 356 OFFCURVE",
"183 418 OFFCURVE",
"228 476 CURVE SMOOTH",
"273 534 OFFCURVE",
"320 586 OFFCURVE",
"368 623 CURVE"
);
},
{
closed = 1;
nodes = (
"30 79 OFFCURVE",
"54 59 OFFCURVE",
"87 40 CURVE",
"107 73 OFFCURVE",
"145 124 OFFCURVE",
"189 181 CURVE SMOOTH",
"233 237 OFFCURVE",
"285 299 OFFCURVE",
"332 352 CURVE SMOOTH",
"379 405 OFFCURVE",
"421 452 OFFCURVE",
"448 476 CURVE",
"447 487 OFFCURVE",
"425 511 OFFCURVE",
"402 534 CURVE SMOOTH",
"389 547 OFFCURVE",
"375 560 OFFCURVE",
"358 575 CURVE",
"314 547 OFFCURVE",
"264 493 OFFCURVE",
"217 430 CURVE SMOOTH",
"169 366 OFFCURVE",
"124 296 OFFCURVE",
"88 234 CURVE SMOOTH",
"51 172 OFFCURVE",
"23 119 OFFCURVE",
"11 94 CURVE"
);
}
);
width = 500;
}
);
unicode = 002F;
},
{
glyphname = underscore;
layers = (
{
layerId = "7B23AAD7-CE87-48AA-B0FE-511DC5B49C39";
name = Regular;
paths = (
{
closed = 1;
nodes = (
"547 -13 OFFCURVE",
"488 -20 OFFCURVE",
"416 -26 CURVE SMOOTH",
"344 -32 OFFCURVE",
"258 -38 OFFCURVE",
"184 -41 CURVE SMOOTH",
"110 -44 OFFCURVE",
"47 -46 OFFCURVE",
"23 -43 CURVE",
"22 -34 OFFCURVE",
"19 -2 OFFCURVE",
"17 31 CURVE SMOOTH",
"15 64 OFFCURVE",
"14 101 OFFCURVE",
"15 118 CURVE",
"40 114 OFFCURVE",
"100 111 OFFCURVE",
"173 110 CURVE SMOOTH",
"245 109 OFFCURVE",
"329 108 OFFCURVE",
"401 109 CURVE SMOOTH",
"472 109 OFFCURVE",
"531 111 OFFCURVE",
"552 115 CURVE",
"555 105 OFFCURVE",
"558 93 OFFCURVE",
"559 80 CURVE SMOOTH",
"562 52 OFFCURVE",
"565 26 OFFCURVE",
"566 -5 CURVE"
);
},
{
closed = 1;
nodes = (
"509 88 OFFCURVE",
"459 87 OFFCURVE",
"397 88 CURVE SMOOTH",
"366 88 OFFCURVE",
"332 88 OFFCURVE",
"297 89 CURVE SMOOTH",
"226 89 OFFCURVE",
"162 91 OFFCURVE",
"114 94 CURVE SMOOTH",
"89 95 OFFCURVE",
"73 97 OFFCURVE",
"64 98 CURVE",
"63 91 OFFCURVE",
"63 82 OFFCURVE",
"63 70 CURVE SMOOTH",
"63 46 OFFCURVE",
"65 20 OFFCURVE",
"67 -1 CURVE SMOOTH",
"68 -12 OFFCURVE",
"68 -19 OFFCURVE",
"69 -22 CURVE",
"86 -23 OFFCURVE",
"139 -22 OFFCURVE",
"203 -20 CURVE SMOOTH",
"266 -18 OFFCURVE",
"341 -15 OFFCURVE",
"404 -10 CURVE SMOOTH",
"435 -8 OFFCURVE",
"463 -6 OFFCURVE",
"486 -3 CURVE SMOOTH",
"509 0 OFFCURVE",
"525 2 OFFCURVE",
"532 5 CURVE",
"533 26 OFFCURVE",
"531 46 OFFCURVE",
"530 66 CURVE",
"529 75 OFFCURVE",
"528 84 OFFCURVE",
"525 91 CURVE"
);
}
);
width = 577;
}
);
unicode = 005F;
},
{
glyphname = bracketleft;
layers = (
{
layerId = "7B23AAD7-CE87-48AA-B0FE-511DC5B49C39";
name = Regular;
paths = (
{
closed = 1;
nodes = (
"325 81 OFFCURVE",
"315 84 OFFCURVE",
"301 88 CURVE",
"287 91 OFFCURVE",
"266 98 OFFCURVE",
"238 107 CURVE",
"201 183 OFFCURVE",
"191 267 OFFCURVE",
"195 347 CURVE SMOOTH",
"199 427 OFFCURVE",
"217 504 OFFCURVE",
"236 564 CURVE",
"247 569 OFFCURVE",
"261 576 OFFCURVE",
"276 584 CURVE SMOOTH",
"291 592 OFFCURVE",
"305 597 OFFCURVE",
"316 600 CURVE",
"258 767 LINE",
"79 733 LINE",
"31 612 OFFCURVE",
"8 506 OFFCURVE",
"6 382 CURVE SMOOTH",
"4 258 OFFCURVE",
"26 117 OFFCURVE",
"67 -72 CURVE",
"180 -79 OFFCURVE",
"268 -62 OFFCURVE",
"337 -42 CURVE",
"341 80 LINE",
"340 79 OFFCURVE",
"337 79 OFFCURVE",
"331 80 CURVE SMOOTH"
);
},
{
closed = 1;
nodes = (
"50 139 OFFCURVE",
"33 267 OFFCURVE",
"34 380 CURVE SMOOTH",
"35 493 OFFCURVE",
"55 590 OFFCURVE",
"95 701 CURVE",
"244 731 LINE",
"264 643 LINE",
"254 642 OFFCURVE",
"243 637 OFFCURVE",
"231 629 CURVE",
"218 621 OFFCURVE",
"207 615 OFFCURVE",
"198 612 CURVE",
"181 556 OFFCURVE",
"172 459 OFFCURVE",
"175 359 CURVE SMOOTH",
"178 258 OFFCURVE",
"193 154 OFFCURVE",
"224 83 CURVE",
"247 74 OFFCURVE",
"265 68 OFFCURVE",
"277 65 CURVE SMOOTH",
"288 62 OFFCURVE",
"297 59 OFFCURVE",
"302 58 CURVE",
"306 57 OFFCURVE",
"309 57 OFFCURVE",
"310 58 CURVE",
"310 -8 LINE",
"251 -29 OFFCURVE",
"180 -44 OFFCURVE",
"83 -36 CURVE"
);
}
);
width = 367;
}
);
unicode = 005B;
},
{
glyphname = bracketright;
layers = (
{
layerId = "7B23AAD7-CE87-48AA-B0FE-511DC5B49C39";
name = Regular;
paths = (
{
closed = 1;
nodes = (
"172 769 OFFCURVE",
"84 752 OFFCURVE",
"15 732 CURVE",
"11 610 LINE",
"12 611 OFFCURVE",
"15 611 OFFCURVE",
"21 610 CURVE SMOOTH",
"27 609 OFFCURVE",
"37 606 OFFCURVE",
"51 603 CURVE",
"65 599 OFFCURVE",
"86 592 OFFCURVE",
"114 583 CURVE",
"151 507 OFFCURVE",
"161 423 OFFCURVE",
"157 343 CURVE SMOOTH",
"153 263 OFFCURVE",
"135 186 OFFCURVE",
"116 126 CURVE",
"105 121 OFFCURVE",
"91 114 OFFCURVE",
"76 106 CURVE SMOOTH",
"61 98 OFFCURVE",
"47 93 OFFCURVE",
"36 90 CURVE",
"94 -77 LINE",
"273 -43 LINE",
"321 78 OFFCURVE",
"345 184 OFFCURVE",
"347 308 CURVE SMOOTH",
"349 432 OFFCURVE",
"328 573 OFFCURVE",
"285 762 CURVE"
);
},
{
closed = 1;
nodes = (
"317 198 OFFCURVE",
"297 100 OFFCURVE",
"257 -11 CURVE",
"108 -41 LINE",
"88 47 LINE",
"98 48 OFFCURVE",
"109 53 OFFCURVE",
"122 61 CURVE",
"134 69 OFFCURVE",
"145 75 OFFCURVE",
"154 78 CURVE",
"171 134 OFFCURVE",
"180 231 OFFCURVE",
"177 332 CURVE SMOOTH",
"174 432 OFFCURVE",
"159 536 OFFCURVE",
"128 607 CURVE",
"105 616 OFFCURVE",
"87 623 OFFCURVE",
"76 626 CURVE SMOOTH",
"65 629 OFFCURVE",
"56 632 OFFCURVE",
"51 633 CURVE SMOOTH",
"45 634 OFFCURVE",
"42 634 OFFCURVE",
"42 631 CURVE",
"42 698 LINE",
"101 719 OFFCURVE",
"172 734 OFFCURVE",
"269 726 CURVE",
"302 553 OFFCURVE",
"319 423 OFFCURVE",
"318 311 CURVE SMOOTH"
);
}
);
width = 367;
}
);
unicode = 005D;
},
{
glyphname = parenleft;
layers = (
{
layerId = "7B23AAD7-CE87-48AA-B0FE-511DC5B49C39";
name = Regular;
paths = (
{
closed = 1;
nodes = (
"192 -20 OFFCURVE",
"104 10 OFFCURVE",
"53 50 CURVE",
"40 105 OFFCURVE",
"22 177 OFFCURVE",
"14 253 CURVE SMOOTH",
"6 329 OFFCURVE",
"8 410 OFFCURVE",
"33 480 CURVE SMOOTH",
"58 550 OFFCURVE",
"106 611 OFFCURVE",
"193 648 CURVE",
"170 588 OFFCURVE",
"148 531 OFFCURVE",
"137 469 CURVE SMOOTH",
"126 407 OFFCURVE",
"127 339 OFFCURVE",
"149 259 CURVE SMOOTH",
"171 178 OFFCURVE",
"213 84 OFFCURVE",
"288 -32 CURVE"
);
},
{
closed = 1;
nodes = (
"85 543 OFFCURVE",
"46 467 OFFCURVE",
"34 376 CURVE SMOOTH",
"21 284 OFFCURVE",
"35 178 OFFCURVE",
"64 74 CURVE",
"107 37 OFFCURVE",
"167 26 OFFCURVE",
"238 22 CURVE",
"162 145 OFFCURVE",
"122 252 OFFCURVE",
"111 345 CURVE SMOOTH",
"99 438 OFFCURVE",
"119 518 OFFCURVE",
"160 590 CURVE"
);
}
);
width = 277;
}
);
unicode = 0028;
},
{
glyphname = parenright;
layers = (
{
layerId = "7B23AAD7-CE87-48AA-B0FE-511DC5B49C39";
name = Regular;
paths = (
{
closed = 1;
nodes = (
"57 640 OFFCURVE",
"102 626 OFFCURVE",
"142 610 CURVE SMOOTH",
"182 593 OFFCURVE",
"215 574 OFFCURVE",
"239 551 CURVE",
"248 496 OFFCURVE",
"260 422 OFFCURVE",
"263 346 CURVE SMOOTH",
"266 270 OFFCURVE",
"259 189 OFFCURVE",
"229 121 CURVE SMOOTH",
"199 53 OFFCURVE",
"146 -5 OFFCURVE",
"57 -36 CURVE",
"85 23 OFFCURVE",
"110 78 OFFCURVE",
"126 139 CURVE SMOOTH",
"141 200 OFFCURVE",
"145 268 OFFCURVE",
"129 350 CURVE SMOOTH",
"112 432 OFFCURVE",
"75 529 OFFCURVE",
"10 649 CURVE"
);
},
{
closed = 1;
nodes = (
"171 61 OFFCURVE",
"216 133 OFFCURVE",
"236 221 CURVE SMOOTH",
"256 309 OFFCURVE",
"251 414 OFFCURVE",
"228 519 CURVE",
"189 559 OFFCURVE",
"133 575 OFFCURVE",
"82 582 CURVE",
"150 454 OFFCURVE",
"177 348 OFFCURVE",
"174 257 CURVE SMOOTH",
"171 165 OFFCURVE",
"141 88 OFFCURVE",
"94 20 CURVE"
);
}
);
width = 272;
}
);
unicode = 0029;
},
{
glyphname = hyphen;
layers = (
{
layerId = "7B23AAD7-CE87-48AA-B0FE-511DC5B49C39";
name = Regular;
paths = (
{
closed = 1;
nodes = (
"2 395 LINE",
"22 403 OFFCURVE",
"59 411 OFFCURVE",
"103 417 CURVE SMOOTH",
"147 423 OFFCURVE",
"198 428 OFFCURVE",
"244 431 CURVE SMOOTH",
"290 434 OFFCURVE",
"331 436 OFFCURVE",
"355 433 CURVE",
"356 424 OFFCURVE",
"360 392 OFFCURVE",
"362 359 CURVE SMOOTH",
"364 326 OFFCURVE",
"364 289 OFFCURVE",
"363 272 CURVE",
"326 277 OFFCURVE",
"255 281 OFFCURVE",
"186 282 CURVE SMOOTH",
"117 282 OFFCURVE",
"48 280 OFFCURVE",
"16 275 CURVE",
"11 296 OFFCURVE",
"8 325 OFFCURVE",
"5 350 CURVE"
);
},
{
closed = 1;
nodes = (
"67 303 OFFCURVE",
"121 304 OFFCURVE",
"176 302 CURVE SMOOTH",
"231 300 OFFCURVE",
"287 296 OFFCURVE",
"314 292 CURVE",
"315 299 OFFCURVE",
"315 308 OFFCURVE",
"315 320 CURVE SMOOTH",
"315 344 OFFCURVE",
"314 370 OFFCURVE",
"312 391 CURVE SMOOTH",
"311 402 OFFCURVE",
"310 409 OFFCURVE",
"309 412 CURVE",
"292 413 OFFCURVE",
"260 413 OFFCURVE",
"225 411 CURVE SMOOTH",
"189 409 OFFCURVE",
"150 405 OFFCURVE",
"115 401 CURVE SMOOTH",
"80 396 OFFCURVE",
"51 392 OFFCURVE",
"36 385 CURVE",
"35 364 OFFCURVE",
"37 344 OFFCURVE",
"38 325 CURVE",
"39 315 OFFCURVE",
"40 306 OFFCURVE",
"43 299 CURVE"
);
}
);
width = 392;
}
);
unicode = 002D;
},
